<svg id="Capa_1" enable-background="new 0 0 512 512" height="512" viewBox="0 0 512 512" width="512" xmlns="http://www.w3.org/2000/svg"><g><g><g><g><g><g><g><circle cx="256" cy="256" fill="#a260e5" r="256"/></g></g></g></g></g></g><path d="m512 256c0-11.247-.726-22.325-2.132-33.189l-102.422-102.422-94.005-32.718-130.376 12.14 147.037 147.037-169.322 178.82 86.175 86.175c3.002.104 6.017.157 9.044.157 141.386 0 256.001-114.615 256.001-256z" fill="#7a3eb5"/><g><path d="m237.776 83.811h36.449v58.181h-36.449z" fill="#fff"/></g><g><path d="m256.121 83.811h18.104v58.181h-18.104z" fill="#e9edf5"/></g><g><path d="m205.177 134.635h101.647v58.181h-101.647z" fill="#dce1eb"/></g><g><path d="m256.121 134.635h50.703v58.181h-50.703z" fill="#bec3d2"/></g><g><path d="m318.629 440.189h-125.258c-24.216 0-43.847-19.631-43.847-43.847v-170.295c0-24.216 19.631-43.847 43.847-43.847h125.258c24.216 0 43.847 19.631 43.847 43.847v170.295c-.001 24.216-19.631 43.847-43.847 43.847z" fill="#fff"/></g><g><path d="m318.629 182.2h-62.508v257.989h62.508c24.216 0 43.847-19.631 43.847-43.847v-170.295c0-24.216-19.631-43.847-43.847-43.847z" fill="#e9edf5"/></g><g><path d="m384.819 143.016-30.319-30.318c-8.31-8.31-19.358-12.886-31.11-12.886h-140.325v-32h140.325c20.3 0 39.385 7.905 53.737 22.259l30.319 30.319z" fill="#dce1eb"/></g><g><path d="m377.127 90.07c-14.353-14.354-33.438-22.259-53.737-22.259h-67.269v32h67.269c11.752 0 22.801 4.576 31.11 12.886l30.319 30.319 22.627-22.627z" fill="#bec3d2"/></g><g><path d="m187.917 228.389h136.166v165.611h-136.166z" fill="#ff6c52"/></g><g><path d="m256.121 228.389h67.963v165.611h-67.963z" fill="#ff432e"/></g><g><path d="m294.118 326.662v-30.935h-22.651v-22.65h-30.934v22.65h-22.651v30.934l22.651.001v22.65h30.934v-22.65z" fill="#fff"/></g><g><path d="m271.467 295.727v-22.65h-15.346v76.235h15.346v-22.65h22.651v-30.935z" fill="#e9edf5"/></g></g></svg>