<svg id="Capa_1" enable-background="new 0 0 497 497" height="512" viewBox="0 0 497 497" width="512" xmlns="http://www.w3.org/2000/svg"><g><g><g><path d="m373.248 497h-249.496c-8.44 0-15.282-6.842-15.282-15.282v-466.436c0-8.44 6.842-15.282 15.282-15.282h249.496c8.44 0 15.282 6.842 15.282 15.282v466.436c0 8.44-6.842 15.282-15.282 15.282z" fill="#edf6ff"/></g></g><g><g><path d="m373.248 0h-30c8.44 0 15.282 6.842 15.282 15.282v466.436c0 8.44-6.842 15.282-15.282 15.282h30c8.44 0 15.282-6.842 15.282-15.282v-466.436c0-8.44-6.842-15.282-15.282-15.282z" fill="#ddebfd"/></g></g><g><g><path d="m388.53 52.5v-37.218c0-8.44-6.842-15.282-15.282-15.282h-249.496c-8.44 0-15.282 6.842-15.282 15.282v37.218z" fill="#5392f9"/></g></g><g><g><path d="m388.53 444.5v37.218c0 8.44-6.842 15.282-15.282 15.282h-249.496c-8.44 0-15.282-6.842-15.282-15.282v-37.218z" fill="#5392f9"/></g></g><g><g><path d="m373.248 0h-30c8.44 0 15.282 6.842 15.282 15.282v37.218h30v-37.218c0-8.44-6.842-15.282-15.282-15.282z" fill="#4981f8"/></g></g><g><g><path d="m358.53 444.5v37.218c0 8.44-6.842 15.282-15.282 15.282h30c8.44 0 15.282-6.842 15.282-15.282v-37.218z" fill="#4981f8"/></g></g><g><g><path d="m332.596 91.342h-168.192c-9.28 0-16.804 7.523-16.804 16.804v18.916c0 9.28 7.523 16.803 16.804 16.803h12.659c1.268 0 2.439.676 3.073 1.775l13.458 23.31c1.366 2.366 4.781 2.366 6.147 0l13.458-23.31c.634-1.098 1.805-1.775 3.073-1.775h116.323c9.28 0 16.804-7.523 16.804-16.803v-18.916c.001-9.28-7.523-16.804-16.803-16.804z" fill="#92e0c4"/></g></g><g><g><path d="m164.404 214.014h168.192c9.28 0 16.804 7.523 16.804 16.803v18.916c0 9.28-7.523 16.804-16.804 16.804h-12.659c-1.268 0-2.439.676-3.073 1.774l-13.458 23.31c-1.366 2.366-4.781 2.366-6.147 0l-13.458-23.31c-.634-1.098-1.806-1.774-3.073-1.774h-116.324c-9.28 0-16.804-7.523-16.804-16.804v-18.916c0-9.28 7.524-16.803 16.804-16.803z" fill="#f8e883"/></g></g><g><g><path d="m329.363 405.747h-161.726c-13.241 0-23.975-10.734-23.975-23.974 0-13.241 10.734-23.975 23.975-23.975h161.727c13.241 0 23.974 10.734 23.974 23.975 0 13.24-10.734 23.974-23.975 23.974z" fill="#bed9fd"/></g></g><g><g><path d="m332.596 91.342h-30c9.28 0 16.804 7.523 16.804 16.804v18.916c0 9.28-7.523 16.804-16.804 16.804h30c9.28 0 16.804-7.523 16.804-16.804v-18.916c0-9.28-7.524-16.804-16.804-16.804z" fill="#77d1b3"/></g></g><g><g><path d="m332.596 214.014h-30c9.28 0 16.804 7.523 16.804 16.803v18.916c0 9.28-7.523 16.804-16.804 16.804h-12.659c-1.268 0-2.439.676-3.073 1.774l-1.532 2.653 11.927 20.657c1.366 2.366 4.781 2.366 6.147 0l13.458-23.31c.634-1.098 1.805-1.774 3.073-1.774h12.659c9.28 0 16.804-7.523 16.804-16.804v-18.916c0-9.28-7.524-16.803-16.804-16.803z" fill="#f7e365"/></g></g><g><g><path d="m329.363 357.798h-30c13.241 0 23.974 10.734 23.974 23.975s-10.734 23.975-23.974 23.975h30c13.241 0 23.974-10.734 23.974-23.975.001-13.242-10.733-23.975-23.974-23.975z" fill="#9ec8fc"/></g></g><g><g><circle cx="166.673" cy="310.746" fill="#9ec8fc" r="7.5"/></g></g><g><g><circle cx="194.421" cy="310.746" fill="#9ec8fc" r="7.5"/></g></g><g><g><circle cx="222.168" cy="310.746" fill="#9ec8fc" r="7.5"/></g></g></g></svg>