<svg id="Layer_1" enable-background="new 0 0 512 512" height="512" viewBox="0 0 512 512" width="512" xmlns="http://www.w3.org/2000/svg"><g><g><g><g><g><g><path d="m288 208h-64c-26.51 0-48-21.49-48-48v-96c0-26.51 21.49-48 48-48h64c26.51 0 48 21.49 48 48v96c0 26.51-21.49 48-48 48z" fill="#fab991"/></g></g></g></g><g><g><g><g><path d="m336 152v-48c13.255 0 24 10.745 24 24 0 13.255-10.745 24-24 24z" fill="#f0915a"/></g></g></g></g><g><g><g><g><path d="m368 256-80-24h-64l-80 24c-35.346 0-64 28.654-64 64v176h352v-176c0-35.346-28.654-64-64-64z" fill="#fab991"/></g></g></g></g><g><g><g><g><circle cx="288" cy="112" fill="#555a6e" r="8"/></g></g></g></g><g><g><g><g><path d="m176 152v-48c-13.255 0-24 10.745-24 24 0 13.255 10.745 24 24 24z" fill="#f0915a"/></g></g></g></g><g><g><g><g><path d="m288 16h-64c-26.51 0-48 21.49-48 48v48c8.837 0 16-7.164 16-16v-16c0-17.673 14.327-32 32-32h64c17.673 0 32 14.327 32 32v16c0 8.836 7.163 16 16 16v-48c0-26.51-21.49-48-48-48z" fill="#555a6e"/></g></g></g></g><g><g><g><g><circle cx="224" cy="112" fill="#555a6e" r="8"/></g></g></g></g><g><g><g><g><path d="m232 176h48c0-4.418-3.582-8-8-8h-32c-4.418 0-8 3.582-8 8z" fill="#555a6e"/></g></g></g></g><g><g><g><g><path d="m256 130.667c-4.418 0-8 3.582-8 8v5.333c0 4.418 3.582 8 8 8s8-3.582 8-8v-5.333c0-4.419-3.582-8-8-8z" fill="#f0915a"/></g></g></g></g><g><g><g><g><path d="m368 328v48c0 17.673-14.327 32-32 32h-48c-17.673 0-32-14.327-32-32 0 17.673-14.327 32-32 32h-48c-17.673 0-32-14.327-32-32v-48c-8.837 0-16 7.164-16 16v152h16v-88c0 8.836 7.163 16 16 16h80c8.837 0 16-7.164 16-16 0 8.836 7.163 16 16 16h80c8.837 0 16-7.164 16-16v88h16v-152c0-8.836-7.163-16-16-16z" fill="#f0915a"/></g></g></g></g><g><g><g><g><path d="m314.667 461.333h-26.667c-17.673 0-32-14.327-32-32 0 17.673-14.327 32-32 32h-26.667c-11.782 0-21.333-9.551-21.333-21.333v21.333c0 8.836 7.163 16 16 16h48c8.837 0 16-7.164 16-16 0 8.836 7.163 16 16 16h48c8.837 0 16-7.164 16-16v-21.333c0 11.782-9.551 21.333-21.333 21.333z" fill="#f0915a"/></g></g></g></g><g><g><g><g><path d="m288 232v-24h-64v24l-80 24h80c17.673 0 32 14.327 32 32 0-17.673 14.327-32 32-32h80z" fill="#f0915a"/></g></g></g></g><g><g><g><g><circle cx="176" cy="376" fill="#f0915a" r="8"/></g></g></g></g><g><g><g><g><circle cx="336" cy="376" fill="#f0915a" r="8"/></g></g></g></g></g><g><g><g><g><g><path d="m96 344v-16c0-4.418-3.582-8-8-8h-8v64h24c4.418 0 8-3.582 8-8v-16c0-4.418-3.582-8-8-8-4.418 0-8-3.582-8-8z" fill="#f5826e"/></g></g></g></g><g><g><g><g><path d="m416 456v16c0 4.418 3.582 8 8 8h8v-64h-24c-4.418 0-8 3.582-8 8v16c0 4.418 3.582 8 8 8 4.418 0 8 3.582 8 8z" fill="#f5826e"/></g></g></g></g><g><g><g><g><path d="m304 236.8v51.2c0 8.836 7.163 16 16 16s16-7.164 16-16c0-8.836 7.163-16 16-16s16-7.164 16-16z" fill="#f5826e"/></g></g></g></g><g><g><g><g><path d="m304 256h64l-64-19.2z" fill="#f04938"/></g></g></g></g><g><g><g><g><circle cx="360" cy="288" fill="#f5826e" r="8"/></g></g></g></g><g><g><g><g><circle cx="200" cy="152" fill="#f5826e" r="8"/></g></g></g></g><g><g><g><g><circle cx="296" cy="312" fill="#f5826e" r="8"/></g></g></g></g><g><g><g><g><circle cx="104" cy="312" fill="#f5826e" r="8"/></g></g></g></g><g><g><g><g><circle cx="400" cy="472" fill="#f5826e" r="8"/></g></g></g></g><g><g><g><g><circle cx="96" cy="448" fill="#f5826e" r="8"/></g></g></g></g><g><g><g><g><circle cx="100" cy="396" fill="#f5826e" r="4"/></g></g></g></g><g><g><g><g><circle cx="324" cy="164" fill="#f5826e" r="4"/></g></g></g></g><g><g><g><g><circle cx="188" cy="324" fill="#f5826e" r="4"/></g></g></g></g><g><g><g><g><circle cx="284" cy="284" fill="#f5826e" r="4"/></g></g></g></g><g><g><g><g><path d="m192 136c0 4.418-3.582 8-8 8h-8v-32h24c4.418 0 8 3.582 8 8 0 4.418-3.582 8-8 8-4.418 0-8 3.582-8 8z" fill="#f5826e"/></g></g></g></g><g><g><g><g><path d="m160 352c0 4.418-3.582 8-8 8h-8v-32h24c4.418 0 8 3.582 8 8 0 4.418-3.582 8-8 8-4.418 0-8 3.582-8 8z" fill="#f5826e"/></g></g></g></g></g></g></svg>