<svg id="Layer_1" enable-background="new 0 0 256 256" height="512" viewBox="0 0 256 256" width="512" xmlns="http://www.w3.org/2000/svg"><path d="m60.602 247.433c-23.22-1.276-42.284-19.667-44.34-42.83-1.466-16.514 5.636-32.164 18.559-41.915 1.516-1.144 2.429-2.915 2.429-4.814v-122.826c0-14.148 11.071-26.122 25.213-26.541 14.694-.436 26.787 11.39 26.787 25.988v123.378c0 1.901.915 3.672 2.433 4.818 11.8 8.905 18.745 22.728 18.745 37.637 0 26.891-22.616 48.6-49.826 47.105z" fill="#e0ebfc"/><path d="m79.25 165.812v-73.818-57.5c0-8.823-7.178-16-16-16s-16 7.177-16 16v57.5 73.817c-13.01 6.055-22.055 19.246-22.055 34.516 0 20.984 17.072 38.055 38.055 38.055 20.984 0 38.055-17.072 38.055-38.055.001-15.27-9.045-28.46-22.055-34.515z" fill="#a4c9ff"/><path d="m63.285 249.507c-.928 0-1.858-.025-2.792-.077-24.21-1.33-44.082-20.525-46.223-44.65-1.515-17.072 5.717-33.404 19.347-43.688 1.039-.783 1.634-1.956 1.634-3.218v-122.826c0-15.293 12.181-28.097 27.153-28.541 7.623-.24 14.855 2.579 20.338 7.902 5.487 5.326 8.508 12.459 8.508 20.085v123.379c0 1.262.597 2.436 1.638 3.221 12.417 9.372 19.54 23.672 19.54 39.233 0 13.63-5.468 26.311-15.396 35.708-9.237 8.745-21.131 13.471-33.747 13.472zm-.028-239.013c-.245 0-.488.004-.734.011-12.833.381-23.273 11.391-23.273 24.543v122.825c0 2.491-1.206 4.888-3.225 6.411-12.521 9.447-19.164 24.453-17.771 40.142 1.966 22.158 20.219 39.788 42.458 41.01 12.54.68 24.46-3.683 33.57-12.305 9.122-8.635 14.146-20.284 14.146-32.804 0-14.295-6.542-27.432-17.949-36.04-2.022-1.526-3.229-3.924-3.229-6.414v-123.379c0-6.535-2.591-12.648-7.294-17.215-4.524-4.391-10.43-6.785-16.699-6.785z" fill="#3762cc"/><path d="m207.872 123.76c-2.034 0-3.904 1.083-4.929 2.809h-2.896l2.455-2.194c1.07-.958 1.162-2.607.205-3.679-.494-.552-1.202-.868-1.942-.868-.643 0-1.259.236-1.735.664l-6.799 6.077h-12.192l5.641-10.81 8.533-3.216c.651-.245 1.169-.729 1.455-1.364.287-.634.31-1.342.063-1.991-.38-1.009-1.359-1.687-2.437-1.687-.314 0-.624.057-.919.168l-3.08 1.16 1.34-2.567c2.02-.11 3.828-1.266 4.771-3.071 1.462-2.804.371-6.274-2.432-7.736-.817-.426-1.733-.651-2.649-.651-2.146 0-4.096 1.181-5.088 3.082-.941 1.804-.846 3.963.21 5.67l-1.34 2.566-.81-3.191c-.294-1.155-1.332-1.963-2.523-1.963-.216 0-.432.027-.643.08-.674.172-1.241.595-1.598 1.192-.355.599-.457 1.3-.286 1.974l2.243 8.84-5.279 10.117-5.279-10.117 2.243-8.84c.353-1.393-.493-2.813-1.884-3.165-.211-.054-.427-.081-.644-.081-1.191 0-2.229.808-2.523 1.964l-.81 3.191-1.34-2.567c1.056-1.707 1.151-3.865.211-5.67-.992-1.901-2.942-3.082-5.089-3.082-.916 0-1.832.226-2.648.651-1.358.708-2.359 1.903-2.818 3.365-.459 1.461-.322 3.014.387 4.371.941 1.806 2.749 2.961 4.77 3.071l1.34 2.567-3.078-1.16c-.296-.111-.605-.169-.921-.169-1.077 0-2.057.679-2.437 1.688-.245.651-.223 1.358.064 1.992s.804 1.118 1.455 1.363l8.533 3.216 5.641 10.81h-12.192l-6.798-6.076c-.479-.429-1.095-.665-1.736-.665-.741 0-1.448.316-1.943.869-.957 1.071-.864 2.721.206 3.678l2.454 2.194h-2.896c-1.025-1.726-2.895-2.809-4.93-2.809-3.162 0-5.734 2.572-5.734 5.734s2.572 5.735 5.734 5.735c2.035 0 3.904-1.084 4.93-2.81h2.896l-2.453 2.193c-1.071.958-1.164 2.607-.207 3.679.493.553 1.201.869 1.943.869.641 0 1.257-.235 1.734-.663l6.8-6.078h12.192l-5.641 10.81-8.533 3.216c-1.344.506-2.026 2.012-1.52 3.356.38 1.009 1.359 1.687 2.438 1.687.314 0 .623-.057.918-.168l3.08-1.16-1.339 2.567c-2.021.109-3.829 1.265-4.771 3.07-.709 1.357-.846 2.91-.387 4.372.459 1.461 1.46 2.656 2.817 3.365.817.426 1.732.651 2.649.651 2.146 0 4.096-1.182 5.089-3.083.941-1.804.845-3.963-.211-5.669l1.34-2.568.811 3.191c.293 1.157 1.331 1.965 2.523 1.965.214 0 .429-.027.642-.08.674-.171 1.242-.595 1.598-1.193.355-.598.458-1.298.287-1.973l-2.243-8.84 5.279-10.118 5.279 10.118-2.242 8.839c-.172.674-.07 1.375.285 1.973.355.599.923 1.022 1.602 1.194.211.054.426.08.639.08 1.192 0 2.23-.808 2.524-1.965l.809-3.19 1.34 2.567c-1.056 1.707-1.151 3.865-.21 5.669.993 1.901 2.942 3.083 5.089 3.083.916 0 1.831-.226 2.648-.651 2.803-1.463 3.894-4.934 2.432-7.737-.942-1.806-2.751-2.961-4.771-3.07l-1.339-2.567 3.08 1.16c.295.111.604.168.918.168 1.078 0 2.058-.678 2.438-1.686.246-.651.224-1.359-.063-1.994-.287-.634-.804-1.118-1.455-1.363l-8.533-3.216-5.641-10.81h12.192l6.799 6.079c.479.427 1.096.662 1.735.662.74 0 1.448-.316 1.943-.869.956-1.07.864-2.72-.207-3.678l-2.454-2.194h2.896c1.025 1.726 2.895 2.81 4.929 2.81 3.162 0 5.735-2.573 5.735-5.735s-2.573-5.734-5.735-5.734z" fill="#a4c9ff"/><path d="m237.211 161.517c-1.899-1.187-4.22-1.131-6.02-.059l-8.122-5.075 9.72-.601c1.416-.088 2.492-1.306 2.405-2.722-.088-1.416-1.338-2.492-2.722-2.405l-16.896 1.045-7.764-4.852 13.864-3.201c1.382-.319 2.243-1.698 1.924-3.08s-1.7-2.243-3.08-1.924l-18.868 4.356-49.809-31.124-4.356-18.868c-.319-1.382-1.701-2.243-3.08-1.924-1.382.319-2.243 1.698-1.924 3.08l3.201 13.864-7.764-4.852-6.47-15.645c-.542-1.311-2.045-1.934-3.354-1.392-1.311.542-1.934 2.044-1.392 3.354l3.721 8.999-8.122-5.075c.174-2.088-.793-4.198-2.692-5.385-2.706-1.691-6.271-.868-7.962 1.838s-.868 6.271 1.838 7.962c1.946 1.216 4.333 1.126 6.151-.024l8.064 5.039-9.72.601c-1.416.088-2.492 1.306-2.405 2.722.087 1.407 1.292 2.48 2.697 2.406.008 0 .017-.001.025-.001l16.896-1.044 7.764 4.852-13.864 3.201c-1.382.319-2.243 1.698-1.924 3.08.285 1.233 1.413 2.051 2.634 1.987.148-.008.297-.028.447-.063l18.868-4.356 49.809 31.124 4.356 18.868c.285 1.233 1.413 2.051 2.634 1.987.148-.008.297-.028.447-.063 1.382-.319 2.243-1.698 1.924-3.08l-3.201-13.864 7.764 4.852 6.468 15.644c.427 1.033 1.451 1.639 2.508 1.584.284-.015.569-.077.847-.192 1.311-.542 1.934-2.044 1.392-3.355l-3.721-8.999 8.064 5.039c-.236 2.138.729 4.323 2.675 5.539 2.706 1.691 6.271.868 7.962-1.838 1.692-2.705.869-6.269-1.837-7.96z" fill="#a4c9ff"/><path d="m239.049 89.51c-1.691-2.706-5.256-3.529-7.962-1.838-1.946 1.216-2.912 3.401-2.675 5.539l-8.064 5.039 3.721-8.999c.542-1.311-.081-2.812-1.392-3.354-1.309-.541-2.812.081-3.354 1.392l-6.468 15.644-7.764 4.852 3.201-13.864c.319-1.382-.543-2.761-1.924-3.08s-2.761.542-3.08 1.924l-4.356 18.868-49.809 31.124-18.868-4.356c-1.381-.319-2.761.542-3.08 1.924s.543 2.761 1.924 3.08l13.864 3.201-7.764 4.852-16.896-1.044c-.008-.001-.016-.001-.025-.001-1.405-.074-2.61.999-2.697 2.406-.087 1.416.989 2.634 2.405 2.722l9.72.601-8.064 5.039c-1.818-1.15-4.205-1.24-6.151-.024-2.706 1.691-3.529 5.256-1.838 7.962s5.256 3.529 7.962 1.838c1.899-1.187 2.866-3.297 2.692-5.385l8.122-5.075-3.721 8.999c-.542 1.311.081 2.812 1.392 3.355.277.115.563.177.847.192 1.057.055 2.08-.551 2.508-1.584l6.468-15.644 7.764-4.852-3.201 13.864c-.319 1.382.543 2.761 1.925 3.08.149.035.298.055.446.063 1.221.064 2.349-.755 2.634-1.987l4.356-18.868 49.809-31.124 18.868 4.356c.15.035.298.055.447.063 1.221.064 2.349-.755 2.634-1.987.319-1.382-.543-2.761-1.924-3.08l-13.864-3.201 7.764-4.852 16.896 1.045c.008 0 .016.001.025.001 1.405.074 2.61-.999 2.697-2.406.087-1.416-.989-2.634-2.405-2.722l-9.72-.601 8.122-5.075c1.801 1.072 4.121 1.128 6.02-.059 2.701-1.692 3.524-5.256 1.833-7.963z" fill="#a4c9ff"/><path d="m177.779 158.861v-58.734l13.693-13.693c1.003-1.003 1.003-2.629 0-3.632s-2.629-1.003-3.632 0l-10.061 10.061v-9.156l9.839-13.775c.824-1.154.557-2.758-.597-3.582s-2.758-.557-3.582.597l-5.66 7.924v-9.577c1.863-.959 3.14-2.897 3.14-5.137 0-3.191-2.587-5.778-5.778-5.778s-5.778 2.587-5.778 5.778c0 2.295 1.341 4.271 3.28 5.204v9.509l-5.66-7.924c-.825-1.154-2.428-1.421-3.582-.597s-1.422 2.428-.597 3.582l9.839 13.775v9.156l-10.061-10.061c-1.003-1.003-2.629-1.003-3.632 0s-1.003 2.629 0 3.632l13.693 13.693v58.734l-13.693 13.693c-1.003 1.003-1.003 2.629 0 3.632s2.629 1.003 3.632 0l10.061-10.061v9.156l-9.839 13.775c-.824 1.154-.557 2.758.597 3.582s2.757.557 3.582-.597l5.66-7.924v9.509c-1.938.933-3.28 2.909-3.28 5.204 0 3.191 2.587 5.778 5.778 5.778s5.778-2.587 5.778-5.778c0-2.24-1.277-4.178-3.14-5.137v-9.577l5.66 7.924c.501.702 1.291 1.076 2.092 1.076.517 0 1.038-.155 1.49-.479 1.154-.824 1.422-2.428.597-3.582l-9.839-13.775v-9.156l10.061 10.061c.502.501 1.159.752 1.816.752s1.314-.251 1.816-.752c1.003-1.003 1.003-2.629 0-3.632z" fill="#a4c9ff"/><path d="m175.141 206.607c-4.288 0-7.777-3.489-7.777-7.777 0-2.524 1.254-4.892 3.279-6.336v-2.137l-2.032 2.846c-.709.993-1.763 1.65-2.967 1.852-1.203.198-2.413-.079-3.407-.79-.991-.708-1.648-1.762-1.85-2.966-.2-1.203.08-2.413.79-3.406l9.466-13.253v-3.687l-6.646 6.646c-1.78 1.78-4.678 1.782-6.46 0-.862-.861-1.338-2.009-1.338-3.229s.476-2.368 1.339-3.23l5.549-5.55c-2.023.845-4.526.78-6.563-.281-1.833-.957-3.183-2.569-3.802-4.539-.619-1.973-.434-4.067.522-5.897.399-.768.923-1.451 1.537-2.032-.748-.444-1.37-1.099-1.771-1.895l-3.575 15.487c-.499 2.164-2.455 3.663-4.688 3.533-.273-.015-.542-.053-.799-.112-2.444-.563-3.981-3.021-3.416-5.476l2.115-9.16-3.126 1.953-6.223 15.052c-.739 1.786-2.542 2.901-4.46 2.817-.522-.028-1.026-.143-1.505-.34-2.33-.964-3.44-3.641-2.479-5.968l1.336-3.232-1.893 1.184c-.192 2.434-1.513 4.647-3.628 5.97-3.637 2.27-8.446 1.162-10.718-2.474-2.272-3.639-1.163-8.447 2.474-10.72 2.141-1.337 4.813-1.527 7.111-.575l1.811-1.132-3.489-.216c-2.515-.156-4.433-2.328-4.278-4.842.154-2.49 2.304-4.391 4.797-4.28.02.001.04.002.059.004l16.241 1.004 3.127-1.953-9.16-2.115c-2.453-.566-3.989-3.024-3.423-5.478.567-2.456 3.025-3.994 5.479-3.423l16.099 3.716c-.207-.164-.401-.347-.58-.547-.724-.81-1.107-1.808-1.161-2.817-.799.276-1.647.424-2.512.424-4.265 0-7.734-3.47-7.734-7.735s3.47-7.734 7.734-7.734c.864 0 1.713.147 2.512.424.054-1.01.438-2.009 1.162-2.819.179-.2.373-.383.581-.546l-16.101 3.717c-.272.063-.542.1-.806.112-2.19.099-4.173-1.37-4.674-3.535-.566-2.454.969-4.912 3.422-5.479l9.16-2.114-3.126-1.953-16.241 1.003c-.02.002-.04.003-.06.004-2.477.138-4.643-1.79-4.797-4.28-.075-1.218.328-2.393 1.136-3.307.808-.915 1.924-1.46 3.142-1.534l3.489-.216-1.812-1.132c-2.297.953-4.971.763-7.111-.576-3.637-2.273-4.747-7.081-2.475-10.718 2.271-3.638 7.08-4.748 10.718-2.475 2.115 1.321 3.437 3.535 3.629 5.97l1.893 1.183-1.336-3.231c-.466-1.129-.465-2.37.002-3.497.468-1.127 1.347-2.004 2.476-2.47 1.123-.466 2.366-.465 3.494.002 1.127.468 2.005 1.347 2.472 2.474l6.223 15.053 3.126 1.953-2.115-9.159c-.565-2.455.971-4.912 3.424-5.479 2.456-.568 4.912.971 5.479 3.423l3.576 15.487c.4-.797 1.022-1.451 1.771-1.896-.615-.581-1.139-1.266-1.539-2.033-.955-1.829-1.141-3.924-.521-5.896s1.97-3.584 3.802-4.539c2.035-1.061 4.538-1.126 6.563-.281l-5.55-5.551c-1.781-1.781-1.781-4.679 0-6.46 1.78-1.778 4.679-1.781 6.459-.001l6.647 6.647v-3.686l-9.467-13.254c-.709-.992-.989-2.202-.789-3.405.201-1.204.857-2.257 1.851-2.967.992-.71 2.2-.988 3.406-.789 1.204.201 2.258.858 2.967 1.852l2.032 2.846v-2.137c-2.025-1.445-3.279-3.813-3.279-6.337 0-4.288 3.489-7.777 7.777-7.777 4.289 0 7.778 3.489 7.778 7.777 0 2.493-1.178 4.787-3.141 6.241v2.232l2.033-2.846c1.465-2.051 4.324-2.528 6.372-1.063 2.049 1.465 2.525 4.323 1.063 6.372l-9.468 13.254v3.687l6.647-6.647c1.781-1.778 4.68-1.781 6.459-.001.864.863 1.339 2.011 1.339 3.23 0 1.221-.475 2.368-1.338 3.23l-5.551 5.55c2.027-.843 4.527-.778 6.563.282 3.781 1.972 5.253 6.653 3.281 10.435-.4.768-.925 1.452-1.54 2.033.882.524 1.588 1.338 1.964 2.334 0 .002.001.003.001.004l3.733-16.171c.274-1.188.995-2.199 2.031-2.846 1.034-.646 2.257-.854 3.448-.576 1.188.273 2.199.994 2.846 2.029s.852 2.26.576 3.448l-2.113 9.159 3.125-1.953 6.223-15.052c.965-2.329 3.64-3.438 5.967-2.478 2.327.964 3.438 3.641 2.478 5.966l-1.337 3.233 1.812-1.132c.152-2.483 1.495-4.801 3.635-6.14 3.635-2.27 8.445-1.162 10.718 2.474 2.273 3.638 1.163 8.446-2.474 10.72-2.115 1.321-4.684 1.538-6.957.644l-1.892 1.183 3.491.216c2.513.156 4.431 2.327 4.276 4.841-.153 2.487-2.292 4.409-4.787 4.28-.018-.001-.036-.002-.054-.003l-16.257-1.004-3.127 1.953 9.16 2.115c2.453.564 3.989 3.021 3.424 5.477-.502 2.166-2.474 3.668-4.688 3.535-.264-.014-.528-.051-.787-.11l-17.253-3.983c.516.258.984.611 1.377 1.05.725.812 1.109 1.812 1.163 2.822.799-.276 1.646-.424 2.512-.424 4.266 0 7.735 3.47 7.735 7.734 0 4.266-3.47 7.735-7.735 7.735-.864 0-1.712-.147-2.511-.424-.054 1.01-.438 2.008-1.162 2.818-.395.441-.865.797-1.384 1.055l17.254-3.983c1.189-.277 2.412-.07 3.447.576s1.757 1.657 2.031 2.847c.566 2.454-.97 4.911-3.423 5.478l-9.16 2.115 3.127 1.953 16.257-1.004c1.207-.08 2.378.327 3.299 1.14.919.811 1.467 1.925 1.542 3.137.075 1.219-.329 2.393-1.136 3.307-.809.915-1.924 1.46-3.142 1.534l-3.49.216 1.893 1.183c2.273-.894 4.843-.677 6.956.645 1.762 1.101 2.99 2.822 3.457 4.847.468 2.024.118 4.109-.982 5.871-1.102 1.763-2.822 2.99-4.847 3.457-2.024.469-4.11.118-5.871-.982-2.141-1.337-3.483-3.655-3.636-6.14l-1.812-1.132 1.337 3.231c.961 2.329-.15 5.005-2.477 5.968-.483.2-.994.315-1.516.341-1.897.095-3.712-1.029-4.452-2.817l-6.223-15.052-3.125-1.953 2.114 9.159c.274 1.188.069 2.413-.577 3.447-.646 1.035-1.657 1.756-2.846 2.03-.267.062-.531.099-.792.112-2.227.117-4.188-1.371-4.688-3.536l-3.733-16.169c0 .002-.001.005-.002.007-.375.994-1.08 1.807-1.962 2.331.615.58 1.139 1.265 1.539 2.031 1.972 3.782.5 8.463-3.279 10.437-2.039 1.062-4.539 1.126-6.564.281l5.551 5.551c.862.861 1.338 2.009 1.338 3.229s-.476 2.368-1.339 3.23c-.861.862-2.009 1.337-3.229 1.337-1.222 0-2.369-.476-3.231-1.339l-6.646-6.646v3.687l9.468 13.254c.709.993.988 2.202.788 3.406-.201 1.203-.858 2.257-1.852 2.966-.778.556-1.695.851-2.652.851-1.472 0-2.861-.715-3.718-1.911l-2.034-2.848v2.231c1.963 1.454 3.141 3.748 3.141 6.241.004 4.289-3.485 7.778-7.774 7.778zm-2.498-24.49c.204 0 .409.031.61.096.828.265 1.39 1.035 1.39 1.904v9.509c0 .769-.44 1.469-1.133 1.803-1.324.637-2.146 1.94-2.146 3.401 0 2.083 1.694 3.777 3.777 3.777s3.778-1.694 3.778-3.777c0-1.419-.788-2.706-2.056-3.358-.666-.343-1.085-1.029-1.085-1.778v-9.576c0-.869.562-1.64 1.39-1.904.83-.266 1.733.034 2.237.742l5.661 7.924c.153.214.375.237.464.237.119 0 .229-.035.327-.105.256-.183.315-.538.133-.793l-9.84-13.775c-.242-.339-.372-.745-.372-1.162v-9.155c0-.809.487-1.538 1.234-1.848.748-.311 1.607-.14 2.18.434l10.062 10.061c.275.275.528.273.804 0 .138-.138.166-.294.166-.401s-.028-.264-.165-.4l-13.694-13.694c-.375-.375-.586-.884-.586-1.414v-18.125c0-.921.629-1.723 1.523-1.942.898-.224 1.824.201 2.25 1.017l2.712 5.196c.228.437.286.94.165 1.418l-2.242 8.839c-.041.162-.02.315.065.458.085.144.211.236.374.278.332.086.653-.122.733-.438l.809-3.189c.203-.804.883-1.399 1.706-1.495.825-.093 1.621.325 2.006 1.061l1.34 2.567c.326.626.299 1.378-.072 1.978-.69 1.117-.744 2.531-.138 3.691.646 1.239 1.917 2.009 3.315 2.009.594 0 1.19-.147 1.725-.425 1.824-.952 2.534-3.213 1.582-5.039-.615-1.179-1.776-1.926-3.106-1.998-.705-.038-1.338-.446-1.665-1.072l-1.339-2.567c-.384-.735-.273-1.631.276-2.251.551-.621 1.427-.836 2.202-.546l3.08 1.16c.314.123.667-.055.779-.351.059-.157.054-.313-.015-.465-.068-.15-.182-.257-.337-.315l-8.534-3.217c-.46-.173-.841-.51-1.068-.946l-3.217-6.165c-.417-.8-.247-1.78.415-2.393s1.652-.708 2.418-.229l16.468 10.291c.45.281.77.729.89 1.246l4.355 18.867c.071.307.329.457.581.441.034-.002.069-.008.104-.016.186-.043.293-.161.35-.252s.115-.238.072-.428l-3.201-13.864c-.182-.788.129-1.608.788-2.078s1.536-.497 2.221-.068l7.764 4.852c.354.221.63.547.789.932l6.468 15.645c.106.258.375.35.552.351.07-.004.128-.017.187-.041.293-.121.432-.455.312-.745l-3.721-8.997c-.332-.804-.106-1.729.557-2.292.663-.56 1.617-.627 2.352-.169l8.064 5.039c.652.407 1.013 1.152.929 1.916-.162 1.461.508 2.85 1.746 3.623.857.535 1.87.704 2.852.478.983-.227 1.82-.823 2.354-1.679.535-.856.705-1.869.478-2.853-.227-.983-.823-1.819-1.679-2.354-1.205-.754-2.714-.766-3.938-.037-.645.382-1.446.374-2.082-.022l-8.121-5.074c-.737-.461-1.093-1.345-.879-2.188s.947-1.451 1.814-1.505l9.72-.602c.194-.012.319-.11.391-.19s.153-.217.142-.411-.128-.324-.195-.384c-.117-.104-.276-.162-.403-.147l-16.9 1.044c-.413.029-.829-.078-1.183-.3l-7.765-4.852c-.687-.429-1.047-1.229-.913-2.026s.734-1.437 1.522-1.618l13.864-3.201c.306-.071.496-.377.426-.682-.043-.188-.161-.297-.253-.354-.09-.058-.238-.116-.427-.072l-18.869 4.357c-.52.117-1.061.027-1.51-.253l-16.931-10.58c-.757-.473-1.109-1.39-.863-2.248.246-.857 1.03-1.448 1.923-1.448h7.51c.492 0 .967.182 1.333.509l6.799 6.079c.237.212.641.189.856-.05.22-.247.198-.63-.051-.853l-2.454-2.194c-.618-.553-.831-1.43-.535-2.205.296-.774 1.039-1.286 1.868-1.286h2.896c.705 0 1.359.372 1.72.979.671 1.129 1.9 1.831 3.209 1.831 2.06 0 3.735-1.676 3.735-3.735s-1.676-3.734-3.735-3.734c-1.31 0-2.539.701-3.209 1.829-.36.607-1.014.979-1.72.979h-2.896c-.829 0-1.572-.512-1.868-1.287-.296-.774-.083-1.651.535-2.204l2.455-2.194c.248-.222.27-.605.047-.855-.213-.233-.613-.261-.851-.048l-6.802 6.08c-.367.328-.841.509-1.333.509h-7.509c-.893 0-1.677-.591-1.923-1.448-.245-.858.106-1.775.863-2.248l16.93-10.579c.449-.281.99-.372 1.51-.253l18.868 4.357c.031.007.066.012.102.014.241-.015.519-.175.58-.441.069-.304-.121-.608-.426-.679l-13.865-3.202c-.788-.182-1.389-.82-1.522-1.618s.227-1.598.913-2.026l7.765-4.852c.354-.222.769-.329 1.183-.3l16.876 1.043c.018 0 .04.002.058.002.296 0 .547-.233.565-.532.02-.313-.22-.583-.532-.603l-9.72-.602c-.867-.054-1.601-.662-1.814-1.505s.142-1.727.879-2.188l8.121-5.074c.637-.396 1.439-.404 2.083-.022 1.223.729 2.732.717 3.938-.036 1.767-1.104 2.306-3.439 1.201-5.207-1.104-1.766-3.439-2.305-5.206-1.201-1.238.774-1.908 2.163-1.746 3.623.084.764-.276 1.509-.929 1.916l-8.064 5.039c-.735.459-1.687.392-2.352-.169-.663-.563-.889-1.488-.557-2.292l3.721-8.999c.119-.288-.02-.622-.31-.742-.285-.121-.621.021-.741.311l-6.467 15.643c-.159.386-.436.712-.789.933l-7.764 4.852c-.685.43-1.562.403-2.221-.068-.659-.47-.97-1.29-.788-2.078l3.2-13.864c.044-.189-.015-.338-.071-.429s-.163-.208-.353-.251c-.189-.045-.339.014-.431.071-.091.057-.208.164-.251.353l-4.356 18.869c-.12.517-.439.965-.89 1.246l-16.469 10.29c-.766.479-1.756.384-2.418-.229s-.832-1.593-.415-2.394l3.218-6.165c.228-.436.608-.772 1.068-.945l8.533-3.216c.156-.06.27-.165.337-.315.068-.151.074-.31.017-.46-.114-.304-.475-.472-.779-.356l-3.083 1.156c-.775.29-1.651.076-2.202-.546-.55-.62-.66-1.517-.276-2.252l1.34-2.567c.327-.625.959-1.033 1.664-1.071 1.33-.072 2.491-.82 3.106-2 .952-1.825.242-4.085-1.583-5.037-.533-.277-1.13-.425-1.725-.425-1.398 0-2.669.77-3.314 2.007-.606 1.161-.554 2.576.138 3.693.371.601.398 1.352.071 1.978l-1.34 2.566c-.383.734-1.175 1.157-2.005 1.061-.823-.096-1.502-.69-1.706-1.494l-.81-3.191c-.081-.317-.396-.525-.742-.435-.153.039-.279.133-.365.276-.084.141-.106.296-.065.458l2.243 8.839c.121.477.063.981-.165 1.418l-2.712 5.196c-.426.814-1.351 1.237-2.25 1.017-.895-.22-1.523-1.021-1.523-1.942v-18.122c0-.53.211-1.039.586-1.414l13.693-13.692c.222-.222.222-.582 0-.804-.221-.221-.582-.222-.805.001l-10.061 10.061c-.572.571-1.432.742-2.18.434-.747-.31-1.234-1.039-1.234-1.848v-9.155c0-.417.13-.823.372-1.162l9.84-13.775c.183-.255.123-.611-.133-.794-.257-.184-.609-.121-.792.134l-5.66 7.923c-.504.71-1.41 1.007-2.237.742-.828-.265-1.39-1.035-1.39-1.904v-9.577c0-.749.419-1.436 1.085-1.778 1.268-.652 2.056-1.939 2.056-3.358 0-2.083-1.695-3.777-3.778-3.777s-3.777 1.694-3.777 3.777c0 1.461.822 2.766 2.147 3.403.691.333 1.132 1.033 1.132 1.802v9.509c0 .869-.562 1.64-1.39 1.904-.827.266-1.732-.034-2.238-.742l-5.659-7.924c-.113-.158-.264-.213-.37-.23-.106-.019-.266-.015-.422.098-.255.183-.314.538-.133.793l9.84 13.776c.242.339.372.745.372 1.162v9.155c0 .809-.487 1.538-1.234 1.848-.749.309-1.607.138-2.18-.434l-10.061-10.062c-.221-.221-.582-.222-.805.001-.221.221-.221.581.001.803l13.692 13.692c.375.375.586.884.586 1.414v18.121c0 .921-.629 1.723-1.523 1.942-.9.221-1.824-.202-2.25-1.018l-2.711-5.195c-.228-.436-.286-.94-.165-1.417l2.243-8.84c.082-.322-.114-.652-.437-.734-.347-.084-.656.12-.738.438l-.809 3.189c-.204.804-.883 1.398-1.706 1.494-.829.092-1.622-.326-2.006-1.061l-1.34-2.567c-.326-.626-.299-1.378.072-1.978.69-1.117.744-2.532.139-3.694-.646-1.236-1.916-2.006-3.315-2.006-.595 0-1.19.146-1.724.425-.885.461-1.536 1.239-1.835 2.19-.299.953-.21 1.964.251 2.847.615 1.181 1.776 1.928 3.106 2 .705.038 1.337.446 1.664 1.071l1.34 2.567c.384.735.273 1.632-.276 2.252-.551.623-1.429.838-2.202.545l-3.078-1.16c-.316-.116-.668.053-.78.353-.059.155-.054.312.015.462.068.151.182.258.337.316l8.534 3.217c.46.173.841.51 1.068.946l3.234 6.199c.417.8.247 1.78-.415 2.393s-1.652.708-2.418.229l-16.135-10.083c-.45-.281-.77-.729-.89-1.246l-4.356-18.868c-.07-.306-.375-.504-.682-.426-.305.07-.495.376-.425.682l3.2 13.863c.183.788-.128 1.608-.787 2.078s-1.534.498-2.221.068l-7.765-4.852c-.354-.221-.63-.547-.789-.933l-6.468-15.645c-.074-.179-.208-.266-.307-.307-.1-.041-.256-.074-.434-.001-.181.075-.268.208-.309.308-.041.099-.075.255 0 .435l3.721 8.999c.332.804.106 1.73-.557 2.292-.665.561-1.615.629-2.352.169l-8.122-5.075c-.635-.397-.995-1.115-.933-1.862.118-1.421-.556-2.771-1.759-3.522-1.767-1.103-4.103-.565-5.206 1.201-1.104 1.767-.565 4.103 1.202 5.206 1.238.774 2.779.767 4.022-.018.649-.411 1.477-.413 2.128-.006l8.065 5.039c.737.461 1.093 1.345.879 2.188s-.947 1.451-1.815 1.505l-9.72.601c-.194.012-.32.11-.391.19-.071.081-.153.218-.142.412.019.305.266.587.581.532.007 0 .015-.001.021-.001l16.896-1.044c.416-.027.83.079 1.183.3l7.765 4.852c.687.429 1.047 1.229.913 2.026s-.734 1.437-1.522 1.619l-13.864 3.2c-.305.07-.496.376-.426.682.061.265.307.427.579.439l.553 1.935-.45-1.948 18.868-4.357c.518-.119 1.06-.028 1.51.253l16.543 10.338c.757.473 1.108 1.39.863 2.248-.246.857-1.03 1.448-1.923 1.448h-7.473c-.492 0-.966-.181-1.333-.509l-6.798-6.076c-.247-.221-.642-.191-.857.047-.22.247-.198.631.05.853l2.454 2.194c.618.553.831 1.43.535 2.205-.296.774-1.039 1.286-1.868 1.286h-2.896c-.705 0-1.359-.372-1.72-.979-.671-1.129-1.9-1.83-3.21-1.83-2.06 0-3.734 1.675-3.734 3.734s1.675 3.735 3.734 3.735c1.309 0 2.539-.702 3.21-1.831.36-.606 1.015-.979 1.72-.979h2.896c.829 0 1.572.512 1.868 1.286.296.775.083 1.652-.535 2.205l-2.453 2.193c-.249.223-.271.606-.049.855.213.236.612.262.853.048l6.801-6.079c.367-.327.841-.509 1.333-.509h7.474c.893 0 1.677.591 1.923 1.448.245.858-.106 1.775-.863 2.248l-16.544 10.338c-.45.28-.992.37-1.51.253l-18.868-4.355c-.306-.077-.611.12-.682.425s.121.61.426.682l13.864 3.2c.788.183 1.389.821 1.522 1.619s-.227 1.598-.913 2.026l-7.765 4.852c-.353.221-.768.332-1.183.3l-16.896-1.045c-.012-.002-.024-.002-.035-.002-.297 0-.548.233-.567.533-.019.313.22.584.533.604l9.718.6c.868.054 1.602.661 1.816 1.504s-.142 1.728-.879 2.188l-8.064 5.04c-.652.406-1.48.404-2.129-.006-1.242-.785-2.784-.794-4.022-.019-1.766 1.104-2.306 3.439-1.202 5.207 1.104 1.765 3.438 2.303 5.206 1.201 1.203-.752 1.877-2.102 1.758-3.522-.062-.746.298-1.465.933-1.862l8.123-5.076c.735-.46 1.687-.391 2.352.169.663.562.889 1.488.557 2.292l-3.722 9c-.12.289.019.622.308.741.061.025.126.04.193.044.174.006.442-.095.55-.352l6.467-15.644c.159-.386.436-.712.789-.933l7.765-4.852c.685-.429 1.562-.401 2.221.068s.97 1.29.787 2.078l-3.201 13.863c-.069.305.121.61.426.681l-.003 2.012.105-1.997c.283-.006.519-.175.579-.438l4.356-18.87c.12-.517.439-.965.89-1.246l16.135-10.082c.766-.479 1.756-.384 2.418.229s.832 1.593.415 2.393l-3.234 6.198c-.228.437-.608.773-1.068.946l-8.533 3.216c-.203.077-.298.232-.337.317-.039.086-.093.26-.017.463.112.298.469.469.778.353l3.081-1.161c.775-.29 1.651-.075 2.202.546.55.62.66 1.516.276 2.251l-1.339 2.567c-.327.626-.96 1.034-1.665 1.072-1.33.072-2.491.818-3.105 1.998-.462.884-.551 1.896-.252 2.849.299.95.95 1.729 1.835 2.191.532.276 1.129.424 1.724.424 1.398 0 2.669-.77 3.316-2.009.604-1.16.552-2.574-.14-3.69-.371-.601-.398-1.352-.072-1.978l1.34-2.568c.384-.735 1.181-1.165 2.005-1.062.824.096 1.503.69 1.707 1.494l.811 3.191c.08.317.362.533.746.436.147-.037.275-.133.358-.273.086-.145.108-.299.068-.46l-2.243-8.839c-.121-.477-.063-.981.165-1.417l2.711-5.196c.426-.816 1.351-1.239 2.25-1.018.895.22 1.523 1.021 1.523 1.942v18.121c0 .53-.211 1.039-.586 1.414l-13.692 13.693c-.138.138-.166.294-.166.401s.028.264.165.4c.223.223.584.222.805.001l10.061-10.061c.572-.573 1.431-.744 2.18-.434.747.31 1.234 1.039 1.234 1.848v9.155c0 .417-.13.823-.372 1.162l-9.839 13.775c-.114.159-.117.318-.099.424.018.105.071.256.229.368.159.114.319.116.424.099.105-.018.256-.071.368-.229l5.66-7.924c.386-.533.998-.835 1.632-.835zm9.036-22.183 1.51 1.51c-.247-.592-.417-1.207-.511-1.832-.317.143-.652.251-.999.322zm-13.935-.323c-.094.624-.264 1.24-.511 1.831l1.509-1.51c-.347-.069-.681-.177-.998-.321zm-.511-62.065c.247.592.417 1.208.51 1.833.317-.145.652-.253 1-.323zm14.445 1.51c.348.069.683.179 1 .322.094-.625.264-1.241.511-1.832z" fill="#3762cc"/><path d="m80.372 166.356c-.681-.344-1.122-1.028-1.122-1.792v-24.571h-32v24.568c0 .764-.442 1.449-1.124 1.795-13.11 6.635-21.889 20.629-20.848 36.519 1.233 18.806 16.412 34.075 35.211 35.408 22.226 1.576 40.816-16.06 40.816-37.957.001-14.826-8.528-27.692-20.933-33.97z" fill="#4671c6"/><path d="m99.917 72.994h-23.333c-2.761 0-5-2.239-5-5 0-2.761 2.239-5 5-5h23.333c2.761 0 5 2.239 5 5 0 2.762-2.239 5-5 5z" fill="#ffea92"/><path d="m91.584 96.994h-15c-2.761 0-5-2.239-5-5 0-2.761 2.239-5 5-5h15c2.761 0 5 2.239 5 5 0 2.762-2.239 5-5 5z" fill="#ffea92"/><path d="m99.917 120.994h-23.333c-2.761 0-5-2.239-5-5 0-2.761 2.239-5 5-5h23.333c2.761 0 5 2.239 5 5 0 2.762-2.239 5-5 5z" fill="#ffea92"/><path d="m91.584 144.994h-15c-2.761 0-5-2.239-5-5 0-2.761 2.239-5 5-5h15c2.761 0 5 2.239 5 5 0 2.762-2.239 5-5 5z" fill="#ffea92"/><path d="m91.584 48.994h-15c-2.761 0-5-2.239-5-5 0-2.761 2.239-5 5-5h15c2.761 0 5 2.239 5 5 0 2.762-2.239 5-5 5z" fill="#ffea92"/><g fill="#3762cc"><path d="m99.917 74.994h-23.334c-3.86 0-7-3.141-7-7s3.14-7 7-7h23.333c3.86 0 7 3.141 7 7s-3.139 7-6.999 7zm-23.334-10c-1.654 0-3 1.346-3 3s1.346 3 3 3h23.333c1.654 0 3-1.346 3-3s-1.346-3-3-3z"/><path d="m91.583 98.994h-15c-3.86 0-7-3.141-7-7s3.14-7 7-7h15c3.86 0 7 3.141 7 7s-3.14 7-7 7zm-15-10c-1.654 0-3 1.346-3 3s1.346 3 3 3h15c1.654 0 3-1.346 3-3s-1.346-3-3-3z"/><path d="m99.917 122.994h-23.334c-3.86 0-7-3.141-7-7s3.14-7 7-7h23.333c3.86 0 7 3.141 7 7s-3.139 7-6.999 7zm-23.334-10c-1.654 0-3 1.346-3 3s1.346 3 3 3h23.333c1.654 0 3-1.346 3-3s-1.346-3-3-3z"/><path d="m91.583 146.994h-15c-3.86 0-7-3.141-7-7s3.14-7 7-7h15c3.86 0 7 3.141 7 7s-3.14 7-7 7zm-15-10c-1.654 0-3 1.346-3 3s1.346 3 3 3h15c1.654 0 3-1.346 3-3s-1.346-3-3-3z"/><path d="m91.583 50.994h-15c-3.86 0-7-3.141-7-7s3.14-7 7-7h15c3.86 0 7 3.141 7 7s-3.14 7-7 7zm-15-10c-1.654 0-3 1.346-3 3s1.346 3 3 3h15c1.654 0 3-1.346 3-3s-1.346-3-3-3z"/></g></svg>