<svg id="Capa_1" enable-background="new 0 0 512 512" height="512" viewBox="0 0 512 512" width="512" xmlns="http://www.w3.org/2000/svg" xmlns:xlink="http://www.w3.org/1999/xlink"><linearGradient id="SVGID_1_" gradientUnits="userSpaceOnUse" x1="74.981" x2="437.019" y1="74.981" y2="437.019"><stop offset="0" stop-color="#7982ed"/><stop offset="1" stop-color="#4d56b2"/></linearGradient><linearGradient id="SVGID_2_" gradientUnits="userSpaceOnUse" x1="165.334" x2="346.666" y1="345.096" y2="345.096"><stop offset="0" stop-color="#eebda9"/><stop offset="1" stop-color="#cd9280"/></linearGradient><linearGradient id="SVGID_3_" gradientUnits="userSpaceOnUse" x1="156.12" x2="355.88" y1="202.044" y2="202.044"><stop offset=".181" stop-color="#f2ccbd"/><stop offset=".7838" stop-color="#eebda9"/></linearGradient><linearGradient id="SVGID_4_" gradientUnits="userSpaceOnUse" x1="143.276" x2="368.724" y1="128.946" y2="128.946"><stop offset="0" stop-color="#575a65"/><stop offset="1" stop-color="#383c42"/></linearGradient><linearGradient id="SVGID_5_" gradientUnits="userSpaceOnUse" x1="99.613" x2="412.387" y1="435.149" y2="435.149"><stop offset="0" stop-color="#f1cc30"/><stop offset="1" stop-color="#e9a226"/></linearGradient><linearGradient id="SVGID_6_" gradientUnits="userSpaceOnUse" x1="176.996" x2="335.004" y1="382.079" y2="382.079"><stop offset="0" stop-color="#fff"/><stop offset="1" stop-color="#e9ecf4"/></linearGradient><linearGradient id="SVGID_7_" gradientUnits="userSpaceOnUse" x1="88.597" x2="423.403" y1="126.93" y2="126.93"><stop offset="0" stop-color="#e69423"/><stop offset="1" stop-color="#e06a24"/></linearGradient><g><g><g><g><g><g><path d="m99.613 458.695c-60.592-46.817-99.613-120.199-99.613-202.695 0-141.385 114.615-256 256-256s256 114.615 256 256c0 82.496-39.021 155.878-99.613 202.695z" fill="url(#SVGID_1_)"/></g></g></g></g></g><path d="m512 256c0-20.961-2.519-41.333-7.271-60.831l-89.843-89.843h-291.183l-24.09 39.783 126.864 126.864-83.201-31.404 54.725 54.725-12.084 3.431 159.97 159.971h66.5c60.592-46.818 99.613-120.2 99.613-202.696z" fill="#4d56b2"/><g><path d="m256 417.767c39.384 0 73.569-22.256 90.666-54.877l-33.309-7.323c-8.762-1.926-15.004-9.69-15.004-18.661v-64.481h-84.706v64.481c0 8.971-6.242 16.735-15.004 18.661l-33.309 7.323c17.097 32.621 51.282 54.877 90.666 54.877z" fill="url(#SVGID_2_)"/></g><g><g><circle cx="165.079" cy="213.171" fill="#eebda9" r="35.022"/></g><g><circle cx="346.921" cy="213.171" fill="#e5a48e" r="35.022"/></g></g><g><path d="m259.997 325.138h-7.994c-52.955 0-95.883-42.928-95.883-95.883v-54.423c0-52.955 42.928-95.883 95.883-95.883h7.994c52.955 0 95.883 42.928 95.883 95.883v54.423c0 52.955-42.928 95.883-95.883 95.883z" fill="url(#SVGID_3_)"/></g><g><path d="m221.466 148.885s65.158 60.981 147.258 64.286v-64.044c0-57.661-50.468-104.405-112.724-104.405-62.256 0-112.724 46.744-112.724 104.405v64.044s37.792-23.248 78.19-64.286z" fill="url(#SVGID_4_)"/></g><g><path d="m256 512c58.889 0 113.134-19.884 156.387-53.305l-4.719-53.368c-1.558-17.616-14.368-32.184-31.641-35.981l-50.25-11.047c-10.931 27.849-38.051 47.566-69.777 47.566s-58.847-19.717-69.777-47.566l-50.25 11.047c-17.273 3.797-30.083 18.365-31.64 35.981l-4.719 53.368c43.252 33.421 97.497 53.305 156.386 53.305z" fill="url(#SVGID_5_)"/></g><g><path d="m256 418.895c-17.159 0-33.656-5.157-47.708-14.915-13.713-9.522-24.175-22.743-30.255-38.233-3.026-7.711.771-16.417 8.482-19.443 7.712-3.027 16.417.771 19.443 8.482 8.133 20.72 27.773 34.108 50.037 34.108s41.904-13.388 50.037-34.108c3.026-7.711 11.731-11.51 19.443-8.482 7.712 3.026 11.509 11.732 8.482 19.443-6.08 15.49-16.542 28.711-30.255 38.233-14.05 9.758-30.547 14.915-47.706 14.915z" fill="url(#SVGID_6_)"/></g><g><path d="m344.953 228.527c0 13.781-11.172 24.953-24.953 24.953s-24.953-11.172-24.953-24.953 24.953-48.987 24.953-48.987 24.953 35.206 24.953 48.987z" fill="#70c7c7"/></g><g><path d="m197.108 235.872c0 9.517-7.715 17.232-17.232 17.232s-17.232-7.715-17.232-17.232 17.232-33.829 17.232-33.829 17.232 24.313 17.232 33.829z" fill="#95e0db"/></g><g><path d="m358.556 318.223c0 12.884-10.445 23.328-23.328 23.328s-23.328-10.445-23.328-23.328 23.328-45.798 23.328-45.798 23.328 32.914 23.328 45.798z" fill="#70c7c7"/></g><g><path d="m367.161 84.442c-8.399-1.952-17.559-3.657-27.318-5.101 9.733 10.025 17.4 21.804 22.381 34.763 14.977 3.618 23.661 7.359 28.143 9.994-5.429 3.192-17.022 8.007-38.5 12.259-26.578 5.263-60.625 8.161-95.867 8.161s-69.289-2.898-95.867-8.161c-21.478-4.252-33.071-9.067-38.5-12.259 4.482-2.635 13.166-6.376 28.143-9.994 4.981-12.959 12.648-24.739 22.381-34.763-9.758 1.443-18.918 3.148-27.318 5.101-37.845 8.796-56.242 21.768-56.242 39.657s18.397 30.861 56.242 39.657c29.866 6.941 69.344 10.764 111.161 10.764s81.295-3.823 111.161-10.764c37.845-8.796 56.242-21.768 56.242-39.657s-18.397-30.861-56.242-39.657z" fill="url(#SVGID_7_)"/></g><g><path d="m206.965 134.626-20.505-20.506-21.126 21.125-21.125-21.125-20.506 20.506 21.125 21.126-21.125 21.125 20.506 20.506 21.125-21.126 21.126 21.126 20.505-20.506-21.125-21.126z" fill="#f1cc30"/></g></g></svg>