<svg id="Capa_1" enable-background="new 0 0 512 512" height="512" viewBox="0 0 512 512" width="512" xmlns="http://www.w3.org/2000/svg"><g><g><g><g><g><g><g><g><circle cx="256" cy="256" fill="#7982ed" r="256"/></g></g></g></g></g></g></g><path d="m511.865 264.399-125.808-125.808-234.906 218.908h-46.13l56.531 56.531-35.609 2.746 92.487 92.487c12.262 1.803 24.807 2.737 37.57 2.737 138.574 0 251.433-110.104 255.865-247.601z" fill="#4d56b2"/><g><path d="m321.672 74.206h-195.729v342.57h260.114v-278.185z" fill="#fff"/></g><g><path d="m386.057 138.591-64.385-64.385h-65.672v342.57h130.057z" fill="#e9ecf4"/></g><g><path d="m321.672 138.591h64.385l-64.385-64.385z" fill="#cdd1e0"/></g><g><path d="m157.316 169.861h197.368v28.018h-197.368z" fill="#bec2d0"/></g><g><path d="m256 169.861h98.684v28.018h-98.684z" fill="#9195a8"/></g><g><path d="m157.316 221.982h197.368v28.018h-197.368z" fill="#bec2d0"/></g><g><path d="m256 221.982h98.684v28.018h-98.684z" fill="#9195a8"/></g><g><path d="m157.316 274.103h197.368v28.018h-197.368z" fill="#bec2d0"/></g><g><path d="m256 274.103h98.684v28.018h-98.684z" fill="#9195a8"/></g><g><path d="m156.496 326.223-51.475 31.276 51.475 31.276 24.76-31.276z" fill="#f1cc30"/></g><g><path d="m156.496 326.223h278.504v62.552h-278.504z" fill="#e06a24"/></g><g><path d="m256 326.223h179v62.552h-179z" fill="#d24611"/></g></g></svg>