<svg id="Capa_1" enable-background="new 0 0 512 512" height="512" viewBox="0 0 512 512" width="512" xmlns="http://www.w3.org/2000/svg"><g><g><g><g><g><g><g><circle cx="256" cy="256" fill="#ffce00" r="256"/></g></g></g></g></g></g><path d="m284.499 510.432c127.972-14.175 227.501-122.681 227.501-254.432 0-15.463-1.371-30.605-3.998-45.313l-117.068-117.067-34.218 65.583-79.252-79.253-12.858 25.806-31.805-31.806-19.946 41.922-41.922-41.922-44.213 34.732v137.79l75.057 75.057-.431 105.75z" fill="#ffa300"/><path d="m337.839 277.539v81.448c0 37.099-30.183 67.282-67.282 67.282s-67.282-30.183-67.282-67.282v-89.068c42.063-7.153 74.189-43.858 74.189-87.927v-102.042h-55.892v30h25.892v72.042c0 32.637-26.552 59.189-59.189 59.189s-59.189-26.552-59.189-59.189v-72.042h27.06v-30h-57.06v102.042c0 44.069 32.127 80.774 74.189 87.927v89.068c0 53.641 43.641 97.282 97.282 97.282s97.282-43.641 97.282-97.282v-81.448z" fill="#fff"/><path d="m367.839 277.539h-15.333v133.821c9.702-15.128 15.333-33.105 15.333-52.373z" fill="#e9edf5"/><g><circle cx="352.839" cy="261.935" fill="#707789" r="52.657"/></g><g><path d="m352.839 209.278c-.112 0-.221.008-.333.008v105.297c.111.001.221.009.333.009 29.082 0 52.657-23.576 52.657-52.657s-23.575-52.657-52.657-52.657z" fill="#555a66"/></g><g><circle cx="352.839" cy="261.935" fill="#f2f6fc" r="28.756"/></g><g><path d="m352.839 233.179c-.112 0-.221.007-.333.008v57.496c.111.001.221.009.333.009 15.882 0 28.756-12.875 28.756-28.756 0-15.882-12.875-28.757-28.756-28.757z" fill="#dce1eb"/></g><g><g><path d="m205.617 73.95h27.184v42h-27.184z" fill="#555a66"/></g><g><path d="m143.749 73.95h27.184v42h-27.184z" fill="#555a66"/></g></g><g><circle cx="352.813" cy="138.344" fill="#fff" r="58.769"/></g><g><path d="m352.813 79.575c-.103 0-.204.007-.307.007v117.522c.103 0 .204.008.307.008 32.457 0 58.769-26.312 58.769-58.769s-26.312-58.768-58.769-58.768z" fill="#e9edf5"/></g><g><path d="m390.934 154.799v-32.911h-21.666v-21.666h-32.911v21.666h-21.666v32.911h21.666v21.666h32.911v-21.666z" fill="#fe6a16"/></g><g><path d="m390.934 121.888h-21.666v-21.666h-16.762v76.243h16.762v-21.666h21.666z" fill="#f24500"/></g></g></svg>