<svg id="Capa_1" enable-background="new 0 0 512 512" height="512" viewBox="0 0 512 512" width="512" xmlns="http://www.w3.org/2000/svg"><g><g><g><g><g><g><g><path d="m99.613 458.695c-60.592-46.817-99.613-120.199-99.613-202.695 0-141.385 114.615-256 256-256s256 114.615 256 256c0 82.496-39.021 155.878-99.613 202.695z" fill="#64e1dc"/></g></g></g></g></g></g><path d="m64.63 328.427 130.609 130.269h217.148c60.592-46.818 99.613-120.2 99.613-202.696 0-1.18-.008-2.358-.024-3.534l-165.055-165.054z" fill="#00c8c8"/><g><path d="m256 417.767c39.384 0 73.569-22.256 90.666-54.877l-33.309-7.323c-8.762-1.926-15.004-9.69-15.004-18.661v-64.481h-84.706v64.481c0 8.971-6.242 16.735-15.004 18.661l-33.309 7.323c17.097 32.621 51.282 54.877 90.666 54.877z" fill="#ffbeaa"/></g><g><path d="m313.357 355.568c-8.762-1.926-15.004-9.69-15.004-18.661v-64.481h-42.619v145.337c.089 0 .177.005.266.005 39.384 0 73.569-22.256 90.666-54.877z" fill="#faa68e"/></g><g><g><circle cx="165.079" cy="213.171" fill="#ffbeaa" r="35.022"/></g><g><circle cx="346.921" cy="213.171" fill="#faa68e" r="35.022"/></g></g><g><path d="m314.097 308.429c-15.399 10.542-34.029 16.709-54.1 16.709h-7.994c-20.071 0-38.701-6.167-54.1-16.709l-41.783-81.586v-52.011c0-52.955 42.928-95.883 95.883-95.883h7.994c52.955 0 95.883 42.928 95.883 95.883v52.011z" fill="#ffcdbe"/></g><g><path d="m259.997 78.949h-4.263v246.189h4.263c20.071 0 38.701-6.167 54.1-16.709l41.783-81.586v-52.011c0-52.955-42.928-95.883-95.883-95.883z" fill="#ffbeaa"/></g><g><path d="m221.466 148.885s65.158 60.981 147.258 64.286v-64.044c0-57.661-50.468-104.405-112.724-104.405-62.256 0-112.724 46.744-112.724 104.405v64.044s37.792-23.248 78.19-64.286z" fill="#555a66"/></g><g><path d="m368.724 149.127c0-57.661-50.468-104.405-112.724-104.405-.089 0-.177.003-.266.003v129.805c26.885 17.11 67.312 36.801 112.99 38.641z" fill="#333940"/></g><g><path d="m256 512c58.889 0 113.134-19.884 156.387-53.305l-4.719-53.368c-1.558-17.616-14.368-32.184-31.641-35.981l-50.25-11.047c-10.931 27.849-38.051 47.566-69.777 47.566s-58.847-19.717-69.777-47.566l-50.25 11.047c-17.273 3.797-30.083 18.365-31.64 35.981l-4.719 53.368c43.252 33.421 97.497 53.305 156.386 53.305z" fill="#7584f2"/></g><g><path d="m412.387 458.695-4.719-53.368c-1.558-17.616-14.368-32.184-31.64-35.981l-50.25-11.047c-10.931 27.849-38.051 47.566-69.777 47.566-.089 0-.177-.005-.266-.005v106.138c.089 0 .177.003.266.003 58.888-.001 113.133-19.885 156.386-53.306z" fill="#606aea"/></g><g><path d="m256 418.895c-17.159 0-33.656-5.157-47.708-14.915-13.713-9.522-24.175-22.743-30.255-38.233-3.026-7.711.771-16.417 8.482-19.443 7.712-3.025 16.417.771 19.443 8.483 8.133 20.72 27.773 34.108 50.037 34.108s41.904-13.388 50.037-34.108c3.026-7.712 11.731-11.509 19.443-8.483 7.712 3.027 11.509 11.732 8.482 19.443-6.08 15.49-16.542 28.711-30.255 38.233-14.05 9.758-30.547 14.915-47.706 14.915z" fill="#fff"/></g><g><path d="m325.48 346.304c-7.712-3.026-16.417.771-19.443 8.483-8.133 20.72-27.773 34.108-50.037 34.108-.089 0-.177-.005-.266-.005v30c.089 0 .177.005.266.005 17.159 0 33.656-5.157 47.708-14.915 13.713-9.522 24.175-22.743 30.255-38.233 3.026-7.711-.771-16.416-8.483-19.443z" fill="#e9edf5"/></g><g><path d="m178.462 221.041c-8.112 0-15.731 2.106-22.342 5.802v2.412c0 32.884 16.554 61.902 41.783 79.174 15.604-7.316 26.41-23.164 26.41-41.537 0-25.323-20.528-45.851-45.851-45.851z" fill="#fe6a16"/></g><g><path d="m355.88 226.843c-6.61-3.696-14.23-5.802-22.342-5.802-25.323 0-45.851 20.528-45.851 45.851 0 18.373 10.806 34.221 26.41 41.537 25.229-17.272 41.783-46.29 41.783-79.174z" fill="#f24500"/></g><g><path d="m215.556 158.402-81.734-6.436c-5.145-.405-9.877 2.832-11.364 7.774l-.003.011c-.125.257-.24.522-.346.794l-60.53 156.255c-2.159 5.573.885 11.803 6.608 13.525l45.502 13.692c5.096 1.534 10.519-1.086 12.485-6.032l48.006-120.762 27.875 2.195c5.145.405 9.877-2.832 11.364-7.774l11.779-39.146c2.016-6.699-2.669-13.547-9.642-14.096z" fill="#fff"/></g><g><path d="m116.678 176.131c-.176-.068-.354-.132-.531-.194l-44.247 114.22c.286.129.577.25.872.363 16.481 6.326 39.67-14.153 51.794-45.741 12.125-31.587 8.593-62.322-7.888-68.648z" fill="#e9edf5"/></g></g></svg>