<svg id="Capa_1" enable-background="new 0 0 510 510" height="512" viewBox="0 0 510 510" width="512" xmlns="http://www.w3.org/2000/svg" xmlns:xlink="http://www.w3.org/1999/xlink"><linearGradient id="SVGID_1_" gradientUnits="userSpaceOnUse" x1="191.538" x2="266.238" y1="337.844" y2="537.934"><stop offset="0" stop-color="#ffe548"/><stop offset=".1758" stop-color="#ffde50"/><stop offset=".4446" stop-color="#ffca65"/><stop offset=".7709" stop-color="#ffaa87"/><stop offset="1" stop-color="#ff90a4"/></linearGradient><linearGradient id="lg1"><stop offset="0" stop-color="#fba5c2" stop-opacity="0"/><stop offset=".3857" stop-color="#fca0ba" stop-opacity=".386"/><stop offset=".9737" stop-color="#ff91a5" stop-opacity=".974"/><stop offset="1" stop-color="#ff90a4"/></linearGradient><linearGradient id="SVGID_2_" gradientUnits="userSpaceOnUse" x1="347.964" x2="203.964" xlink:href="#lg1" y1="465.415" y2="299.915"/><linearGradient id="SVGID_3_" gradientUnits="userSpaceOnUse" x1="255" x2="255" xlink:href="#lg1" y1="464" y2="514.062"/><linearGradient id="SVGID_4_" gradientUnits="userSpaceOnUse" x1="234.815" x2="160.149" xlink:href="#lg1" y1="438.664" y2="393.664"/><linearGradient id="SVGID_5_" gradientUnits="userSpaceOnUse" x1="389.02" x2="244.354" xlink:href="#lg1" y1="476.646" y2="431.312"/><linearGradient id="SVGID_6_" gradientUnits="userSpaceOnUse" x1="410.779" x2="301.939" xlink:href="#lg1" y1="453.406" y2="419.299"/><linearGradient id="SVGID_7_" gradientUnits="userSpaceOnUse" x1="424.836" x2="350.086" xlink:href="#lg1" y1="452.135" y2="414.135"/><linearGradient id="lg2"><stop offset="0" stop-color="#fccece"/><stop offset="1" stop-color="#fba5c2"/></linearGradient><linearGradient id="SVGID_8_" gradientUnits="userSpaceOnUse" x1="254.674" x2="266.674" xlink:href="#lg2" y1="377.438" y2="427.438"/><linearGradient id="lg3"><stop offset="0" stop-color="#fccece" stop-opacity="0"/><stop offset="1" stop-color="#bb4966"/></linearGradient><linearGradient id="SVGID_9_" gradientUnits="userSpaceOnUse" x1="282.171" x2="216.171" xlink:href="#lg3" y1="415.58" y2="331.58"/><linearGradient id="lg4"><stop offset="0" stop-color="#d4f7ff"/><stop offset="1" stop-color="#a2e3e9"/></linearGradient><linearGradient id="SVGID_10_" gradientUnits="userSpaceOnUse" x1="312.071" x2="333.571" xlink:href="#lg4" y1="368.011" y2="371.511"/><linearGradient id="lg5"><stop offset="0" stop-color="#a2e3e9" stop-opacity="0"/><stop offset="1" stop-color="#518cd2"/></linearGradient><linearGradient id="SVGID_11_" gradientUnits="userSpaceOnUse" x1="330.65" x2="294.9" xlink:href="#lg5" y1="356.536" y2="383.536"/><linearGradient id="SVGID_12_" gradientUnits="userSpaceOnUse" x1="362.673" x2="326.32" xlink:href="#lg4" y1="360.164" y2="387.619"/><linearGradient id="SVGID_13_" gradientUnits="userSpaceOnUse" x1="334.379" x2="371.712" xlink:href="#lg5" y1="370.573" y2="389.906"/><linearGradient id="SVGID_14_" gradientUnits="userSpaceOnUse" x1="169.137" x2="190.637" xlink:href="#lg4" y1="380.315" y2="383.815"/><linearGradient id="SVGID_15_" gradientUnits="userSpaceOnUse" x1="187.716" x2="151.966" xlink:href="#lg5" y1="368.84" y2="395.84"/><linearGradient id="SVGID_16_" gradientUnits="userSpaceOnUse" x1="226.567" x2="235.725" xlink:href="#lg4" y1="397.598" y2="399.089"/><linearGradient id="SVGID_17_" gradientUnits="userSpaceOnUse" x1="235.697" x2="220.829" xlink:href="#lg5" y1="393.275" y2="404.504"/><linearGradient id="SVGID_18_" gradientUnits="userSpaceOnUse" x1="264.02" x2="253.556" xlink:href="#lg4" y1="394.449" y2="402.352"/><linearGradient id="SVGID_19_" gradientUnits="userSpaceOnUse" x1="253.957" x2="270.149" xlink:href="#lg5" y1="395.95" y2="404.335"/><linearGradient id="lg6"><stop offset="0" stop-color="#a34a9e"/><stop offset="1" stop-color="#343168"/></linearGradient><linearGradient id="SVGID_20_" gradientUnits="userSpaceOnUse" x1="109.564" x2="189.585" xlink:href="#lg6" y1="242.84" y2="380.287"/><linearGradient id="SVGID_21_" gradientUnits="userSpaceOnUse" x1="366.017" x2="390.017" xlink:href="#lg6" y1="267.777" y2="346.777"/><linearGradient id="lg7"><stop offset="0" stop-color="#343168" stop-opacity="0"/><stop offset="1" stop-color="#1b1464"/></linearGradient><linearGradient id="SVGID_22_" gradientUnits="userSpaceOnUse" x1="435.406" x2="363.406" xlink:href="#lg7" y1="300.978" y2="276.228"/><linearGradient id="SVGID_23_" gradientUnits="userSpaceOnUse" x1="118.364" x2="181.51" xlink:href="#lg2" y1="186.171" y2="257.759"/><linearGradient id="SVGID_24_" gradientUnits="userSpaceOnUse" x1="121.161" x2="175.54" xlink:href="#lg3" y1="224.225" y2="169.023"/><linearGradient id="SVGID_25_" gradientTransform="matrix(-1 0 0 1 -741 0)" gradientUnits="userSpaceOnUse" x1="-1132.636" x2="-1069.491" xlink:href="#lg2" y1="186.171" y2="257.759"/><linearGradient id="SVGID_26_" gradientTransform="matrix(-1 0 0 1 -741 0)" gradientUnits="userSpaceOnUse" x1="-1129.839" x2="-1075.46" xlink:href="#lg3" y1="224.225" y2="169.023"/><linearGradient id="SVGID_27_" gradientUnits="userSpaceOnUse" x1="195.541" x2="365.541" xlink:href="#lg2" y1="151.519" y2="443.519"/><linearGradient id="SVGID_28_" gradientUnits="userSpaceOnUse" x1="255" x2="255" y1="151.333" y2="380.784"><stop offset="0" stop-color="#518cd2"/><stop offset="1" stop-color="#fba5c2" stop-opacity="0"/></linearGradient><linearGradient id="lg8"><stop offset="0" stop-color="#d4f7ff" stop-opacity=".6"/><stop offset="1" stop-color="#a2e3e9"/></linearGradient><linearGradient id="SVGID_29_" gradientUnits="userSpaceOnUse" x1="355.25" x2="384.417" xlink:href="#lg8" y1="231.969" y2="350.459"/><linearGradient id="SVGID_30_" gradientUnits="userSpaceOnUse" x1="125.067" x2="160.56" xlink:href="#lg8" y1="227.304" y2="243.494"/><linearGradient id="SVGID_31_" gradientUnits="userSpaceOnUse" x1="200.048" x2="350.453" xlink:href="#lg6" y1="40.684" y2="299.027"/><linearGradient id="SVGID_32_" gradientUnits="userSpaceOnUse" x1="305.642" x2="272.142" xlink:href="#lg7" y1="109.216" y2="234.716"/><linearGradient id="SVGID_33_" gradientUnits="userSpaceOnUse" x1="152.729" x2="181.624" xlink:href="#lg7" y1="64.615" y2="247.254"/><linearGradient id="lg9"><stop offset="0" stop-color="#c4f8b6"/><stop offset=".2416" stop-color="#c1f6b6"/><stop offset=".4094" stop-color="#b8efb5"/><stop offset=".5548" stop-color="#a9e3b4"/><stop offset=".6875" stop-color="#93d2b2"/><stop offset=".8115" stop-color="#77bcb0"/><stop offset=".9274" stop-color="#55a2ae"/><stop offset="1" stop-color="#3b8eac"/></linearGradient><radialGradient id="SVGID_34_" cx="100.292" cy="227.571" gradientUnits="userSpaceOnUse" r="29.155" xlink:href="#lg9"/><radialGradient id="SVGID_35_" cx="393.042" cy="227.571" gradientUnits="userSpaceOnUse" r="29.155" xlink:href="#lg9"/><linearGradient id="SVGID_36_" gradientUnits="userSpaceOnUse" x1="255" x2="255" y1="233.653" y2="374.262"><stop offset="0" stop-color="#fba5c2" stop-opacity="0"/><stop offset="1" stop-color="#a34a9e"/></linearGradient><linearGradient id="SVGID_37_" gradientUnits="userSpaceOnUse" x1="296.058" x2="323.15" xlink:href="#lg6" y1="207.181" y2="241.229"/><linearGradient id="SVGID_38_" gradientTransform="matrix(-1 0 0 1 -431.892 0)" gradientUnits="userSpaceOnUse" x1="-645.599" x2="-618.507" xlink:href="#lg6" y1="207.181" y2="241.229"/><linearGradient id="SVGID_39_" gradientTransform="matrix(1 0 0 -1 0 -8146.959)" gradientUnits="userSpaceOnUse" x1="193.711" x2="193.711" xlink:href="#lg6" y1="-8331.5" y2="-8346.533"/><linearGradient id="SVGID_40_" gradientTransform="matrix(1 0 0 -1 0 -8146.959)" gradientUnits="userSpaceOnUse" x1="316.289" x2="316.289" xlink:href="#lg6" y1="-8331.5" y2="-8346.533"/><linearGradient id="SVGID_41_" gradientUnits="userSpaceOnUse" x1="216.248" x2="227.048" xlink:href="#lg5" y1="330.449" y2="346.906"/><linearGradient id="SVGID_42_" gradientUnits="userSpaceOnUse" x1="234.604" x2="247.303" xlink:href="#lg5" y1="328.713" y2="348.064"/><linearGradient id="SVGID_43_" gradientUnits="userSpaceOnUse" x1="254.099" x2="266.798" xlink:href="#lg5" y1="328.713" y2="348.064"/><linearGradient id="SVGID_44_" gradientUnits="userSpaceOnUse" x1="273.594" x2="286.293" xlink:href="#lg5" y1="328.713" y2="348.064"/><linearGradient id="SVGID_45_" gradientUnits="userSpaceOnUse" x1="291.559" x2="304.257" xlink:href="#lg5" y1="329.718" y2="349.068"/><linearGradient id="SVGID_46_" gradientUnits="userSpaceOnUse" x1="216.64" x2="229.339" xlink:href="#lg5" y1="347.204" y2="366.554"/><linearGradient id="SVGID_47_" gradientUnits="userSpaceOnUse" x1="234.604" x2="247.303" xlink:href="#lg5" y1="348.208" y2="367.559"/><linearGradient id="SVGID_48_" gradientUnits="userSpaceOnUse" x1="254.099" x2="266.798" xlink:href="#lg5" y1="348.208" y2="367.559"/><linearGradient id="SVGID_49_" gradientUnits="userSpaceOnUse" x1="273.594" x2="286.293" xlink:href="#lg5" y1="348.208" y2="367.559"/><linearGradient id="SVGID_50_" gradientUnits="userSpaceOnUse" x1="292.219" x2="303.019" xlink:href="#lg5" y1="346.883" y2="363.34"/><linearGradient id="SVGID_51_" gradientUnits="userSpaceOnUse" x1="284.95" x2="208.02" y1="493.3" y2="416.371"><stop offset="0" stop-color="#343168" stop-opacity="0"/><stop offset="1" stop-color="#a34a9e"/></linearGradient><linearGradient id="SVGID_52_" gradientUnits="userSpaceOnUse" x1="240.333" x2="269.667" y1="463.351" y2="463.351"><stop offset="0" stop-color="#c4f8b6"/><stop offset=".1379" stop-color="#bef3b6"/><stop offset=".3233" stop-color="#ade6b4"/><stop offset=".5356" stop-color="#91d0b2"/><stop offset=".7677" stop-color="#6ab2af"/><stop offset="1" stop-color="#3b8eac"/></linearGradient><path d="m437.023 510c-20.198-84.845-94.025-147.76-182.023-147.76s-161.825 62.915-182.023 147.76z" fill="url(#SVGID_1_)"/><path d="m437.023 510c-20.198-84.845-94.025-147.76-182.023-147.76-23.269 0-45.545 4.402-66.103 12.442l135.318 135.318z" fill="url(#SVGID_2_)"/><path d="m129.744 412.035v97.965h250.512v-97.965c-33.2-30.958-77.106-49.795-125.256-49.795s-92.056 18.837-125.256 49.795z" fill="url(#SVGID_3_)"/><path d="m200.745 370.52c-10.709 3.355-21.013 7.676-30.819 12.868.202.414.39.834.604 1.243 4.242 8.104 5.89 17.316 4.719 26.388-.287 2.224 1.602 3.598 3.376 3.425l95.556 95.556h66.044z" fill="url(#SVGID_4_)"/><path d="m437.02 510h-200.46v-66.847c0-8.081 6.633-14.452 14.713-14.423h.157 7.14c23.914 0 43.3-19.386 43.3-43.3v-17.05c66.47 17.74 118.66 72.37 135.15 141.62z" fill="url(#SVGID_5_)"/><path d="m313.221 371.828c.084.165.156.335.242.499 4.242 8.104 5.889 17.316 4.719 26.388-.242 1.875 1.064 3.149 2.543 3.4l107.885 107.885h8.41c-15.539-65.255-62.783-117.515-123.799-138.172z" fill="url(#SVGID_6_)"/><path d="m340.817 383.795c-.069 1.501.266 3.016 1.035 4.366l7.886 13.844 77.015 76.733c-17.315-40.959-47.81-74.543-85.936-94.943z" fill="url(#SVGID_7_)"/><path d="m258.571 428.729h-7.142c-23.914 0-43.3-19.386-43.3-43.3v-18.429h93.742v18.429c0 23.914-19.386 43.3-43.3 43.3z" fill="url(#SVGID_8_)"/><path d="m296.36 367h-82.717c-1.848.432-3.687.889-5.514 1.377v17.051c0 3.285.378 6.48 1.071 9.556l32.672 32.672c3.076.693 6.271 1.071 9.556 1.071h7.142c23.914 0 43.3-19.386 43.3-43.3v-17.051c-1.825-.486-3.663-.944-5.51-1.376z" fill="url(#SVGID_9_)"/><path d="m307.68 334.596v14.21c0 8.192 1.985 16.263 5.784 23.521 4.242 8.104 5.889 17.316 4.719 26.388-.436 3.381 4.16 4.822 5.732 1.797l2.719-5.231c4.8-9.237 6.884-19.645 6.011-30.018l-1.663-19.746z" fill="url(#SVGID_10_)"/><path d="m321.23 378.005c2.261 4.051 3.021 8.771 2.144 13.327l-2.083 10.833c1.016-.01 2.033-.516 2.623-1.652l2.719-5.231c4.8-9.237 6.884-19.644 6.011-30.017l-1.663-19.747-23.301-10.922 7.885 12.173c2.067 3.191 3.167 6.912 3.167 10.714v10.917c-.001 3.363.859 6.669 2.498 9.605z" fill="url(#SVGID_11_)"/><path d="m351.549 333.785v14.797c0 8.182 1.897 16.253 5.543 23.577 1.966 3.95 1.164 8.717-1.987 11.806-2.239 2.195-3.318 5.314-2.912 8.424l1.099 8.423c.271 2.078-2.517 3.013-3.554 1.193l-7.886-13.844c-1.425-2.502-1.41-5.574.041-8.062 1.439-2.467 1.467-5.511.074-8.004l-9.721-17.396z" fill="url(#SVGID_12_)"/><path d="m349.327 392.906c-1.127-2.926-.814-6.212.845-8.873 2.334-3.745 1.991-8.566-.851-11.942-5.269-6.259-9.015-13.655-10.944-21.607l-.466-1.923-5.664 6.137 9.721 17.396c1.393 2.493 1.365 5.537-.074 8.004-1.451 2.488-1.467 5.56-.042 8.062l7.886 13.844c.501.88 1.41 1.111 2.186.886.512-.484.773-1.235.456-2.058z" fill="url(#SVGID_13_)"/><path d="m164.746 346.9v14.21c0 8.192 1.985 16.263 5.784 23.521 4.242 8.104 5.889 17.316 4.719 26.388-.436 3.381 4.16 4.822 5.732 1.797l2.719-5.231c4.8-9.237 6.884-19.645 6.011-30.018l-1.663-19.746z" fill="url(#SVGID_14_)"/><path d="m178.296 390.309c2.261 4.051 3.021 8.771 2.144 13.327l-2.083 10.833c1.016-.01 2.033-.516 2.623-1.652l2.719-5.231c4.8-9.237 6.885-19.644 6.011-30.017l-1.663-19.747-23.301-10.922 7.885 12.173c2.067 3.191 3.167 6.912 3.167 10.714v10.918c-.001 3.362.859 6.668 2.498 9.604z" fill="url(#SVGID_15_)"/><path d="m237.041 390.29c-.99 3.35-2.31 6.61-3.93 9.74l-2.72 5.23c-.07.14-.15.27-.24.4s-.19.24-.28.34c-.2.22-.42.39-.65.52-.22.13-.45.23-.69.29-.01 0-.02 0-.03.01-1.77.46-3.87-.76-3.87-2.9 0-.15.01-.3.03-.45.24-1.9.37-3.81.37-5.71 0-3.29-.37-6.57-1.09-9.76 1.99.46 3.99.87 6.01 1.23 2.34.42 4.7.78 7.09 1.06z" fill="url(#SVGID_16_)"/><path d="m237.041 390.29c-.99 3.35-2.31 6.61-3.93 9.74l-2.72 5.23c-.07.14-.15.27-.24.4s-.19.24-.28.34c-.2.22-.42.39-.65.52-.22.13-.45.22-.69.29-.01 0-.02 0-.03.01-.24.06-.49.09-.73.09l2.08-10.83c.44-2.28.47-4.59.1-6.85 2.34.42 4.7.78 7.09 1.06z" fill="url(#SVGID_17_)"/><path d="m262.701 407.64c-.01 0-.01 0-.02.01-.55.16-1.16.08-1.65-.29-.06-.05-.13-.11-.19-.17-.12-.12-.23-.26-.33-.43l-7.88-13.85c-.31-.54-.55-1.1-.72-1.68h7.94c1.41-.01 2.82-.03 4.21-.08-.77 1.43-1.18 3.05-1.18 4.69 0 .43.03.87.09 1.3l1.1 8.42c.14 1.07-.54 1.84-1.37 2.08z" fill="url(#SVGID_18_)"/><path d="m262.701 407.64c-.01 0-.01 0-.02.01-.55.15-1.16.07-1.65-.29-.06-.05-.13-.11-.19-.17-.12-.12-.23-.26-.33-.43l-7.88-13.85c-.31-.54-.55-1.1-.72-1.68h7.94c-.62 2.09-.54 4.35.25 6.43l3.06 7.92c.31.83.05 1.58-.46 2.06z" fill="url(#SVGID_19_)"/><circle cx="137.159" cy="290.238" fill="url(#SVGID_20_)" r="65.667"/><circle cx="372.841" cy="290.238" fill="url(#SVGID_21_)" r="65.667"/><path d="m438.508 290.238c0-36.267-29.4-65.667-65.667-65.667-9.568 0-18.649 2.063-26.847 5.742.602 18.046 1.238 42.146 2.523 46.67.259.911 1.183 1.365 2.134 1.407l22.493 23.203c1.06 7.642 2.084 14.68 2.942 20.444.162 1.089 1.166 1.691 2.259 1.808l24.696 24.696c21.065-10.932 35.467-32.929 35.467-58.303z" fill="url(#SVGID_22_)"/><circle cx="137.159" cy="207.479" fill="url(#SVGID_23_)" r="40.166"/><circle cx="129.744" cy="215.512" fill="url(#SVGID_24_)" r="29.455"/><circle cx="372.841" cy="207.479" fill="url(#SVGID_25_)" r="40.166"/><circle cx="380.256" cy="215.512" fill="url(#SVGID_26_)" r="29.455"/><path d="m258.417 391.191h-6.833c-76.458 0-135.578-67.075-125.976-142.928l3.417-26.991c8.033-63.458 62.012-111.035 125.976-111.035 63.964 0 117.943 47.577 125.976 111.035l3.417 26.991c9.6 75.853-49.519 142.928-125.977 142.928z" fill="url(#SVGID_27_)"/><path d="m258.417 391.191h-6.833c-76.458 0-135.578-67.075-125.976-142.928l3.417-26.991c8.033-63.458 62.012-111.035 125.976-111.035 63.964 0 117.943 47.577 125.976 111.035l3.417 26.991c9.6 75.853-49.519 142.928-125.977 142.928z" fill="url(#SVGID_28_)"/><path d="m305.905 134.613v45.646s37.53.318 39.5 35.401c.85 15.225 1.415 55.35 3.111 61.323.585 2.059 4.57 1.793 4.57-.317 0-61.155 13.539-50.208 13.539-24.822 0 12.845 2.099 16.66 4.979 38.393 1.578 11.947 3.211 23.268 4.481 31.8.36 2.42 4.871 2.456 5.301.043 4.314-24.227 8.075-32.51 9.889-50.863 0 0 0 0 0-.008.745-7.578 1.263-13.465 1.538-16.671.036-1.505.071-3.006.107-4.511-.155-3.004-.479-6.033-.975-9.073l-3.65-22.377c-6.27-38.426-38.72-69.83-82.39-83.964z" fill="url(#SVGID_29_)"/><path d="m202.83 111.09v58.81s-37.53.41-39.5 45.61c-.85 19.616-2.589 31.965-4.286 39.661-.585 2.653-4.468 2.306-4.57-.408-1.662-44.333-12.364-25.34-12.364 7.367 0 16.55-2.69 47.22-5.57 75.22-1.578 15.393-3.211 29.978-4.481 40.971-.36 3.118-4.871 3.164-5.301.055-4.314-31.214-7.483-67.64-9.298-91.286 0 0 0 0 0-.01-.99-12.981-1.58-22.111-1.73-24.391v-.008c.09-4.814.44-9.687 1.06-14.581l3.65-28.83c6.27-49.51 38.72-89.97 82.39-108.18z" fill="url(#SVGID_30_)"/><path d="m227.006 141.139s-35.38 58.946-93.464 58.946c0 0-44.892-71.389-12.209-125.181 32-52.667 81.492-32 81.492-32s7.33-37.563 67.841-42.667c55.334-4.666 150.816 59.305 105.829 199.848 0 0-98.307 41.549-149.489-58.946z" fill="url(#SVGID_31_)"/><path d="m376.495 200.085c-26.838-99.485-159.828-113.847-159.828-113.847-.667 22 10.339 54.901 10.339 54.901 51.182 100.495 149.489 58.946 149.489 58.946z" fill="url(#SVGID_32_)"/><path d="m121.333 74.904c-32.684 53.792 12.209 125.181 12.209 125.181-22.458-128.652 69.284-157.181 69.284-157.181s-49.493-20.666-81.493 32z" fill="url(#SVGID_33_)"/><circle cx="108.625" cy="239.238" fill="url(#SVGID_34_)" r="14.667"/><circle cx="401.375" cy="239.238" fill="url(#SVGID_35_)" r="14.667"/><path d="m290.975 275.54-9.198-68.458h-53.554l-9.198 68.458c-1.298 9.659 4.469 18.985 13.783 21.853 14.435 4.445 29.949 4.445 44.384 0 9.314-2.868 15.081-12.194 13.783-21.853z" fill="url(#SVGID_36_)"/><path d="m317.914 228.3c-5.082-1.47-9.191-4.436-11.687-8.01-1.029-1.473-3.299-1.064-3.717.683-.415 1.734-.64 3.576-.64 5.487 0 10.295 6.455 18.641 14.418 18.641 6.639 0 12.227-5.801 13.903-13.696.303-1.427-.958-2.671-2.398-2.438-3.078.497-6.471.319-9.879-.667z" fill="url(#SVGID_37_)"/><path d="m191.851 228.3c5.082-1.47 9.191-4.436 11.687-8.01 1.029-1.473 3.299-1.064 3.717.683.415 1.734.64 3.576.64 5.487 0 10.295-6.455 18.641-14.418 18.641-6.639 0-12.227-5.801-13.903-13.696-.303-1.427.958-2.671 2.398-2.438 3.078.497 6.471.319 9.879-.667z" fill="url(#SVGID_38_)"/><path d="m193.711 197.593c-10.589 0-20.393-3.351-28.414-9.05-5.687-4.041-6.391-12.22-1.458-17.153l.696-.696c3.925-3.925 10.039-4.281 14.604-1.123 4.138 2.863 9.159 4.54 14.572 4.54s10.434-1.677 14.572-4.54c4.564-3.158 10.679-2.802 14.604 1.123l.696.696c4.933 4.933 4.229 13.112-1.458 17.153-8.021 5.699-17.826 9.05-28.414 9.05z" fill="url(#SVGID_39_)"/><path d="m316.289 197.593c-10.589 0-20.393-3.351-28.414-9.05-5.687-4.041-6.391-12.22-1.458-17.153l.696-.696c3.925-3.925 10.039-4.281 14.604-1.123 4.138 2.863 9.159 4.54 14.572 4.54s10.434-1.677 14.572-4.54c4.564-3.158 10.679-2.802 14.604 1.123l.696.696c4.933 4.933 4.229 13.112-1.458 17.153-8.021 5.699-17.825 9.05-28.414 9.05z" fill="url(#SVGID_40_)"/><path d="m290.955 359.328h-71.909c-7.06 0-12.783-5.723-12.783-12.783v-13.424c0-7.06 5.723-12.783 12.783-12.783h71.909c7.06 0 12.783 5.723 12.783 12.783v13.424c0 7.06-5.724 12.783-12.783 12.783z" fill="#fff"/><path d="m222.495 339.833h-12.971c-1.802 0-3.262-1.46-3.262-3.262v-3.45c0-7.06 5.723-12.783 12.783-12.783h3.45c1.802 0 3.262 1.461 3.262 3.262v12.971c0 1.802-1.46 3.262-3.262 3.262z" fill="url(#SVGID_41_)"/><path d="m241.99 339.833h-12.97c-1.802 0-3.262-1.46-3.262-3.262v-12.971c0-1.802 1.46-3.262 3.262-3.262h12.971c1.802 0 3.262 1.461 3.262 3.262v12.971c-.001 1.802-1.461 3.262-3.263 3.262z" fill="url(#SVGID_42_)"/><path d="m261.485 339.833h-12.971c-1.802 0-3.262-1.46-3.262-3.262v-12.971c0-1.802 1.46-3.262 3.262-3.262h12.971c1.802 0 3.262 1.461 3.262 3.262v12.971c.001 1.802-1.46 3.262-3.262 3.262z" fill="url(#SVGID_43_)"/><path d="m280.98 339.833h-12.97c-1.802 0-3.262-1.46-3.262-3.262v-12.971c0-1.802 1.46-3.262 3.262-3.262h12.971c1.802 0 3.262 1.461 3.262 3.262v12.971c0 1.802-1.461 3.262-3.263 3.262z" fill="url(#SVGID_44_)"/><path d="m300.475 339.833h-12.971c-1.802 0-3.262-1.46-3.262-3.262v-12.971c0-1.802 1.46-3.262 3.262-3.262h3.45c7.06 0 12.783 5.723 12.783 12.783v3.45c.001 1.802-1.46 3.262-3.262 3.262z" fill="url(#SVGID_45_)"/><path d="m222.495 359.328h-3.45c-7.06 0-12.783-5.723-12.783-12.783v-3.45c0-1.802 1.46-3.262 3.262-3.262h12.971c1.802 0 3.262 1.46 3.262 3.262v12.971c0 1.802-1.46 3.262-3.262 3.262z" fill="url(#SVGID_46_)"/><path d="m241.99 359.328h-12.97c-1.802 0-3.262-1.46-3.262-3.262v-12.971c0-1.802 1.46-3.262 3.262-3.262h12.971c1.802 0 3.262 1.46 3.262 3.262v12.971c-.001 1.802-1.461 3.262-3.263 3.262z" fill="url(#SVGID_47_)"/><path d="m261.485 359.328h-12.971c-1.802 0-3.262-1.46-3.262-3.262v-12.971c0-1.802 1.46-3.262 3.262-3.262h12.971c1.802 0 3.262 1.46 3.262 3.262v12.971c.001 1.802-1.46 3.262-3.262 3.262z" fill="url(#SVGID_48_)"/><path d="m280.98 359.328h-12.97c-1.802 0-3.262-1.46-3.262-3.262v-12.971c0-1.802 1.46-3.262 3.262-3.262h12.971c1.802 0 3.262 1.46 3.262 3.262v12.971c0 1.802-1.461 3.262-3.263 3.262z" fill="url(#SVGID_49_)"/><path d="m290.955 359.328h-3.45c-1.802 0-3.262-1.46-3.262-3.262v-12.971c0-1.802 1.46-3.262 3.262-3.262h12.971c1.802 0 3.262 1.46 3.262 3.262v3.45c0 7.06-5.724 12.783-12.783 12.783z" fill="url(#SVGID_50_)"/><path d="m265.959 453.627c-2.687-3.026-6.595-4.943-10.959-4.943-8.1 0-14.667 6.566-14.667 14.667 0 4.365 1.917 8.273 4.943 10.959l35.69 35.69h41.366z" fill="url(#SVGID_51_)"/><circle cx="255" cy="463.351" fill="url(#SVGID_52_)" r="14.667"/></svg>