<svg id="Layer_1" enable-background="new 0 0 512 512" height="512" viewBox="0 0 512 512" width="512" xmlns="http://www.w3.org/2000/svg"><g><g><path d="m128.633 492.41c-12.564 1.344-24.717 2.43-39.297 3.711-31.195 2.736-50.846-.708-61.838-10.835-8.512-7.841-12.6-20.68-12.496-39.247.148-26.636.6-107.694 110.532-373.984 1.49-3.61 2.842-6.882 4.035-9.788 1.574-3.831-.256-8.213-4.088-9.788-3.831-1.572-8.214.256-9.787 4.088-1.19 2.899-2.538 6.163-4.025 9.764-30.372 73.57-111.051 269-111.667 379.624-.128 23.026 5.541 39.501 17.332 50.363 11.476 10.573 28.716 15.682 53.492 15.682 6.135 0 12.735-.313 19.821-.935 14.661-1.289 26.886-2.382 39.581-3.74 4.118-.44 7.1-4.136 6.659-8.255-.439-4.118-4.125-7.109-8.254-6.66z"/><path d="m507.473 155.833c-16.847-7.274-34.211-10.532-51.632-9.675-24.002 1.178-48.228 10.126-72.002 26.597-3.405 2.359-4.254 7.032-1.895 10.436 2.358 3.404 7.029 4.254 10.436 1.895 35.373-24.506 70.546-30.321 104.62-17.321v171.542c-22.914-32.305-53.999-58.918-89.553-76.296-3.721-1.817-8.213-.277-10.031 3.445-1.818 3.721-.276 8.212 3.445 10.032 40.162 19.63 74.235 51.842 96.139 90.815v48.047c-27.426-13.091-54.621-18.682-82.771-17.068-30.875 1.772-57.348 11.995-76.958 20.701-30.853 13.683-58.79 33.119-88.893 46.073-24.907 10.711-52.938 18.143-88.217 23.39-4.097.608-6.924 4.424-6.315 8.522.554 3.723 3.755 6.398 7.409 6.398.367 0 .739-.027 1.113-.083 36.593-5.441 65.807-13.209 91.937-24.446 31.141-13.399 58.968-32.8 89.049-46.142 42.338-18.798 94.162-33.32 157.534 1.509 4.994 2.742 11.112-.874 11.112-6.574v-264.911c0-2.993-1.779-5.7-4.527-6.886z"/><path d="m206.404 314.268c11.992-12.22 24.393-24.857 45.925-40.223 24.332-17.373 38.794-22.089 51.554-26.25 16.692-5.445 31.109-10.146 57.994-36.948 2.177-2.171 4.379-4.294 6.545-6.31 3.031-2.822 3.201-7.569.38-10.601-2.822-3.031-7.567-3.202-10.601-.38-2.291 2.134-4.618 4.377-6.915 6.668-24.349 24.273-36.575 28.261-52.054 33.309-13.787 4.496-29.412 9.592-55.618 28.303-22.602 16.13-36.051 29.834-47.916 41.926-11.493 11.71-21.768 22.182-38.404 33.148 6.261-26.481 12.89-69.762 15.47-99.804 3.718-43.209 27.432-137.367 64.058-226.761.947-2.314.681-4.946-.713-7.023-1.393-2.077-3.728-3.322-6.228-3.322h-84.029c-2.927 0-5.586 1.702-6.812 4.361-3.257 7.068-6.84 14.939-10.361 22.764-1.7 3.778-.017 8.217 3.761 9.917 3.775 1.701 8.217.018 9.917-3.761 2.795-6.208 5.627-12.445 8.302-18.28h68.116c-27.287 68.889-56.043 163.722-60.956 220.821-3.506 40.818-13.978 100.653-20.009 114.326-1.295 2.937-.578 6.372 1.783 8.546 1.418 1.305 3.24 1.982 5.081 1.982 1.225 0 2.456-.299 3.582-.912 28.97-15.763 43.143-30.205 58.148-45.496z"/><path d="m354.634 362.511c-11.607 13.821-28.735 20.135-41.06 22.998-16.399 3.811-33.899 4.05-50.823 4.281-4.142.057-7.453 3.46-7.396 7.602.056 4.107 3.402 7.398 7.497 7.398.034 0 .069 0 .104-.001 17.718-.242 36.039-.492 54.013-4.668 14.548-3.38 34.884-10.975 49.151-27.961 2.664-3.172 2.252-7.904-.919-10.568-3.173-2.663-7.902-2.251-10.567.919z"/></g></g></svg>