<svg id="Capa_1" enable-background="new 0 0 512 512" height="512" viewBox="0 0 512 512" width="512" xmlns="http://www.w3.org/2000/svg"><g><g><g><g><g><g><g><path d="m0 256c0-141.385 114.615-256 256-256s256 114.615 256 256-114.615 256-256 256c-81.634 0-154.344-38.21-201.22-97.721-15.363-19.504 9.753-41.296.535-64.781-7.876-20.066-50.996-41.368-53.58-63.534-1.146-9.829-1.735-19.827-1.735-29.964z" fill="#a260e5"/></g></g></g></g></g></g><g fill="#7a3eb5"><path d="m261.403 152.78-5.403-5.257-.969 20.763-87.3-87.3-27.643 117.14 64.462 64.462-149.775 151.684s.001 0 .001.001c.001.002.003.003.004.005 46.876 59.512 119.586 97.722 201.22 97.722 98.595 0 184.172-55.737 226.94-137.421.013-.025.026-.051.04-.076z"/><path d="m511.291 275.19-147.942-147.942-24.534 94.478 147.063 147.063c14.06-28.601 22.939-60.209 25.413-93.599z"/></g><g><path d="m422.544 375.708c10.624 0 19.672-8.261 20.05-18.879.396-11.146-8.522-20.307-19.58-20.307h-146.442v-6.164h115.247c10.187 0 18.444-8.258 18.444-18.444 0-10.187-8.258-18.444-18.444-18.444h-126.41v-6.164h88.883c8.774 0 16.225-7.18 16.06-15.952-.159-8.507-7.105-15.354-15.65-15.354h-87.428-78.574-39.867v.244c-19.641 1.735-36.482 13.203-45.676 29.547-.007.014-.022.022-.038.022 0 0-60.906 0-101.402 0 5.586 48.165 24.541 92.253 53.057 128.459h45.679c.017 0 .033.01.04.025 7.804 17.458 25.323 29.661 45.649 29.661h115.683c11.169 0 20.672-8.701 21.043-19.864.389-11.701-8.977-21.278-20.559-21.278h-60.558c-.017-.016-.028-.026-.045-.042l-.411-5.909c-1.896-27.278-22.809-49.211-49.179-53.171l-.112-12.902c31.163 3.766 56.504 28.038 61.372 59.201.016.014.027.023.043.037h49.604c.496 0 .988.013 1.478.039 12.441.656 26.509 10.894 28.545 24.202.005.034 0 8.053 0 8.053h114.103c10.821 0 19.593-8.772 19.593-19.593 0-10.821-8.772-19.593-19.593-19.593h-121.647v-7.431h137.042z" fill="#ffdecf"/></g><g fill="#ffbeaa"><path d="m261.826 443.958c11.169 0 20.672-8.701 21.043-19.864.389-11.701-8.977-21.278-20.559-21.278h-6.296v41.142z"/><path d="m422.544 375.708c10.624 0 19.672-8.261 20.05-18.879.396-11.146-8.522-20.307-19.58-20.307h-146.442v-6.164h115.247c10.187 0 18.444-8.258 18.444-18.444s-8.258-18.444-18.444-18.444h-126.41v-6.164h88.883c8.774 0 16.225-7.18 16.06-15.952-.159-8.507-7.105-15.354-15.65-15.354h-87.428-11.259v134.031h7.012c.496 0 .988.013 1.478.039 12.441.656 26.509 10.894 28.545 24.202.005.034 0 8.053 0 8.053h114.103c10.821 0 19.593-8.772 19.593-19.593 0-10.821-8.772-19.593-19.593-19.593h-121.651v-7.431z"/></g><g><g><g><path d="m163.006 363.392c-.034-8.392-6.846-15.171-15.23-15.171-.021 0-.042 0-.062 0-3.311.011-9.262-.386-11.751-3.211-2.151-2.441-2.15-6.979-1.972-8.507.263-1.611 2.163-15.725-11.524-17.995-16.152-2.678-18.556 13.167-18.556 13.167-.043.257-.123.787-.204 1.543l-3.405.049c-4.948.071-8.902 4.139-8.831 9.087.07 4.904 4.067 8.832 8.956 8.832.043 0 .087 0 .13-.001l4.82-.069c.898 2.964 2.191 6.032 4.028 9.024l-4.517 3.873c-3.757 3.221-4.191 8.878-.969 12.634 1.772 2.067 4.281 3.128 6.806 3.128 2.064 0 4.139-.709 5.828-2.158l5.779-4.956c3.885 2.23 8.001 3.688 12.041 4.61l-.423 5.828c-.358 4.936 3.352 9.227 8.287 9.585.221.016.44.024.658.024 4.654 0 8.585-3.597 8.927-8.311l.464-6.393c6.232-1.93 10.747-7.75 10.72-14.612z" fill="#7e8596"/></g><g><circle cx="170.718" cy="318.509" fill="#7e8596" r="6.922"/></g><g><path d="m75.498 352.881c-2.644 0-4.788 2.144-4.788 4.788s2.144 4.788 4.788 4.788 4.788-2.144 4.788-4.788-2.144-4.788-4.788-4.788z" fill="#7e8596"/></g><g><circle cx="167.414" cy="393" fill="#7e8596" r="10.226"/></g><g><ellipse cx="102.909" cy="397.87" fill="#7e8596" rx="10.226" ry="10.226" transform="matrix(.851 -.526 .526 .851 -193.803 113.525)"/></g><g><circle cx="118.686" cy="299.958" fill="#7e8596" r="8.909"/></g></g></g><g><path d="m182.072 276.052c0-60.326 73.928-128.529 73.928-128.529s73.928 68.203 73.928 128.529c0 40.829-33.098 73.928-73.928 73.928s-73.928-33.099-73.928-73.928z" fill="#64e1dc"/></g><g><path d="m329.927 276.052c0-60.078-73.311-127.959-73.913-128.516v202.443c40.823-.008 73.913-33.103 73.913-73.927z" fill="#00c1bc"/></g><g><path d="m121.599 161.19c0-37.645 46.132-80.205 46.132-80.205s46.132 42.56 46.132 80.205c0 25.478-20.654 46.132-46.132 46.132s-46.132-20.653-46.132-46.132z" fill="#64e1dc"/></g><g><path d="m325.544 192.975c0-30.849 37.805-65.727 37.805-65.727s37.805 34.877 37.805 65.727c0 20.879-16.926 37.805-37.805 37.805s-37.805-16.926-37.805-37.805z" fill="#00c1bc"/></g></g></svg>