<svg id="Capa_1" enable-background="new 0 0 512 512" height="512" viewBox="0 0 512 512" width="512" xmlns="http://www.w3.org/2000/svg"><g><g><g><g><g><g><g><path d="m0 256c0-141.385 114.615-256 256-256 122.466 0 224.848 85.994 250.054 200.893 3.894 17.749-105.501 307.911-244.167 311.041-1.957.044-3.919.066-5.887.066-141.385 0-256-114.615-256-256z" fill="#ff6c52"/></g></g></g></g></g></g><path d="m259.926 511.97c2.245-.034 4.483-.096 6.714-.188 19.891-8.065 42.533-17.408 62.44-23.327 23.609-7.02 51.494-13.691 66.007-17.499 70.363-45.621 116.913-124.852 116.913-214.956 0-22.227-2.833-43.791-8.157-64.354l-103.405-103.405-6.411 23.624-43.117-43.117-7.655 69.238-36.779-36.779-11.447 70.334-29.979-29.979-174.74 200.79z" fill="#e50a0a"/><g><path d="m404.912 222.452c-11.701-.389-21.278 8.977-21.278 20.559v60.558c-.016.017-.026.028-.042.045l-5.908.411c-27.279 1.896-49.211 22.809-53.171 49.179l-12.902.112c3.766-31.163 28.038-56.504 59.201-61.372.014-.016.023-.027.037-.043v-49.604c0-.496.013-.988.039-1.477.656-12.441 10.894-26.509 24.202-28.545.034-.005 8.053 0 8.053 0v-114.103c0-10.821-8.772-19.593-19.593-19.593-10.821 0-19.593 8.772-19.593 19.593v121.649h-7.431v-137.042c0-10.624-8.261-19.672-18.879-20.05-11.147-.396-20.307 8.522-20.307 19.58v146.442h-6.164v-115.247c0-10.187-8.258-18.444-18.444-18.444-10.187 0-18.444 8.258-18.444 18.444v126.41h-6.164v-88.883c0-8.774-7.18-16.225-15.952-16.06-8.507.159-15.354 7.105-15.354 15.65v87.429 78.573 39.867h.243c1.736 19.641 13.203 36.482 29.547 45.676.014.007.022.022.022.038v109.581c47.247-1.93 91.193-16.665 128.459-40.828 0-31.697 0-66.088 0-66.088 0-.017.01-.033.025-.04 17.459-7.804 29.661-25.323 29.661-45.649v-115.685c0-11.169-8.7-20.672-19.863-21.043z" fill="#ffdecf"/></g><g fill="#ffbeaa"><path d="m370.811 291.943c.014-.016.023-.027.037-.043v-49.604c0-.496.013-.988.039-1.477.656-12.441 10.894-26.509 24.202-28.545.034-.005 8.053 0 8.053 0v-114.103c0-10.821-8.772-19.593-19.593-19.593-10.821 0-19.593 8.772-19.593 19.593v121.649h-7.431v-137.042c0-10.624-8.261-19.672-18.879-20.05-11.147-.396-20.307 8.522-20.307 19.58v146.442h-3.387v113.199c7.589-25.803 29.585-45.745 56.859-50.006z"/><path d="m404.912 222.452c-11.701-.389-21.278 8.977-21.278 20.559v60.558c-.016.017-.026.028-.042.045l-5.908.411c-27.279 1.896-49.211 22.809-53.171 49.179l-10.561.091v152.117c29.29-6.779 56.655-18.583 81.137-34.457 0-31.697 0-66.088 0-66.088 0-.017.01-.033.025-.04 17.459-7.804 29.661-25.323 29.661-45.649v-115.683c0-11.169-8.7-20.672-19.863-21.043z"/></g><g><g><g><circle cx="173.908" cy="263.082" fill="#fff" r="91.141"/></g></g><g><g><path d="m265.049 263.082c0-50.241-40.652-90.984-90.856-91.138v182.276c50.204-.155 90.856-40.898 90.856-91.138z" fill="#e9edf5"/></g></g><g><g><path d="m173.908 378.345c-63.557 0-115.264-51.707-115.264-115.264 0-63.556 51.707-115.263 115.264-115.263s115.264 51.707 115.264 115.263c-.001 63.557-51.708 115.264-115.264 115.264zm0-198.862c-46.097 0-83.599 37.502-83.599 83.599s37.502 83.599 83.599 83.599 83.599-37.502 83.599-83.599-37.503-83.599-83.599-83.599z" fill="#636978"/></g></g><g><g><path d="m289.171 263.082c0-63.461-51.553-115.105-114.979-115.26v31.668c45.965.155 83.314 37.591 83.314 83.592s-37.349 83.437-83.314 83.592v31.668c63.426-.155 114.979-51.799 114.979-115.26z" fill="#414952"/></g></g><g><path d="m213.633 273.435c-.04-9.885-8.065-17.872-17.942-17.872-.024 0-.049 0-.073 0-3.9.013-10.911-.455-13.843-3.782-2.534-2.876-2.533-8.222-2.323-10.021.31-1.898 2.548-18.525-13.576-21.198-19.027-3.155-21.859 15.51-21.859 15.51-.05.303-.145.927-.241 1.818l-4.011.057c-5.829.083-10.486 4.876-10.403 10.705.082 5.777 4.791 10.404 10.551 10.404.051 0 .103 0 .154-.001l5.678-.081c1.058 3.492 2.58 7.106 4.745 10.631l-5.321 4.563c-4.426 3.795-4.937 10.458-1.142 14.883 2.088 2.435 5.043 3.684 8.017 3.684 2.432 0 4.875-.836 6.866-2.543l6.808-5.838c4.577 2.627 9.425 4.345 14.185 5.431l-.498 6.865c-.422 5.814 3.949 10.87 9.763 11.292.26.019.518.028.775.028 5.482 0 10.113-4.237 10.516-9.791l.547-7.531c7.34-2.273 12.659-9.129 12.627-17.213z" fill="#10b8e0"/><path d="m195.691 255.563c-.024 0-.049 0-.073 0-3.9.013-10.911-.455-13.843-3.782-2.534-2.876-2.533-8.222-2.323-10.021.24-1.472 1.633-11.789-5.26-17.601v64.004c1.902.651 3.813 1.19 5.71 1.623l-.498 6.865c-.422 5.814 3.949 10.87 9.763 11.292.26.019.518.028.775.028 5.482 0 10.113-4.237 10.516-9.791l.547-7.531c7.341-2.274 12.659-9.13 12.627-17.214-.039-9.886-8.064-17.872-17.941-17.872z" fill="#00a2db"/><g><g><circle cx="222.717" cy="220.562" fill="#00a2db" r="8.154"/></g></g><g><g><circle cx="110.546" cy="266.694" fill="#10b8e0" r="5.641"/></g></g><g><g><circle cx="218.825" cy="308.314" fill="#00a2db" r="12.046"/></g></g><g><g><circle cx="142.837" cy="314.05" fill="#10b8e0" r="12.046"/></g></g><g><g><circle cx="161.422" cy="198.708" fill="#10b8e0" r="10.495"/></g></g></g></g></g></svg>