<svg id="Capa_1" enable-background="new 0 0 512 512" height="512" viewBox="0 0 512 512" width="512" xmlns="http://www.w3.org/2000/svg"><g><g><g><path d="m256 512c-140.596 0-256-115.39-256-256s115.404-256 256-256 256 115.39 256 256-115.404 256-256 256z" fill="#80bfff"/></g></g><path d="m512 256c0-140.61-115.404-256-256-256v512c140.596 0 256-115.39 256-256z" fill="#69f"/><g id="Information_4_"><path d="m316 391h-15v-150c0-8.291-6.709-15-15-15-10.534 0-75.727 0-90 0-8.291 0-15 6.709-15 15s6.709 15 15 15h15v135h-15c-8.291 0-15 6.709-15 15s6.709 15 15 15h120c8.291 0 15-6.709 15-15s-6.709-15-15-15z" fill="#edf5ff"/><g><path d="m256 196c-33.076 0-60-26.909-60-60s26.924-60 60-60 60 26.909 60 60-26.924 60-60 60z" fill="#edf5ff"/></g></g><g id="Information_3_" fill="#d5e8fe"><path d="m316 391h-15v-150c0-8.291-6.709-15-15-15h-30v195h60c8.291 0 15-6.709 15-15s-6.709-15-15-15z"/><path d="m316 136c0-33.091-26.924-60-60-60v120c33.076 0 60-26.909 60-60z"/></g></g></svg>