<svg id="Layer_1" enable-background="new 0 0 512 512" height="512" viewBox="0 0 512 512" width="512" xmlns="http://www.w3.org/2000/svg"><g><g><path d="m443.766 204.922h-.057c-23.794.181-42.789-.251-53.49-1.205-31.652-2.82-63.633-11.228-94.562-19.358-45.827-12.048-93.22-24.503-141.186-19.393-7.688.819-12.473 8.766-9.571 15.97 8.726 21.651 20.828 71.583 20.407 114.804-.348 35.794-6.824 83.229-19.796 145.015-.852 4.054 1.745 8.03 5.799 8.881.52.109 1.038.162 1.549.162 3.473 0 6.59-2.426 7.333-5.96 13.179-62.763 19.758-111.159 20.117-147.952.415-42.723-10.907-91.853-19.907-116.417 43.714-3.662 86.369 7.549 131.443 19.398 31.53 8.289 64.133 16.859 97.044 19.792 14.312 1.276 37.773 1.391 54.933 1.265 4.142-.031 7.475-3.414 7.445-7.556-.033-4.125-3.385-7.446-7.501-7.446z"/><path d="m147.612 466.506c-4.039-.914-8.057 1.616-8.974 5.656-1.775 7.826-3.671 15.998-5.763 24.838h-94.81c7.985-93.796-3.283-188.795-14.008-282.189-.471-4.115-4.19-7.065-8.306-6.597-4.116.472-7.069 4.191-6.597 8.306 10.927 95.16 22.476 192.346 13.23 287.253-.429 4.409 3.04 8.227 7.465 8.227h108.952c3.472 0 6.491-2.383 7.296-5.76 2.657-11.146 5.002-21.208 7.169-30.76.917-4.04-1.615-8.057-5.654-8.974z"/><path d="m506.239 2.41c-6.03-1.438-69.868-2.593-131.338-2.386-49.271.169-138.997 1.379-186.347 7.58-46.189 6.048-78.229 11.34-126.682 19.474-16.202 2.72-38.804 8.279-47.987 25.088-17.177 31.446-15.007 69.03-11.311 104.83.877 8.498 1.847 17.52 2.962 27.581.456 4.118 4.173 7.086 8.281 6.628 4.117-.456 7.085-4.164 6.628-8.281-1.111-10.023-2.076-19.009-2.95-27.469-3.596-34.841-5.571-68.407 9.555-96.099 6.75-12.356 29.747-16.217 37.304-17.485 48.287-8.105 80.215-13.379 126.146-19.394 75.854-9.933 269.042-7.577 306.498-5.845v186.997c-6.209.278-13.574.535-21.433.746-4.141.111-7.408 3.558-7.296 7.698.109 4.072 3.445 7.299 7.494 7.299.068 0 .137-.001.205-.003 11.259-.302 21.541-.699 28.954-1.117 3.972-.224 7.078-3.51 7.078-7.488v-201.059c0-3.472-2.384-6.49-5.761-7.295z"/><path d="m420.286 107.866c.137.007.272.011.407.011 3.958 0 7.269-3.1 7.483-7.1.221-4.136-2.953-7.669-7.089-7.89-27.968-1.494-81.929-13.432-82.471-13.552-4.041-.9-8.05 1.65-8.949 5.694s1.651 8.05 5.694 8.949c2.261.502 55.716 12.328 84.925 13.888z"/><path d="m50.206 160.773c20.536-7.279 29.415-19.295 33.248-28.094 1.654-3.797-.083-8.217-3.881-9.871s-8.217.083-9.872 3.881c-3.849 8.835-12.095 15.546-24.508 19.946-3.905 1.384-5.948 5.671-4.564 9.575 1.388 3.911 5.681 5.945 9.577 4.563z"/></g></g></svg>