<svg id="Capa_1" enable-background="new 0 0 512 512" height="512" viewBox="0 0 512 512" width="512" xmlns="http://www.w3.org/2000/svg"><g><g><g><g><g><g><g><circle cx="256" cy="256" fill="#ffbeaa" r="256"/></g></g></g></g></g></g><path d="m38.5 221.849 281.965 281.965c94.102-24.41 167.179-101.003 186.501-197.048l-84.138-84.917-166.777 5.724-65.447-65.447z" fill="#faa68e"/><g><path d="m38.5 221.849s171.491 158.82 341.73 0c0 0-153.477-17.357-341.73 0z" fill="#ff432e"/></g><g><path d="m380.229 221.849s-68.716-7.796-170.865-7.712v78.185c52.314 1.634 111.549-15.134 170.865-70.473z" fill="#db0404"/></g><g><path d="m250.702 150.105c-17.025 0-34.375 24.98-41.337 36.253-6.962-11.273-24.312-36.253-41.338-36.253-21.986 0-129.527 71.744-129.527 71.744h341.73s-107.542-71.744-129.528-71.744z" fill="#ff6c52"/></g><g><path d="m209.365 221.849h170.865s-107.541-71.744-129.527-71.744c-17.025 0-34.375 24.98-41.337 36.253v35.491z" fill="#ff432e"/></g><g><g><g><circle cx="346.094" cy="289.265" fill="#fff" r="80.995"/></g></g><g><g><path d="m346.094 208.271c-.274 0-.543.018-.817.021v161.948c.273.003.543.021.817.021 44.732 0 80.995-36.263 80.995-80.995s-36.263-80.995-80.995-80.995z" fill="#e9edf5"/></g></g><g><g><path d="m346.094 391.697c-56.481 0-102.432-45.951-102.432-102.431 0-56.481 45.951-102.431 102.432-102.431s102.431 45.951 102.431 102.431-45.95 102.431-102.431 102.431zm0-176.723c-40.965 0-74.292 33.327-74.292 74.292s33.327 74.292 74.292 74.292 74.292-33.327 74.292-74.292-33.327-74.292-74.292-74.292z" fill="#636978"/></g></g><g><g><path d="m346.094 186.834c-.273 0-.544.008-.817.01v28.15c.273-.003.543-.021.817-.021 40.965 0 74.292 33.327 74.292 74.292s-33.327 74.292-74.292 74.292c-.274 0-.543-.018-.817-.021v28.15c.272.002.544.01.817.01 56.481 0 102.431-45.95 102.431-102.431 0-56.48-45.95-102.431-102.431-102.431z" fill="#414952"/></g></g><g><g><path d="m381.396 298.466c-.035-8.785-7.167-15.882-15.944-15.882-.022 0-.044 0-.065 0-3.466.012-9.696-.404-12.302-3.361-2.252-2.556-2.251-7.306-2.064-8.905.275-1.686 2.265-16.463-12.065-18.838-16.909-2.804-19.425 13.784-19.425 13.784-.045.27-.129.824-.214 1.616l-3.564.051c-5.18.074-9.319 4.333-9.245 9.513.073 5.134 4.258 9.246 9.376 9.246.045 0 .091 0 .136-.001l5.046-.072c.94 3.103 2.293 6.315 4.217 9.447l-4.729 4.055c-3.933 3.372-4.387 9.294-1.015 13.226 1.855 2.164 4.482 3.274 7.125 3.274 2.161 0 4.333-.743 6.101-2.26l6.05-5.188c4.067 2.334 8.376 3.861 12.605 4.826l-.443 6.101c-.375 5.167 3.509 9.659 8.676 10.035.231.017.461.025.689.025 4.872 0 8.987-3.766 9.345-8.701l.486-6.693c6.525-2.021 11.252-8.114 11.223-15.298z" fill="#10b8e0"/></g><g><path d="m365.452 282.583c-.021 0-.043 0-.064 0-3.466.012-9.696-.404-12.302-3.361-2.252-2.556-2.251-7.306-2.064-8.905.225-1.378 1.59-11.501-5.745-16.45v57.307c2.043.755 4.103 1.356 6.145 1.822l-.443 6.101c-.375 5.167 3.509 9.66 8.676 10.035.231.017.461.025.689.025 4.872 0 8.987-3.766 9.345-8.701l.486-6.693c6.523-2.021 11.25-8.114 11.221-15.297-.035-8.785-7.167-15.883-15.944-15.883z" fill="#00a2db"/></g><g><circle cx="389.469" cy="251.479" fill="#00a2db" r="7.246"/></g><g><path d="m289.786 287.463c-2.768 0-5.013 2.244-5.013 5.013s2.244 5.013 5.013 5.013c2.768 0 5.013-2.244 5.013-5.013s-2.245-5.013-5.013-5.013z" fill="#10b8e0"/></g><g><circle cx="386.011" cy="329.462" fill="#00a2db" r="10.705"/></g><g><ellipse cx="318.482" cy="334.56" fill="#10b8e0" rx="10.705" ry="10.705" transform="matrix(.851 -.526 .526 .851 -128.324 217.403)"/></g><g><circle cx="334.998" cy="232.058" fill="#10b8e0" r="9.326"/></g></g></g></g></svg>