<svg id="Layer_1" enable-background="new 0 0 480 480" height="512" viewBox="0 0 480 480" width="512" xmlns="http://www.w3.org/2000/svg"><path d="m365 51c13.25 0 24 10.75 24 24v373c0 13.25-10.75 24-24 24h-250c-13.25 0-24-10.75-24-24v-373c0-13.25 10.75-24 24-24z" fill="#d6f4fc"/><path d="m364.937 91c-129.2 0-233.937 104.737-233.937 233.937v123c0 26.07-40 27.321-40 .063v-373c0-13.255 10.745-24 24-24h250c27.258 0 26.007 40-.063 40z" fill="#e8f8fc"/><path d="m397 75v373c0 17.645-14.355 32-32 32h-250c-17.645 0-32-14.355-32-32v-373c0-17.645 14.355-32 32-32h69.987c-.456-25.37-32.279-36.559-48.559-17.171-2.841 3.384-7.887 3.823-11.271.982-3.383-2.841-3.823-7.887-.982-11.271 8.293-9.876 20.439-15.54 33.325-15.54 23.986 0 43.5 19.514 43.5 43.5v53c0 14.061-11.439 25.5-25.5 25.5s-25.5-11.439-25.5-25.5v-14.5c0-4.418 3.582-8 8-8s8 3.582 8 8v14.5c0 5.238 4.262 9.5 9.5 9.5s9.5-4.262 9.5-9.5v-37.5h-70c-8.822 0-16 7.177-16 16v373c0 8.823 7.178 16 16 16h250c8.822 0 16-7.177 16-16v-373c0-8.823-7.178-16-16-16h-134.667c-4.418 0-8-3.582-8-8s3.582-8 8-8h134.667c17.645 0 32 14.355 32 32zm-65 120c4.418 0 8-3.582 8-8s-3.582-8-8-8h-26.833c-4.418 0-8 3.582-8 8s3.582 8 8 8zm-192-8c0 4.418 3.582 8 8 8h49.764l23.437 52.273c2.82 6.289 11.779 6.29 14.6 0l51.111-114c1.808-4.031.005-8.765-4.027-10.573-4.031-1.807-8.765-.004-10.572 4.027l-43.813 97.718-18.256-40.718c-1.29-2.876-4.148-4.727-7.3-4.727h-54.944c-4.418 0-8 3.582-8 8zm8 109c-4.418 0-8 3.582-8 8s3.582 8 8 8h72c4.418 0 8-3.582 8-8s-3.582-8-8-8zm192 60c0-4.418-3.582-8-8-8h-184c-4.418 0-8 3.582-8 8s3.582 8 8 8h184c4.418 0 8-3.582 8-8zm0 52c0-4.418-3.582-8-8-8h-9c-4.418 0-8 3.582-8 8s3.582 8 8 8h9c4.418 0 8-3.582 8-8zm-51.25 0c0-4.418-3.582-8-8-8h-132.75c-4.418 0-8 3.582-8 8s3.582 8 8 8h132.75c4.418 0 8-3.582 8-8z"/></svg>