<svg id="Capa_1" enable-background="new 0 0 512 512" height="512" viewBox="0 0 512 512" width="512" xmlns="http://www.w3.org/2000/svg"><g><g><g><g><circle cx="256" cy="256" fill="#a260e5" r="256"/></g></g></g><path d="m511.441 273.051-65.47-65.47-13.087 14.528-36.606-36.606-324.63 31.553-6.015 86.994 207.712 207.371c127.662-8.541 229.698-110.669 238.096-238.37z" fill="#7a3eb5"/><path d="m400.633 322.367h-48.008v-30h48.008c20.053 0 36.367-16.314 36.367-36.367s-16.314-36.367-36.367-36.367h-48.008v-30h48.008c36.595 0 66.367 29.772 66.367 66.367s-29.772 66.367-66.367 66.367z" fill="#e9edf5"/><path d="m159.375 322.367h-48.008c-36.595 0-66.367-29.772-66.367-66.367s29.772-66.367 66.367-66.367h48.008v30h-48.008c-20.053 0-36.367 16.314-36.367 36.367s16.314 36.367 36.367 36.367h48.008z" fill="#fff"/><path d="m396.276 185.5v141c-45.02 17.82-92.58 26.74-140.15 26.76-47.57-.02-95.14-8.94-140.16-26.76v-141c45.02-17.82 92.59-26.74 140.16-26.75 47.57.01 95.13 8.93 140.15 26.75z" fill="#b4f5f0"/><g fill="#64e1dc"><path d="m396.279 185.503c-45.02-17.825-92.588-26.743-140.158-26.758v194.51c47.57-.015 95.138-8.933 140.158-26.758 0-46.998 0-93.996 0-140.994z"/><path d="m167.85 208.459h176.304v30h-176.304z"/><path d="m167.85 273.541h176.304v30h-176.304z"/></g><path d="m256.122 208.459h88.032v30h-88.032z" fill="#1cadb5"/><path d="m256.122 273.541h88.032v30h-88.032z" fill="#1cadb5"/></g></svg>