<svg id="Layer_1" enable-background="new 0 0 512 512" height="512" viewBox="0 0 512 512" width="512" xmlns="http://www.w3.org/2000/svg"><g><g><path d="m223.68 377.877c-8.231-4.924-17.454-6.125-25.59-7.185l-108.076-14.074c-4.112-.541-7.871 2.362-8.406 6.469s2.361 7.871 6.468 8.406l108.076 14.074c7.015.913 14.269 1.857 19.826 5.182 8.04 4.811 12.666 14.471 17.464 25.668 1.634 3.813 6.049 5.569 9.848 3.939 3.808-1.632 5.571-6.041 3.939-9.848-4.509-10.522-10.685-24.933-23.549-32.631z"/><path d="m92.439 334.093c33.962-10.885 58.695-30.293 69.643-54.648 9.501-21.147 8.572-44.621 7.752-65.332l-1.546-38.917c14.423 17.791 36.312 28.305 59.332 28.305h62.16c20.348 0 39.538-8.053 53.68-22.063l-1.294 32.676c-.598 15.094-1.275 32.2 2.322 48.643.879 4.017 4.845 6.61 8.93 5.724 4.046-.886 6.609-4.884 5.724-8.931-3.187-14.563-2.549-30.649-1.987-44.844l2.146-54.175 17.164-25.66c16.759-25.054 28.284-52.582 34.363-81.935 3.94 1.159 7.986 1.765 12.113 1.765 36.233 0 35.148-35.068 38.373-44.853 1.596-4.845-2.016-9.848-7.124-9.848h-396.38c-5.101 0-8.722 4.997-7.123 9.848 3.096 9.391 2.076 44.852 38.373 44.852 4.471 0 8.844-.707 13.089-2.063 3.666 16.005 9.018 31.607 15.973 46.496 1.753 3.754 6.216 5.376 9.97 3.621 3.753-1.753 5.374-6.216 3.621-9.969-7.749-16.589-13.381-34.122-16.741-52.119-1.583-8.441-2.667-17.045-3.234-25.667h288.776c-.383 8.804-1.301 17.603-2.742 26.251-5.102 30.709-16.465 59.401-33.775 85.279-16.161 18.65-27.832 61.97-74.216 61.97h-62.16c-35.124 0-51.946-24.596-80.697-68.447-2.273-3.464-6.921-4.432-10.385-2.158-3.464 2.271-4.43 6.921-2.159 10.385 4.809 7.331 7.722 10.979 18.037 25.27l2.43 61.158c.754 19.058 1.609 40.659-6.446 58.588-5.317 11.829-20.252 33.602-60.541 46.514-26.111 8.378-55.212 11.312-82.481 19.358-3.19.94-5.379 3.869-5.379 7.193v158.14c0 4.143 3.358 7.5 7.5 7.5h25.672c4.142 0 7.5-3.357 7.5-7.5s-3.358-7.5-7.5-7.5h-18.172v-144.959c25.383-6.82 51.705-9.693 77.439-17.948zm6.809-296.329c-3.304 1.276-6.713 1.936-10.188 1.936-16.184 0-19.277-9.761-21.956-24.7h29.613c.47 7.628 1.316 15.244 2.531 22.764zm345.648-22.764c-2.679 14.939-5.772 24.7-21.956 24.7-3.236 0-6.416-.572-9.505-1.682 1.073-7.615 1.769-15.315 2.082-23.019h29.379z"/><path d="m506.623 339.167c-27.472-8.106-56.172-10.916-82.483-19.359-16.553-5.305-39.249-15.582-53.371-34.418-2.484-3.313-7.185-3.985-10.5-1.502-3.314 2.485-3.986 7.186-1.501 10.5 16.493 21.998 42.164 33.733 60.792 39.704 25.655 8.23 52.19 11.165 77.441 17.949v144.959h-433.131c-4.142 0-7.5 3.357-7.5 7.5s3.358 7.5 7.5 7.5h440.63c4.142 0 7.5-3.357 7.5-7.5v-158.14c0-3.324-2.189-6.253-5.377-7.193z"/><path d="m287.924 377.878c-12.863 7.697-19.04 22.108-23.549 32.631-1.632 3.807.132 8.216 3.939 9.848 3.806 1.632 8.216-.132 9.848-3.939 4.799-11.197 9.426-20.857 17.463-25.667 5.558-3.325 12.812-4.27 19.828-5.183l108.075-14.074c4.108-.535 7.004-4.299 6.469-8.406-.534-4.106-4.292-7.003-8.405-6.469l-108.076 14.074c-8.137 1.059-17.359 2.26-25.592 7.185z"/></g></g></svg>