<svg id="Capa_1" enable-background="new 0 0 512 512" height="512" viewBox="0 0 512 512" width="512" xmlns="http://www.w3.org/2000/svg"><g><g><g><g><g><g><g><circle cx="256" cy="256" fill="#a260e5" r="256"/></g></g></g></g></g></g><path d="m512 256c0-10.013-.575-19.892-1.694-29.606l-106.909-106.909-228.255-42.08-89.503 157.714 26.052 160.646 114.52 114.52c9.772 1.132 19.713 1.715 29.789 1.715 141.385 0 256-114.615 256-256z" fill="#7a3eb5"/><g><g><g><path d="m242.435 131.666h26.706v249.539h-26.706z" fill="#64e1dc"/></g></g><g><g><path d="m255.734 131.666h13.407v249.539h-13.407z" fill="#1cadb5"/></g></g><g><g><g><ellipse cx="256" cy="130.796" fill="#00c8c8" rx="20.882" ry="11.311"/></g></g><g><g><path d="m256 119.485c-.09 0-.176.007-.266.007v22.607c.089.001.176.007.266.007 11.533 0 20.882-5.064 20.882-11.311 0-6.246-9.349-11.31-20.882-11.31z" fill="#00a0aa"/></g></g><g><g><ellipse cx="256" cy="381.204" fill="#00c8c8" rx="20.882" ry="11.311"/></g></g><g><g><path d="m256 369.894c-.09 0-.176.007-.266.007v22.607c.089.001.176.007.266.007 11.533 0 20.882-5.064 20.882-11.311s-9.349-11.31-20.882-11.31z" fill="#00a0aa"/></g></g></g><g><g><path d="m130.796 242.435h249.539v26.706h-249.539z" fill="#64e1dc"/></g></g><g><g><path d="m255.734 242.435h124.6v26.706h-124.6z" fill="#1cadb5"/></g></g><g><g><g><ellipse cx="381.204" cy="256" fill="#00a0aa" rx="11.311" ry="20.882"/></g></g><g><g><ellipse cx="130.796" cy="256" fill="#00c8c8" rx="11.311" ry="20.882"/></g></g></g><g><g><path d="m130.773 242.805h249.539v26.706h-249.539z" fill="#64e1dc" transform="matrix(.707 -.707 .707 .707 -106.284 255.723)"/></g></g><g><g><g><ellipse cx="344.533" cy="167.467" fill="#00c8c8" rx="11.311" ry="20.882" transform="matrix(.707 -.707 .707 .707 -17.506 292.672)"/></g></g><g><g><ellipse cx="167.467" cy="344.533" fill="#00c8c8" rx="11.311" ry="20.882" transform="matrix(.707 -.707 .707 .707 -194.572 219.329)"/></g></g></g><g><g><path d="m242.489 130.773h26.706v249.539h-26.706z" fill="#64e1dc" transform="matrix(.707 -.707 .707 .707 -105.762 255.754)"/></g></g><g><g><path d="m353.509 334.326-97.775-97.775v37.768l78.891 78.891z" fill="#1cadb5"/></g></g><g><g><g><ellipse cx="344.533" cy="344.533" fill="#00a0aa" rx="20.882" ry="11.311" transform="matrix(.707 -.707 .707 .707 -142.71 344.533)"/></g></g><g><g><ellipse cx="167.467" cy="167.467" fill="#00c8c8" rx="20.882" ry="11.311" transform="matrix(.707 -.707 .707 .707 -69.367 167.467)"/></g></g></g><g><g><circle cx="256" cy="256" fill="#96ebe6" r="80.858"/></g></g><g><g><path d="m256 175.142c-.089 0-.177.006-.266.007v161.703c.089 0 .177.007.266.007 44.657 0 80.858-36.201 80.858-80.858 0-44.658-36.201-80.859-80.858-80.859z" fill="#00c8c8"/></g></g><g><g><g><circle cx="256" cy="203.881" fill="#00c8c8" r="14.519"/></g></g><g><g><path d="m256 189.362c-.09 0-.176.012-.266.013v29.012c.089.002.176.013.266.013 8.019 0 14.519-6.5 14.519-14.519s-6.5-14.519-14.519-14.519z" fill="#00a0aa"/></g></g><g><g><circle cx="256" cy="308.119" fill="#00c8c8" r="14.519"/></g></g><g><g><path d="m256 293.6c-.09 0-.176.012-.266.013v29.012c.089.002.176.013.266.013 8.019 0 14.519-6.5 14.519-14.519s-6.5-14.519-14.519-14.519z" fill="#00a0aa"/></g></g></g><g><g><g><circle cx="308.119" cy="256" fill="#00a0aa" r="14.519"/></g></g><g><g><circle cx="203.881" cy="256" fill="#00c8c8" r="14.519"/></g></g></g><g><g><circle cx="256" cy="256" fill="#00c8c8" r="14.519"/></g></g></g><g><path d="m256 55c-110.832 0-201 90.168-201 201s90.168 201 201 201 201-90.168 201-201-90.168-201-201-201zm-157 201c0-86.57 70.43-157 157-157 35.369 0 68.043 11.757 94.321 31.566l-219.755 219.755c-19.809-26.278-31.566-58.952-31.566-94.321zm157 157c-35.369 0-68.043-11.757-94.321-31.566l219.755-219.755c19.809 26.278 31.566 58.952 31.566 94.321 0 86.57-70.43 157-157 157z" fill="#ff6c52"/><path d="m256 55c-.089 0-.177.003-.266.003v44c.089 0 .177-.003.266-.003 35.369 0 68.043 11.757 94.321 31.566l-94.587 94.587v62.225l125.7-125.7c19.809 26.279 31.566 58.953 31.566 94.322 0 86.57-70.43 157-157 157-.089 0-.177-.003-.266-.003v44c.089 0 .177.003.266.003 110.832 0 201-90.168 201-201s-90.168-201-201-201z" fill="#ff432e"/></g></g></svg>