<svg id="Capa_1" enable-background="new 0 0 512 512" height="512" viewBox="0 0 512 512" width="512" xmlns="http://www.w3.org/2000/svg"><g><path d="m31 15h450v482h-450z" fill="#5b5555"/><path d="m256 15h225v482h-225z" fill="#463f3f"/><path d="m451 212v285h-390v-285c0-8.28 6.72-15 15-15h360c8.28 0 15 6.72 15 15z" fill="#edf5ff"/><path d="m451 212v285h-195v-300h180c8.28 0 15 6.72 15 15z" fill="#d5e8fe"/><path d="m301 317h30v60h-30z" fill="#8cd96b"/><path d="m316 317h15v60h-15z" fill="#5ab267"/><path d="m420.55 380.64-30 120h-149s-.03 0-.1 0l-30-120c.05-.01 52.27 0 104.55 0z" fill="#fabe2c"/><path d="m420.55 380.64-30 120h-74.55v-120z" fill="#ff9100"/><path d="m196 362h240v30h-240z" fill="#fed843"/><path d="m316 362h120v30h-120z" fill="#fabe2c"/><path d="m61 15h390v182h-390z" fill="#7ed8f6"/><path d="m256 15h195v182h-195z" fill="#6aa9ff"/><path d="m0 482h512v30h-512z" fill="#766e6e"/><path d="m256 482h256v30h-256z" fill="#5b5555"/><path d="m48 182h418v30h-418z" fill="#5b5555"/><path d="m256 182h210v30h-210z" fill="#463f3f"/><path d="m241 12h30v185h-30z" fill="#5b5555"/><path d="m256 12h15v185h-15z" fill="#463f3f"/><path d="m0 0h512v30h-512z" fill="#766e6e"/><path d="m256 0h256v30h-256z" fill="#5b5555"/><path d="m346 242c-11.52 0-22.03 4.35-30 11.5-7.97-7.15-18.48-11.5-30-11.5h-45v45c0 24.81 20.19 45 45 45h60c24.81 0 45-20.19 45-45v-45z" fill="#8cd96b"/><path d="m391 242v45c0 24.81-20.19 45-45 45h-30v-78.5c7.97-7.15 18.48-11.5 30-11.5z" fill="#5ab267"/></g></svg>