<svg id="Capa_1" enable-background="new 0 0 512 512" height="512" viewBox="0 0 512 512" width="512" xmlns="http://www.w3.org/2000/svg"><g><g><g><g><g><g><circle cx="256" cy="256" fill="#64e1dc" r="256"/></g></g></g></g></g><path d="m406.586 153.853-15.571 25.538-76.12-76.12-8.552 21.97-48.24-48.241-147.824 345.998 80.662 80.662c20.775 5.442 42.578 8.34 65.059 8.34 140.301 0 254.241-112.865 255.98-252.754z" fill="#00c8c8"/><g><path d="m201.97 153.852h204.616v269.145h-204.616z" fill="#fe6a16"/></g><g><path d="m110.279 103.271h204.616v319.726h-204.616z" fill="#fff"/></g><g><path d="m212.145 103.271h102.75v319.727h-102.75z" fill="#e9edf5"/></g><g><path d="m135.866 181.19h153.442v31.818h-153.442z" fill="#e9edf5"/></g><g><path d="m212.145 181.19h77.164v31.818h-77.164z" fill="#cdd2e1"/></g><g><path d="m332.792 189.66h50.996v31.818h-50.996z" fill="#fff"/></g><g><path d="m332.792 241.439h50.996v31.818h-50.996z" fill="#fff"/></g><g><path d="m332.792 293.217h50.996v31.818h-50.996z" fill="#fff"/></g><g><path d="m332.792 344.996h50.996v31.818h-50.996z" fill="#fff"/></g><g><path d="m135.866 300.006h153.442v31.818h-153.442z" fill="#e9edf5"/></g><g><path d="m212.145 300.006h77.164v31.818h-77.164z" fill="#cdd2e1"/></g><g><path d="m135.866 240.598h153.442v31.818h-153.442z" fill="#e9edf5"/></g><g><path d="m212.145 240.598h77.164v31.818h-77.164z" fill="#cdd2e1"/></g><g><path d="m163.176 358.048h98.823v64.95h-98.823z" fill="#e9edf5"/></g><g><path d="m212.145 358.047h49.854v64.95h-49.854z" fill="#cdd2e1"/></g><g><circle cx="212.587" cy="108.419" fill="#fe6a16" r="55.306"/></g><g><path d="m212.587 53.114c-.149 0-.295.01-.443.011v110.589c.148.001.294.011.443.011 30.544 0 55.306-24.761 55.306-55.305s-24.761-55.306-55.306-55.306z" fill="#f24500"/></g><g><path d="m248.462 123.905v-30.971h-20.389v-20.389h-30.971v20.389h-20.39v30.971h20.39v20.389h30.971v-20.389z" fill="#fff"/></g><g><path d="m248.462 92.934h-20.389v-20.39h-15.928v71.75h15.928v-20.389h20.389z" fill="#e9edf5"/></g></g></svg>