<svg id="Capa_1" enable-background="new 0 0 512 512" height="512" viewBox="0 0 512 512" width="512" xmlns="http://www.w3.org/2000/svg"><g><g><g><g><g><g><g><g><path d="m99.613 458.695c-60.592-46.817-99.613-120.199-99.613-202.695 0-141.385 114.615-256 256-256s256 114.615 256 256c0 82.494-39.019 155.875-99.609 202.693z" fill="#7584f2"/></g></g></g></g></g></g></g><path d="m512 256c0-1.213-.009-2.424-.026-3.633l-171.427-172.294-200.911 157.15 34.261 34.261-6.767 9.809-27.494-27.494-23.368 8.201-4.298 101.1 95.594 95.594 204.827-.002c60.589-46.817 99.609-120.198 99.609-202.692z" fill="#4855b7"/><g><path d="m150.776 346.811c-11.769-28.065-11.769-60.258 0-88.323l27.666 11.601c-8.677 20.693-8.677 44.429 0 65.121z" fill="#ff9500"/></g><g><path d="m361.224 346.811-27.666-11.601c8.677-20.693 8.677-44.429 0-65.121l27.666-11.601c11.769 28.065 11.769 60.257 0 88.323z" fill="#fe6a16"/></g><g><path d="m256 417.767c39.384 0 73.569-22.256 90.666-54.877l-33.309-7.323c-8.762-1.926-15.004-9.69-15.004-18.661v-64.481h-84.706v64.481c0 8.971-6.242 16.735-15.004 18.661l-33.309 7.323c17.097 32.621 51.282 54.877 90.666 54.877z" fill="#fe6a16"/></g><g><path d="m313.357 355.568c-8.762-1.926-15.004-9.69-15.004-18.661v-64.481h-42.427v145.34c.025 0 .05.001.075.001 39.384 0 73.569-22.256 90.666-54.877z" fill="#f24500"/></g><g><g><circle cx="165.079" cy="213.171" fill="#ffbeaa" r="35.022"/></g><g><circle cx="346.921" cy="213.171" fill="#faa68e" r="35.022"/></g></g><g><path d="m259.997 325.138h-7.994c-52.955 0-95.883-42.928-95.883-95.883v-54.423c0-52.955 42.928-95.883 95.883-95.883h7.994c52.955 0 95.883 42.928 95.883 95.883v54.423c0 52.955-42.928 95.883-95.883 95.883z" fill="#ffcdbe"/></g><g><path d="m259.997 78.949h-4.071v246.189h4.071c52.955 0 95.883-42.928 95.883-95.883v-54.423c0-52.955-42.928-95.883-95.883-95.883z" fill="#ffbeaa"/></g><g><path d="m221.466 148.885s65.158 60.981 147.258 64.286v-64.044c0-57.661-50.468-104.405-112.724-104.405-62.256 0-112.724 46.744-112.724 104.405v64.044s37.792-23.248 78.19-64.286z" fill="#555a66"/></g><g><path d="m368.724 149.127c0-57.661-50.468-104.405-112.724-104.405-.025 0-.049.001-.074.001v129.929c26.886 17.082 67.228 36.684 112.798 38.519z" fill="#333940"/></g><g><path d="m256 512c58.889 0 113.134-19.884 156.387-53.305l-4.719-53.368c-1.558-17.616-14.368-32.184-31.641-35.981l-50.25-11.047c-10.931 27.849-38.051 47.566-69.777 47.566s-58.847-19.717-69.777-47.566l-50.25 11.047c-17.273 3.797-30.083 18.365-31.64 35.981l-4.719 53.368c43.252 33.421 97.497 53.305 156.386 53.305z" fill="#ffce00"/></g><g><path d="m412.387 458.695-4.719-53.368c-1.558-17.616-14.368-32.184-31.641-35.981l-50.25-11.047c-10.931 27.849-38.051 47.566-69.777 47.566-.025 0-.05-.001-.075-.001v106.137c.025 0 .05.001.075.001 58.889-.002 113.134-19.886 156.387-53.307z" fill="#fdba12"/></g><g><path d="m256 418.895c-17.159 0-33.656-5.157-47.708-14.914-13.713-9.522-24.175-22.743-30.255-38.233-3.027-7.711.771-16.417 8.482-19.443 7.712-3.026 16.417.771 19.443 8.483 8.132 20.72 27.773 34.108 50.037 34.108s41.905-13.388 50.037-34.108c3.026-7.711 11.731-11.509 19.443-8.483 7.711 3.027 11.509 11.732 8.482 19.443-6.08 15.49-16.542 28.711-30.255 38.233-14.05 9.757-30.547 14.914-47.706 14.914z" fill="#fff"/></g><g><path d="m325.48 346.304c-7.712-3.026-16.417.771-19.443 8.483-8.132 20.72-27.773 34.108-50.037 34.108-.025 0-.05-.001-.075-.001v30c.025 0 .05.001.075.001 17.159 0 33.656-5.157 47.708-14.914 13.713-9.522 24.175-22.743 30.255-38.233 3.027-7.712-.771-16.417-8.483-19.444z" fill="#e9edf5"/></g><g><path d="m111.969 363.1c-16.109-38.417-16.109-82.484 0-120.902l27.666 11.601c-13.018 31.045-13.018 66.655 0 97.699z" fill="#ff9500"/></g><g><path d="m400.031 363.1-27.666-11.601c13.018-31.045 13.018-66.655 0-97.7l27.666-11.601c16.109 38.418 16.109 82.484 0 120.902z" fill="#fe6a16"/></g></g></svg>