<svg id="Capa_1" enable-background="new 0 0 512 512" height="512" viewBox="0 0 512 512" width="512" xmlns="http://www.w3.org/2000/svg"><g><g><g><g><g><g><g><circle cx="256" cy="256" fill="#ff6c52" r="256"/></g></g></g></g></g></g><g fill="#e50a0a"><path d="m509.748 290.104-233.783-233.783-115.016 235.301 198.58 198.58c79.877-35.362 138.277-110.388 150.219-200.098z"/><path d="m266.295 511.796c26.92-1.064 52.771-6.286 76.929-15.04l-161.171-161.171-26.504 31.547 56.891 56.891-15.579 18.34z"/></g><g><g><circle cx="196.861" cy="252.016" fill="#faa68e" r="53.464"/></g><g><circle cx="315.139" cy="252.016" fill="#f2927c" r="53.464"/></g></g><g><path d="m317.341 245.356c0 45.877-15.464 70.58-61.341 70.58s-83.067-24.703-83.067-70.58 37.19-198.466 83.067-198.466 61.341 152.589 61.341 198.466z" fill="#ffbeaa"/></g><g><path d="m339.067 245.355c0-45.836-37.125-198.192-82.947-198.459v269.037c45.821-.043 82.947-24.741 82.947-70.578z" fill="#faa68e"/></g><g><circle cx="310.985" cy="352.609" fill="#00c1bc" r="28.082"/></g><g><circle cx="215.266" cy="421.158" fill="#64e1dc" r="28.082"/></g><g><circle cx="166.329" cy="349.278" fill="#64e1dc" r="20.855"/></g><g><circle cx="350.972" cy="417.369" fill="#00c1bc" r="17.631"/></g></g></svg>