<svg id="Capa_1" enable-background="new 0 0 510 510" height="512" viewBox="0 0 510 510" width="512" xmlns="http://www.w3.org/2000/svg" xmlns:xlink="http://www.w3.org/1999/xlink"><linearGradient id="SVGID_1_" gradientUnits="userSpaceOnUse" x1="255" x2="255" y1="438.815" y2="512.495"><stop offset="0" stop-color="#9ae1d3"/><stop offset="1" stop-color="#80d1c1"/></linearGradient><linearGradient id="lg1"><stop offset="0" stop-color="#0b799d" stop-opacity="0"/><stop offset=".1739" stop-color="#117d9e" stop-opacity=".174"/><stop offset=".414" stop-color="#2389a0" stop-opacity=".414"/><stop offset=".6928" stop-color="#409ca3" stop-opacity=".693"/><stop offset=".9986" stop-color="#69b7a8" stop-opacity=".999"/><stop offset="1" stop-color="#69b7a8"/></linearGradient><linearGradient id="SVGID_2_" gradientUnits="userSpaceOnUse" x1="364.336" x2="213.67" xlink:href="#lg1" y1="484.868" y2="305.534"/><linearGradient id="SVGID_3_" gradientUnits="userSpaceOnUse" x1="414.476" x2="373.626" xlink:href="#lg1" y1="457.741" y2="363.339"/><linearGradient id="lg2"><stop offset="0" stop-color="#fce9cb"/><stop offset="1" stop-color="#ffbd95"/></linearGradient><linearGradient id="SVGID_4_" gradientUnits="userSpaceOnUse" x1="255" x2="255" xlink:href="#lg2" y1="353.333" y2="434.669"/><linearGradient id="lg3"><stop offset="0" stop-color="#f9dbb7" stop-opacity="0"/><stop offset=".0209" stop-color="#f7d2b0" stop-opacity=".021"/><stop offset=".1667" stop-color="#ea9b82" stop-opacity=".167"/><stop offset=".3134" stop-color="#df6c5a" stop-opacity=".313"/><stop offset=".4582" stop-color="#d5453a" stop-opacity=".458"/><stop offset=".6006" stop-color="#ce2720" stop-opacity=".601"/><stop offset=".7399" stop-color="#c9110e" stop-opacity=".74"/><stop offset=".8747" stop-color="#c60404" stop-opacity=".875"/><stop offset="1" stop-color="#c50000"/></linearGradient><linearGradient id="SVGID_5_" gradientUnits="userSpaceOnUse" x1="255" x2="255" xlink:href="#lg3" y1="347" y2="521"/><linearGradient id="SVGID_6_" gradientUnits="userSpaceOnUse" x1="255" x2="255" xlink:href="#lg3" y1="379" y2="489.037"/><linearGradient id="lg4"><stop offset="0" stop-color="#ff9690"/><stop offset="1" stop-color="#f9545b"/></linearGradient><linearGradient id="SVGID_7_" gradientUnits="userSpaceOnUse" x1="243.912" x2="262.412" xlink:href="#lg4" y1="400.486" y2="428.987"/><linearGradient id="SVGID_8_" gradientUnits="userSpaceOnUse" x1="247.843" x2="259.784" y1="406.543" y2="424.938"><stop offset="0" stop-color="#ff637b"/><stop offset="1" stop-color="#e63950"/></linearGradient><linearGradient id="SVGID_9_" gradientUnits="userSpaceOnUse" x1="119.783" x2="146.574" xlink:href="#lg2" y1="215.815" y2="242.606"/><linearGradient id="SVGID_10_" gradientUnits="userSpaceOnUse" x1="376.813" x2="403.605" xlink:href="#lg2" y1="215.815" y2="242.606"/><linearGradient id="SVGID_11_" gradientUnits="userSpaceOnUse" x1="191.69" x2="305.316" xlink:href="#lg2" y1="124.07" y2="303.52"/><linearGradient id="SVGID_12_" gradientUnits="userSpaceOnUse" x1="255" x2="255" y1="218.601" y2="385.917"><stop offset="0" stop-color="#faa68e" stop-opacity="0"/><stop offset="1" stop-color="#c9766e"/></linearGradient><linearGradient id="lg5"><stop offset="0" stop-color="#8a7889"/><stop offset="1" stop-color="#6e566e"/></linearGradient><linearGradient id="SVGID_13_" gradientUnits="userSpaceOnUse" x1="220.767" x2="322.639" xlink:href="#lg5" y1="113.057" y2="199.778"/><linearGradient id="SVGID_14_" gradientUnits="userSpaceOnUse" x1="195.211" x2="254.767" y1="72.648" y2="173.475"><stop offset="0" stop-color="#6e566e" stop-opacity="0"/><stop offset=".2944" stop-color="#674d66" stop-opacity=".294"/><stop offset="1" stop-color="#593b56"/></linearGradient><linearGradient id="SVGID_15_" gradientUnits="userSpaceOnUse" x1="255" x2="255" xlink:href="#lg4" y1="322.569" y2="352.395"/><linearGradient id="SVGID_16_" gradientTransform="matrix(.375 -.927 .927 .375 1303.223 -760.829)" gradientUnits="userSpaceOnUse" x1="-1316.393" x2="-1327.866" xlink:href="#lg5" y1="-677.529" y2="-656.709"/><linearGradient id="SVGID_17_" gradientTransform="matrix(-.375 -.927 -.927 .375 -934.335 -760.829)" gradientUnits="userSpaceOnUse" x1="-1369.285" x2="-1380.757" xlink:href="#lg5" y1="-808.354" y2="-787.534"/><linearGradient id="SVGID_18_" gradientUnits="userSpaceOnUse" x1="172.557" x2="88.903" xlink:href="#lg1" y1="504.63" y2="420.976"/><linearGradient id="SVGID_19_" gradientUnits="userSpaceOnUse" x1="189.124" x2="123.124" xlink:href="#lg1" y1="461.437" y2="374.687"/><linearGradient id="lg6"><stop offset="0" stop-color="#ffda2d"/><stop offset="1" stop-color="#fdbf00"/></linearGradient><linearGradient id="SVGID_20_" gradientUnits="userSpaceOnUse" x1="108.82" x2="156.046" xlink:href="#lg6" y1="385.342" y2="424.49"/><linearGradient id="SVGID_21_" gradientTransform="matrix(.819 .574 -.574 .819 51.408 417.737)" gradientUnits="userSpaceOnUse" x1=".161" x2="47.385" xlink:href="#lg6" y1="-119.729" y2="-80.583"/><linearGradient id="SVGID_22_" gradientTransform="matrix(.819 -.574 -.574 -.819 51.408 162.856)" gradientUnits="userSpaceOnUse" x1="-131.44" x2="-84.218" xlink:href="#lg6" y1="-307.416" y2="-268.272"/><linearGradient id="SVGID_23_" gradientTransform="matrix(-1 0 0 1 787.157 0)" gradientUnits="userSpaceOnUse" x1="385.977" x2="433.202" xlink:href="#lg6" y1="385.342" y2="424.49"/><linearGradient id="SVGID_24_" gradientTransform="matrix(-.819 .574 .574 .819 735.749 417.737)" gradientUnits="userSpaceOnUse" x1="227.091" x2="274.315" xlink:href="#lg6" y1="-278.846" y2="-239.7"/><linearGradient id="SVGID_25_" gradientUnits="userSpaceOnUse" x1="426.872" x2="342.262" xlink:href="#lg1" y1="504.263" y2="419.653"/><linearGradient id="SVGID_26_" gradientTransform="matrix(-.819 -.574 .574 -.819 735.749 162.856)" gradientUnits="userSpaceOnUse" x1="95.491" x2="142.713" xlink:href="#lg6" y1="-466.534" y2="-427.389"/><g><path d="m468.705 467.149c11.808 13.293 3.388 34.349-14.327 35.868-50.744 4.349-117.931 6.983-191.641 6.983-81.592 0-155.187-3.229-207.33-8.425-17.5-1.744-25.895-22.649-14.124-35.716.089-.098.177-.197.266-.295 52.399-58.217 128.356-94.813 212.854-94.813 83.59 0 158.764 35.772 211.121 92.874 1.07 1.166 2.13 2.34 3.181 3.524z" fill="url(#SVGID_1_)"/><path d="m468.59 495.99c-3.43 3.84-8.3 6.53-14.21 7.03-47.02 4.03-108.15 6.58-175.51 6.94l-75.7-75.69c-7.44-6.37-12.17-15.83-12.17-26.4v-30.07c20.39-4.62 41.61-7.05 63.4-7.05 37.76 0 73.8 7.3 106.79 20.56.59.23 1.18.47 1.76.72.7.28 1.39.56 2.08.86 38.49 16.13 72.71 40.43 100.49 70.74 1.07 1.16 2.13 2.34 3.19 3.52 7.86 8.86 6.75 21.16-.12 28.84z" fill="url(#SVGID_2_)"/><path d="m468.59 495.99c6.87-7.68 7.98-19.98.12-28.84-1.06-1.18-2.12-2.36-3.19-3.52-27.49-29.993-61.292-54.088-99.291-70.218-1.631.899-2.192 1.982-3.629 3.296-.007.007-.014.012-.021.019-.549.486-2.366 1.481-2.909.985-.307-.28-.629-.543-.964-.787-4.964-3.611-10.917-3.517-14.529 1.448-3.412 4.691-3.623 11.155.663 14.899l91.193 91.193c6.327-.458 12.447-.94 18.345-1.445 5.912-.5 10.782-3.19 14.212-7.03z" fill="url(#SVGID_3_)"/><path d="m284.259 442.607h-58.517c-19.187 0-34.741-15.554-34.741-34.741v-61.866h128v61.865c-.001 19.188-15.555 34.742-34.742 34.742z" fill="url(#SVGID_4_)"/><path d="m284.259 442.607h-58.517c-19.187 0-34.741-15.554-34.741-34.741v-61.866h128v61.865c-.001 19.188-15.555 34.742-34.742 34.742z" fill="url(#SVGID_5_)"/><g><circle cx="255" cy="417.569" fill="url(#SVGID_6_)" r="24.74"/><circle cx="255" cy="417.569" fill="url(#SVGID_7_)" r="19.608"/><circle cx="255" cy="417.569" fill="url(#SVGID_8_)" r="12.656"/></g><g><g><g><path d="m126.485 259.045c-15.55 0-28.156-12.606-28.156-28.156v-16.745c0-15.55 12.606-28.156 28.156-28.156 15.55 0 28.156 12.606 28.156 28.156v16.745c0 15.55-12.606 28.156-28.156 28.156z" fill="url(#SVGID_9_)"/><path d="m383.515 259.045c-15.55 0-28.156-12.606-28.156-28.156v-16.745c0-15.55 12.606-28.156 28.156-28.156 15.55 0 28.156 12.606 28.156 28.156v16.745c0 15.55-12.606 28.156-28.156 28.156z" fill="url(#SVGID_10_)"/></g><path d="m255 395.206c70.35 0 128.223-55.62 130.765-125.924 1.09-30.143 1.09-60.307 0-90.45-2.542-70.305-60.415-125.925-130.765-125.925-70.35 0-128.223 55.62-130.765 125.924-1.09 30.143-1.09 60.307 0 90.45 2.542 70.305 60.415 125.925 130.765 125.925z" fill="url(#SVGID_11_)"/><path d="m263.068 290.776h-16.136c-12.931 0-23.006-9.534-21.623-20.462l8.436-66.659h42.508l8.436 66.659c1.385 10.928-8.69 20.462-21.621 20.462z" fill="url(#SVGID_12_)"/><g><path d="m124.603 222.597 2.423-36.142c1.297-19.341 12.4-36.893 29.055-46.34 8.258-4.684 17.478-7.144 26.743-7.144h70.698c25.688 0 50.08-10.113 67.55-27.849l17.027 27.224c4.078 6.521 9.802 11.957 16.588 15.736 13.9 7.739 23.143 22.327 24.135 38.38l1.593 25.768c.298 4.822 4.315 8.749 8.971 8.749 3.876 0 7.061-2.752 7.716-6.656l11.548-68.824c3.31-19.727 4.131-39.555 2.521-59.042-2.403-29.081-30.967-50.453-59.795-45.409-36.916-33.367-87.446-47.426-136.064-38.346l-42.268 7.894c-38.32 7.157-67.71 39.855-68.888 78.201l-1.256 40.886c-.568 18.502.332 37.262 2.737 56.109l4.889 38.322c.436 3.419 3.147 5.873 6.497 5.873 3.913.001 7.307-3.315 7.58-7.39z" fill="url(#SVGID_13_)"/><path d="m351.377 41.048c-36.917-33.367-87.447-47.426-136.065-38.346l-42.268 7.894c-38.32 7.157-67.71 39.855-68.888 78.201l-1.256 40.886c-.568 18.502.332 37.262 2.737 56.109l4.889 38.322c.436 3.419 3.147 5.873 6.498 5.873 3.913 0 7.307-3.316 7.58-7.391l2.423-36.142c1.297-19.341 12.4-36.893 29.055-46.34 8.258-4.684 17.478-7.144 26.743-7.144h70.698c25.688 0 50.08-10.113 67.55-27.849-.002.002-10.846-44.905 30.304-64.073z" fill="url(#SVGID_14_)"/></g></g><path d="m219.03 350.993c.027.004.054.007.081.011 2.141.289 4.28-.467 5.828-1.973 8.445-8.216 18.782-13.057 29.953-13.057 11.312 0 21.766 4.956 30.268 13.357 1.517 1.499 3.618 2.266 5.737 2.019.011-.001.022-.003.034-.004 3.192-.373 4.71-5.54 2.582-8.802-.189-.29-.381-.579-.573-.865-9.436-14.013-22.983-22.792-38.047-22.792-15.228 0-28.917 8.981-38.36 23.268-.016.024-.032.048-.048.072-2.122 3.208-.609 8.339 2.545 8.766z" fill="url(#SVGID_15_)"/><g><path d="m214.878 206.49c-.008.02-.016.039-.024.059-4.314 10.45-15.931 23.103-46.769 24.033-4.691.142-8.609-3.547-8.75-8.238-.14-4.692 3.547-8.609 8.238-8.75 12.004-.362 27.225-3.004 31.571-13.531 1.791-4.339 6.76-6.403 11.098-4.612 4.319 1.783 6.384 6.715 4.636 11.039z" fill="url(#SVGID_16_)"/><path d="m295.122 206.49c.008.02.016.039.024.059 4.314 10.45 15.931 23.103 46.769 24.033 4.691.142 8.609-3.547 8.75-8.238.14-4.692-3.547-8.609-8.238-8.75-12.004-.362-27.225-3.004-31.571-13.531-1.791-4.339-6.76-6.403-11.098-4.612-4.319 1.783-6.384 6.715-4.636 11.039z" fill="url(#SVGID_17_)"/></g></g><path d="m158.067 439.199c-1.708-2.278-4.285-2.904-7.325-3.339-.046-.006-.093-.013-.14-.02-12.208-1.583-22.433 5.265-25.129 17.273-.005.021-.01.042-.014.064-.161.726-1.834 2.196-2.578 2.107-12.231-1.599-22.475 5.289-25.147 17.334-.976 4.399-.192 8.76 3.192 11.298l22.669 22.669c31.789 1.679 67.305 2.798 105.08 3.222z" fill="url(#SVGID_18_)"/><path d="m195.679 509.252c21.509.489 43.962.748 67.058.748 5.258 0 10.479-.015 15.668-.042-29.392-29.385-111.506-111.476-111.582-111.585-1.823-2.623-9.565-6.06-14.529-2.449-.335.244-1.658 1.508-1.964 1.788-.543.496-2.36.501-2.909.015-.007-.007-.014-.012-.021-.019-1.588-1.453-2.322-3.636-4.143-4.582-14.6 6.155-28.574 13.496-41.82 21.883z" fill="url(#SVGID_19_)"/><g><g><g><path d="m149.367 419.358c-5.708.001-11.414-2.081-15.966-6.243-.006-.005-.012-.012-.018-.017-.549-.488-1.367-.482-1.911.014-9.103 8.327-22.833 8.327-31.937-.003-4.528-4.143-4.84-11.174-.696-15.703 4.144-4.528 11.173-4.842 15.703-.696.548.501 1.377.504 1.926-.001 9.103-8.325 22.831-8.325 31.933 0 .007.007.014.012.021.018.549.486 1.365.481 1.908-.015.307-.28.628-.543.964-.787 4.964-3.611 11.918-2.516 15.529 2.449 3.412 4.691 2.622 11.155-1.664 14.899-4.522 4.056-10.158 6.085-15.792 6.085z" fill="url(#SVGID_20_)"/></g><g><g><path d="m147.474 375.185c-10.954.001-20.538-7.504-23.002-18.477-.005-.022-.01-.042-.014-.063-.162-.726-.835-1.19-1.577-1.106-12.246 1.602-23.476-6.291-26.148-18.336-1.33-5.993 2.451-11.929 8.444-13.259 5.988-1.334 11.928 2.451 13.258 8.444.161.728.838 1.195 1.578 1.108 12.212-1.604 23.44 6.266 26.134 18.279.004.02.009.038.012.058.161.724.834 1.198 1.573 1.106 6.033-.788 11.582 3.418 12.443 9.449.868 6.077-3.351 11.706-9.427 12.575-.046.007-.1.014-.147.021-1.049.134-2.095.201-3.127.201z" fill="url(#SVGID_21_)"/></g><g><path d="m107.595 486.143c-.797 0-1.606-.086-2.417-.266-5.993-1.33-9.774-7.266-8.444-13.259 2.672-12.045 13.916-19.934 26.147-18.335.744.089 1.416-.38 1.577-1.106.004-.022.009-.043.014-.064 2.697-12.008 13.922-19.856 26.13-18.273.047.007.093.013.139.02 6.077.868 10.303 6.498 9.435 12.576-.862 6.037-6.427 10.235-12.456 9.448-.74-.101-1.4.389-1.561 1.107-.004.021-.009.041-.014.062-2.696 12.01-13.914 19.875-26.134 18.274-.729-.088-1.416.38-1.577 1.107-1.148 5.181-5.742 8.709-10.839 8.709z" fill="url(#SVGID_22_)"/></g></g></g><g><g><path d="m360.633 419.358c5.708.001 11.414-2.081 15.966-6.243.006-.005.012-.012.018-.017.549-.488 1.367-.482 1.911.014 9.104 8.327 22.833 8.327 31.937-.003 4.528-4.143 4.84-11.174.696-15.703-4.144-4.528-11.173-4.842-15.703-.696-.548.501-1.377.504-1.926-.001-9.103-8.325-22.831-8.325-31.933 0-.007.007-.014.012-.021.018-.549.486-1.365.481-1.908-.015-.307-.28-.628-.543-.964-.787-4.964-3.611-11.918-2.516-15.529 2.449-3.412 4.691-2.622 11.155 1.664 14.899 4.522 4.056 10.159 6.085 15.792 6.085z" fill="url(#SVGID_23_)"/></g><g><g><path d="m362.526 375.185c10.954.001 20.539-7.504 23.002-18.477.005-.022.01-.042.014-.063.162-.726.835-1.19 1.577-1.106 12.246 1.602 23.476-6.291 26.148-18.336 1.33-5.993-2.451-11.929-8.444-13.259-5.988-1.334-11.928 2.451-13.258 8.444-.161.728-.838 1.195-1.578 1.108-12.212-1.604-23.44 6.266-26.134 18.279-.004.02-.009.038-.012.058-.161.724-.834 1.198-1.573 1.106-6.033-.788-11.582 3.418-12.443 9.449-.868 6.077 3.351 11.706 9.427 12.575.046.007.1.014.147.021 1.049.134 2.095.201 3.127.201z" fill="url(#SVGID_24_)"/></g><path d="m407.977 462.143c-4.072-4.671-8.881-6.63-15.271-7.019-.207-.193-12.439-12.407-12.439-12.407-5.029-5.776-12.722-7.934-20.869-6.878-.047.007-.094.013-.14.02-6.077.868-9.303 5.498-8.434 11.575.433 3.029 1.049 5.593 3.314 7.299l51.641 51.643c15.472-.848 30.028-1.83 43.498-2.931z" fill="url(#SVGID_25_)"/><g><path d="m402.405 486.143c.797 0 1.606-.086 2.417-.266 5.993-1.33 9.774-7.266 8.444-13.259-2.672-12.045-13.916-19.934-26.147-18.335-.744.089-1.416-.38-1.577-1.106-.004-.022-.009-.043-.014-.064-2.697-12.008-13.922-19.856-26.13-18.273-.047.007-.093.013-.139.02-6.077.868-10.303 6.498-9.435 12.576.862 6.037 6.427 10.235 12.456 9.448.74-.101 1.4.389 1.561 1.107.004.021.009.041.014.062 2.696 12.01 13.914 19.875 26.134 18.274.729-.088 1.416.38 1.577 1.107 1.148 5.181 5.742 8.709 10.839 8.709z" fill="url(#SVGID_26_)"/></g></g></g></g></g></svg>