<svg id="Layer_1" enable-background="new 0 0 512 512" height="512" viewBox="0 0 512 512" width="512" xmlns="http://www.w3.org/2000/svg"><g><g><path d="m79.726 66.259c13.437 53.924 31.839 127.774 20.497 156.408-1.285 3.243-2.696 6.438-4.315 9.768-1.81 3.726-.258 8.213 3.468 10.024 3.75 1.823 8.225.234 10.024-3.467 1.759-3.62 3.363-7.253 4.769-10.799 13.116-33.112-5.184-106.551-19.888-165.56-4.622-18.546-8.738-35.066-11.188-47.633h345.812c-1.044 5.346-2.466 11.803-4.33 19.688-.953 4.031 1.542 8.072 5.573 9.025 4.024.951 8.071-1.542 9.024-5.573 3.1-13.109 5.029-22.496 6.071-29.542.67-4.524-2.839-8.598-7.419-8.598h-363.648c-4.565 0-8.091 4.058-7.419 8.597 2.042 13.812 7.105 34.132 12.969 57.662z"/><path d="m383.679 497h-38.468l13.48-23.017c2.094-3.574.893-8.169-2.682-10.262-3.573-2.093-8.168-.894-10.262 2.681l-17.919 30.598h-143.656l-17.92-30.598c-2.094-3.575-6.69-4.774-10.262-2.681-3.574 2.093-4.775 6.688-2.682 10.262l13.481 23.017h-110.047c-6.176-25.494-12.242-51.827-12.242-79.36 0-77.295 22.967-110.514 48.432-150.188 2.236-3.486 1.224-8.125-2.262-10.362s-8.127-1.225-10.363 2.262c-24.059 37.504-50.807 74.816-50.807 158.288 0 30.753 6.927 59.272 13.625 86.853l.432 1.776c.816 3.363 3.827 5.731 7.288 5.731h332.834c4.143 0 7.5-3.358 7.5-7.5s-3.358-7.5-7.5-7.5z"/><path d="m435.661 265.499c-9.161-14.148-17.814-27.512-23.884-42.83-11.333-28.615 7.366-103.689 19.739-153.368 1.001-4.019-1.445-8.089-5.465-9.09-4.017-1-8.089 1.445-9.09 5.465-16.988 68.204-31.234 131.956-19.13 162.518 6.616 16.699 15.661 30.669 25.238 45.458 21.843 33.734 44.43 68.618 44.43 143.989 0 27.533-6.066 53.866-12.242 79.36h-39.207c-4.143 0-7.5 3.358-7.5 7.5s3.357 7.5 7.5 7.5h45.104c3.461 0 6.472-2.368 7.288-5.731l.432-1.776c6.698-27.58 13.625-56.099 13.625-86.853.001-79.804-24.883-118.235-46.838-152.142z"/><path d="m256 298.5c4.143 0 7.5-3.358 7.5-7.5v-9.892c9.29-3.538 16-13.453 16-25.108s-6.71-21.57-16-25.108v-9.892c0-4.142-3.357-7.5-7.5-7.5s-7.5 3.358-7.5 7.5v9.892c-9.29 3.538-16 13.453-16 25.108s6.71 21.57 16 25.108v9.892c0 4.142 3.357 7.5 7.5 7.5zm0-54c4.607 0 8.5 5.267 8.5 11.5s-3.893 11.5-8.5 11.5-8.5-5.267-8.5-11.5 3.893-11.5 8.5-11.5z"/></g></g></svg>