<svg height="482pt" viewBox="-35 0 482 482.29348" width="482pt" xmlns="http://www.w3.org/2000/svg"><path d="m382.914062 302.90625-25.894531-160.027344h-321.648437l-25.863282 159.855469-.046874.171875c-3.527344 13.289062-5.3125 26.953125-5.3125 40.671875v.007813c0 33.660156 28.164062 60.949218 62.90625 60.949218h258.265624c34.742188 0 62.90625-27.289062 62.90625-60.949218v-.007813c0-13.71875-1.785156-27.382813-5.3125-40.671875zm0 0" fill="#4671c6"/><path d="m325.320312 408.535156h-258.265624c-36.890626 0-66.90625-29.136718-66.90625-64.953125 0-14.054687 1.832031-28.082031 5.441406-41.6875l25.835937-159.65625c.042969-.269531.113281-.535156.207031-.78125 5.496094-70.472656 64.90625-125.503906 135.765626-125.503906h57.765624c71.1875 0 130.820313 55.539063 135.835938 126.476563l25.828125 159.636718c3.582031 13.550782 5.398437 27.515625 5.398437 41.507813 0 35.824219-30.015624 64.960937-66.90625 64.960937zm-286.175781-263.917968-25.6875 158.753906c-.023437.132812-.046875.265625-.085937.390625-3.480469 13.113281-5.222656 26.449219-5.222656 39.816406 0 31.40625 26.425781 56.957031 58.910156 56.957031h258.261718c32.484376 0 58.910157-25.546875 58.910157-56.953125 0-13.371093-1.746094-26.707031-5.183594-39.652343-.03125-.125-.058594-.257813-.082031-.386719l-25.886719-160.007813c-.019531-.121094-.035156-.242187-.042969-.363281-4.636718-66.851563-60.804687-119.21875-127.867187-119.21875h-57.765625c-67.054688 0-123.222656 52.359375-127.871094 119.203125-.039062.523438-.171875 1.015625-.386719 1.460938zm0 0" fill="#3762cc"/><path d="m352.855469 478.296875h-308.234375c-12.882813 0-23.328125-10.445313-23.328125-23.328125 0-61.296875 49.691406-110.984375 110.984375-110.984375h132.921875c61.292969 0 110.984375 49.6875 110.984375 110.984375 0 12.882812-10.441406 23.328125-23.328125 23.328125zm0 0" fill="#6bdddd"/><path d="m197.796875 393.03125c-26.988281 0-52.355469-6.9375-74.4375-19.101562v21.757812c0 22.617188 18.335937 40.953125 40.953125 40.953125h63.882812c22.617188 0 40.953126-18.332031 40.953126-40.953125v-20.125c-21.351563 11.136719-45.605469 17.46875-71.351563 17.46875zm0 0" fill="#f9cfcf"/><path d="m225.164062 19.953125h-57.765624c-73.027344 0-132.222657 59.195313-132.222657 132.21875v33.640625h322.207031v-33.640625c0-73.019531-59.195312-132.21875-132.21875-132.21875zm0 0" fill="#4671c6"/><path d="m352.855469 482.292969h-308.234375c-15.066406 0-27.328125-12.257813-27.328125-27.324219 0-63.402344 51.582031-114.984375 114.984375-114.984375h132.921875c63.402343 0 114.984375 51.582031 114.984375 114.984375 0 15.066406-12.257813 27.324219-27.328125 27.324219zm-220.578125-134.308594c-58.992188 0-106.984375 47.992187-106.984375 106.984375 0 10.65625 8.671875 19.324219 19.328125 19.324219h308.238281c10.65625 0 19.328125-8.667969 19.328125-19.324219 0-58.992188-47.992188-106.984375-106.984375-106.984375zm0 0" fill="#3762cc"/><path d="m400.722656 305.527344c-1.90625 0-3.613281-1.34375-4-3.285156-1.527344-7.652344 1.960938-12.335938 4.761719-16.101563 2.394531-3.222656 4.125-5.554687 3.460937-9.660156-.671874-4.15625-3.011718-5.789063-6.246093-8.050781-3.746094-2.617188-8.40625-5.871094-9.628907-13.4375-1.222656-7.5625 2.175782-12.117188 4.902344-15.777344 2.359375-3.164063 4.0625-5.453125 3.390625-9.601563-.671875-4.152343-3.011719-5.785156-6.246093-8.046875-3.746094-2.613281-8.40625-5.867187-9.628907-13.433594-1.222656-7.5625 2.171875-12.117187 4.902344-15.78125 2.359375-3.160156 4.0625-5.449218 3.390625-9.597656-.359375-2.222656 1.148438-4.320312 3.375-4.679687 2.21875-.359375 4.320312 1.152343 4.679688 3.378906 1.222656 7.558594-2.171876 12.117187-4.902344 15.777344-2.359375 3.164062-4.0625 5.449219-3.390625 9.601562.671875 4.152344 3.011719 5.785157 6.246093 8.046875 3.746094 2.613282 8.40625 5.867188 9.628907 13.433594 1.226562 7.5625-2.171875 12.117188-4.902344 15.777344-2.355469 3.164062-4.0625 5.453125-3.390625 9.605468.675781 4.152344 3.015625 5.789063 6.25 8.046876 3.742188 2.617187 8.40625 5.875 9.628906 13.4375 1.214844 7.511718-2.214844 12.125-4.972656 15.832031-2.707031 3.640625-4.082031 5.726562-3.304688 9.636719.441407 2.210937-.992187 4.359374-3.203124 4.800781-.269532.050781-.539063.078125-.800782.078125zm0 0" fill="#ffea92"/><path d="m374.238281 138.757812c-2.007812 0-3.757812-1.480468-4.039062-3.527343-.679688-4.976563 1.746093-9.886719 4.09375-14.632813 1.804687-3.648437 3.847656-7.789062 3.179687-10.121094-.699218-2.4375-4.511718-4.796874-8.199218-7.074218-4.449219-2.753906-9.050782-5.597656-11.066407-10.089844-2.042969-4.554688-1.101562-9.925781-.191406-15.121094.710937-4.03125 1.511719-8.601562.191406-10.683594-1.335937-2.117187-5.636719-3.308593-9.796875-4.460937-5.0625-1.402344-10.300781-2.851563-13.507812-6.628906-3.222656-3.789063-3.808594-9.203125-4.371094-14.4375-.441406-4.082031-.941406-8.710938-2.800781-10.359375-1.683594-1.5-1.835938-4.078125-.335938-5.761719 1.496094-1.6875 4.070313-1.839844 5.757813-.339844 4.210937 3.746094 4.863281 9.761719 5.492187 15.582031.433594 4.007813.878907 8.152344 2.476563 10.03125 1.582031 1.867188 5.589844 2.976563 9.46875 4.050782 5.652344 1.566406 11.496094 3.1875 14.519531 7.964844 3 4.746093 1.957031 10.695312.945313 16.449218-.699219 3.984375-1.421876 8.101563-.402344 10.371094.992187 2.207031 4.507812 4.382812 7.910156 6.488281 5.007812 3.097657 10.1875 6.296875 11.753906 11.769531 1.535156 5.367188-1.132812 10.761719-3.710937 15.984376-1.800781 3.640624-3.664063 7.414062-3.320313 9.914062.304688 2.234375-1.257812 4.289062-3.492187 4.59375-.183594.027344-.371094.039062-.554688.039062zm0 0" fill="#ffea92"/><path d="m44.316406 185.8125c-.667968 5.828125-1.046875 11.742188-1.046875 17.75v34.941406c0 85.34375 69.183594 154.527344 154.527344 154.527344s154.527344-69.183594 154.527344-154.527344v-34.941406c0-6.007812-.378907-11.921875-1.046875-17.75zm0 0" fill="#f9cfcf"/><path d="m72.449219 327.90625c-23.515625 0-42.578125-19.0625-42.578125-42.578125s19.0625-42.578125 42.578125-42.578125 42.578125 19.0625 42.578125 42.578125-19.066406 42.578125-42.578125 42.578125zm0 0" fill="#f9cfcf"/><path d="m322.191406 327.90625c-23.515625 0-42.578125-19.0625-42.578125-42.578125s19.0625-42.578125 42.578125-42.578125 42.578125 19.0625 42.578125 42.578125-19.0625 42.578125-42.578125 42.578125zm0 0" fill="#f9cfcf"/><g fill="#3762cc"><path d="m108.171875 327.335938c-1.480469 0-2.898437-.824219-3.59375-2.242188-.972656-1.980469-.152344-4.378906 1.832031-5.351562l31.46875-15.410157-34.679687-17.667969c-1.964844-1.003906-2.75-3.414062-1.75-5.378906 1.003906-1.96875 3.417969-2.75 5.382812-1.75l41.8125 21.300782c1.351563.691406 2.195313 2.082031 2.183594 3.597656s-.878906 2.894531-2.238281 3.558594l-38.660156 18.933593c-.566407.277344-1.164063.410157-1.757813.410157zm0 0"/><path d="m283.929688 327.335938c-.589844 0-1.191407-.128907-1.757813-.410157l-38.660156-18.933593c-1.359375-.664063-2.226563-2.042969-2.238281-3.558594-.011719-1.515625.832031-2.90625 2.183593-3.597656l41.8125-21.300782c1.964844-1.003906 4.378907-.21875 5.382813 1.75 1 1.964844.21875 4.375-1.75 5.378906l-34.679688 17.667969 31.464844 15.410157c1.984375.972656 2.804688 3.371093 1.835938 5.351562-.695313 1.417969-2.117188 2.242188-3.59375 2.242188zm0 0"/><path d="m227.160156 369.050781c-2.210937 0-4-1.792969-4-4 0-9.070312-12.414062-16.738281-27.109375-16.738281-14.695312 0-27.105469 7.667969-27.105469 16.738281 0 2.207031-1.792968 4-4 4-2.207031 0-4-1.792969-4-4 0-13.871093 15.417969-24.738281 35.105469-24.738281s35.109375 10.867188 35.109375 24.738281c0 2.210938-1.792968 4-4 4zm0 0"/><path d="m197.796875 397.03125c-50.558594 0-98.304687-24.351562-128.128906-65.238281-24.332031-1.453125-43.796875-21.882813-43.796875-46.464844 0-12.472656 5.074218-24.460937 13.992187-33.210937-.390625-4.582032-.589843-9.148438-.589843-13.613282v-34.941406c0-5.863281.359374-11.988281 1.070312-18.203125.230469-2.023437 1.941406-3.546875 3.976562-3.546875h306.960938c2.035156 0 3.742188 1.527344 3.972656 3.546875.710938 6.207031 1.074219 12.332031 1.074219 18.203125v34.941406c0 4.808594-.222656 9.671875-.660156 14.488282 8.464843 8.734374 13.101562 20.140624 13.101562 32.335937 0 24.429687-18.628906 44.429687-42.773437 46.375-29.816406 40.941406-77.59375 65.328125-128.199219 65.328125zm-149.875-207.21875c-.433594 4.691406-.652344 9.304688-.652344 13.75v34.941406c0 4.84375.246094 9.820313.734375 14.800782.121094 1.265624-.363281 2.511718-1.308594 3.363281-8.152343 7.328125-12.828124 17.777343-12.828124 28.660156 0 20.921875 17.035156 38.214844 37.96875 38.542969 1.273437.023437 2.457031.644531 3.195312 1.683594 28.238281 39.746093 74.132812 63.476562 122.765625 63.476562 48.65625 0 94.5625-23.746094 122.796875-63.527344.71875-1.011718 1.867188-1.632812 3.105469-1.679687 20.789062-.808594 37.066406-17.71875 37.066406-38.5 0-10.636719-4.269531-20.558594-12.023437-27.929688-.898438-.855469-1.347657-2.078125-1.222657-3.308593.535157-5.167969.804688-10.410157.804688-15.582032v-34.945312c0-4.449219-.21875-9.058594-.652344-13.746094zm0 0"/></g><path d="m168.488281 126.886719c0 6.757812-5.480469 12.238281-12.242187 12.238281-6.757813 0-12.238282-5.480469-12.238282-12.238281 0-6.761719 5.480469-12.242188 12.238282-12.242188 6.761718 0 12.242187 5.480469 12.242187 12.242188zm0 0" fill="#ffea92"/><path d="m37.40625 401.347656c-.621094 0-1.25-.144531-1.835938-.449218-21.847656-11.335938-35.421874-33.296876-35.421874-57.3125 0-14.058594 1.832031-28.085938 5.445312-41.695313l25.832031-159.652344c.042969-.273437.113281-.535156.207031-.78125 5.496094-70.472656 64.90625-125.503906 135.765626-125.503906h57.765624c71.1875 0 130.820313 55.542969 135.835938 126.480469l25.828125 159.632812c3.582031 13.554688 5.398437 27.519532 5.398437 41.511719 0 22.507813-11.75 43.09375-31.433593 55.066406-1.859375 1.132813-4.277344.570313-5.449219-1.261719-12.503906-19.535156-31.308594-34.714843-52.949219-42.75-1.296875-.480468-2.25-1.597656-2.527343-2.953124-.277344-1.355469.167968-2.757813 1.171874-3.707032 7.253907-6.847656 13.835938-14.40625 19.558594-22.46875.71875-1.015625 1.863282-1.632812 3.105469-1.683594 20.785156-.808593 37.066406-17.71875 37.066406-38.496093 0-10.640625-4.269531-20.558594-12.023437-27.933594-.898438-.851563-1.347656-2.074219-1.222656-3.308594.53125-5.164062.800781-10.410156.800781-15.582031v-34.941406c0-4.453125-.21875-9.0625-.652344-13.75h-299.75c-.433594 4.691406-.652344 9.300781-.652344 13.75v34.941406c0 4.839844.246094 9.820312.734375 14.800781.121094 1.265625-.363281 2.511719-1.308594 3.363281-8.152343 7.328126-12.828124 17.777344-12.828124 28.660157 0 20.921875 17.035156 38.214843 37.96875 38.542969 1.273437.023437 2.457031.644531 3.195312 1.683593 5.871094 8.261719 12.613281 15.972657 20.042969 22.921875 1.007812.941406 1.457031 2.332032 1.195312 3.683594s-1.203125 2.472656-2.488281 2.96875c-21.910156 8.453125-40.714844 24.183594-52.957031 44.296875-.75 1.234375-2.0625 1.925781-3.417969 1.925781zm1.738281-256.734375-25.6875 158.757813c-.023437.136718-.050781.273437-.085937.40625-3.476563 13.097656-5.222656 26.4375-5.222656 39.800781 0 19.828125 10.601562 38.070313 27.90625 48.429687 12.027343-18.328124 29.222656-32.996093 49.160156-41.964843-5.632813-5.691407-10.839844-11.804688-15.542969-18.25-24.332031-1.453125-43.796875-21.882813-43.796875-46.464844 0-12.476563 5.074219-24.464844 13.992188-33.210937-.390626-4.582032-.589844-9.148438-.589844-13.613282v-34.941406c0-5.867188.359375-11.992188 1.070312-18.203125.230469-2.023437 1.941406-3.546875 3.976563-3.546875h306.957031c2.035156 0 3.742188 1.527344 3.972656 3.546875.710938 6.207031 1.074219 12.332031 1.074219 18.203125v34.941406c0 4.808594-.222656 9.671875-.660156 14.488282 8.464843 8.734374 13.101562 20.140624 13.101562 32.335937 0 24.429687-18.628906 44.429687-42.773437 46.375-4.550782 6.25-9.59375 12.199219-15.046875 17.761719 19.59375 8.535156 36.691406 22.59375 48.898437 40.253906 15.335938-10.714844 24.378906-27.699219 24.378906-46.132812 0-13.367188-1.742187-26.707032-5.183593-39.652344-.03125-.128906-.058594-.257813-.082031-.386719l-25.886719-160.007813c-.019531-.121093-.035157-.242187-.042969-.363281-4.636719-66.851562-60.804688-119.21875-127.867188-119.21875h-57.765624c-67.054688 0-123.222657 52.359375-127.871094 119.203125-.035156.515625-.167969 1.007813-.382813 1.453125zm0 0" fill="#3762cc"/><path d="m316.335938 262.214844h-37.019532c-45.914062 0-83.132812-37.21875-83.132812-83.128906v-11.164063h161.195312v53.246094c.003906 22.667969-18.375 41.046875-41.042968 41.046875zm0 0" fill="#4671c6"/><path d="m152.585938 262.214844h-76.289063c-22.707031 0-41.121094-18.410156-41.121094-41.121094v-53.171875h200.6875v11.011719c0 45.996094-37.285156 83.28125-83.277343 83.28125zm0 0" fill="#4671c6"/><path d="m174.117188 30.457031c-12.09375.777344-22.089844 9.765625-23.417969 21.097657-.460938 3.9375.101562 7.707031 1.464843 11.109374.242188.597657 0 1.261719-.59375 1.574219-.003906.003907-.011718.007813-.015624.011719-.425782.222656-.933594.210938-1.347657-.019531-3.910156-2.167969-8.484375-3.382813-13.375-3.289063-13.664062.257813-24.847656 11.007813-24.835937 23.867188 0 3.960937 1.035156 7.691406 2.855468 10.980468.492188.882813-.09375 1.9375-1.148437 2.066407-12.414063 1.546875-21.996094 11.539062-21.996094 23.644531 0 8.253906 4.457031 15.53125 11.230469 19.8125v2.359375c-6.773438 4.285156-11.230469 11.558594-11.230469 19.816406 0 13.175781 11.355469 23.855469 25.359375 23.855469h.03125c1.179688-.003906 1.917969 1.175781 1.3125 2.128906-2.6875 4.25-4.019531 9.351563-3.410156 14.773438 1.273438 11.363281 11.238281 20.390625 23.351562 21.203125 6.863282.460937 13.195313-1.652344 18.019532-5.414063.878906-.6875 2.222656-.207031 2.410156.851563 2.003906 11.289062 12.441406 19.894531 25.007812 19.894531 4.503907 0 8.730469-1.109375 12.394532-3.046875v-197.792969c-4.953125-6.207031-13.050782-10.066406-22.066406-9.484375zm0 0" fill="#f9a7a7"/><path d="m218.257812 30.457031c12.089844.777344 22.085938 9.765625 23.417969 21.097657.460938 3.9375-.101562 7.707031-1.46875 11.109374-.238281.597657.003907 1.261719.597657 1.574219.003906.003907.011718.007813.015624.011719.421876.222656.929688.210938 1.347657-.019531 3.90625-2.167969 8.484375-3.382813 13.371093-3.289063 13.667969.257813 24.851563 11.007813 24.839844 23.867188-.003906 3.960937-1.035156 7.691406-2.855468 10.980468-.492188.882813.089843 1.9375 1.144531 2.066407 12.417969 1.546875 22 11.539062 22 23.644531 0 8.253906-4.457031 15.53125-11.230469 19.8125v2.359375c6.773438 4.285156 11.230469 11.558594 11.230469 19.816406 0 13.175781-11.355469 23.855469-25.359375 23.855469-.011719 0-.023438 0-.03125 0-1.179688-.003906-1.917969 1.175781-1.316406 2.128906 2.691406 4.25 4.023437 9.351563 3.414062 14.773438-1.273438 11.363281-11.238281 20.390625-23.351562 21.203125-6.863282.460937-13.195313-1.652344-18.023438-5.414063-.878906-.6875-2.21875-.207031-2.40625.851563-2.007812 11.289062-12.441406 19.894531-25.011719 19.894531-4.503906 0-8.730469-1.109375-12.394531-3.046875v-197.792969c4.957031-6.207031 13.050781-10.066406 22.070312-9.484375zm0 0" fill="#f9a7a7"/><path d="m227.109375 74.351562c-1.894531 0-3.816406-.28125-5.707031-.875-4.789063-1.507812-8.617188-4.734374-10.78125-9.082031-2.050782-4.121093-2.332032-8.769531-.792969-13.089843.742187-2.082032 3.027344-3.167969 5.109375-2.425782 2.082031.738282 3.167969 3.027344 2.425781 5.109375-.804687 2.253907-.65625 4.683594.417969 6.84375 1.183594 2.382813 3.324219 4.164063 6.027344 5.015625 5.445312 1.710938 11.324218-.976562 13.117187-6.003906.738281-2.082031 3.027344-3.171875 5.109375-2.425781 2.082032.738281 3.164063 3.027343 2.425782 5.109375-2.570313 7.234375-9.726563 11.824218-17.351563 11.824218zm0 0" fill="#3762cc"/><path d="m185.066406 184.644531c-.019531.003907-.042968 0-.0625 0-9.027344 0-16.386718-6.792969-16.414062-15.160156-.011719-4.011719 1.652344-7.804687 4.683594-10.679687 3.101562-2.933594 7.25-4.558594 11.679687-4.570313 2.210937-.003906 3.996094-1.800781 3.988281-4.011719-.003906-2.207031-1.792968-3.988281-4-3.988281-.003906 0-.003906 0-.007812 0-6.476563.019531-12.570313 2.421875-17.15625 6.761719-4.65625 4.40625-7.207032 10.269531-7.1875 16.515625.042968 12.773437 10.984375 23.132812 24.414062 23.132812h.078125c2.207031-.007812 3.996094-1.804687 3.988281-4.011719-.007812-2.207031-1.800781-3.988281-4.003906-3.988281zm0 0" fill="#3762cc"/><path d="m294.609375 142.496094c6.355469-5.257813 10.054687-12.871094 10.054687-20.996094 0-12.828125-9.300781-23.914062-22.128906-27 1.210938-3.089844 1.839844-6.378906 1.84375-9.6875.011719-15.070312-12.890625-27.570312-28.761718-27.875-3.449219-.082031-6.875.445312-10.109376 1.496094.382813-2.402344.429688-4.859375.140626-7.34375-1.542969-13.144532-13.207032-23.730469-27.136719-24.625-8.371094-.535156-16.40625 2.320312-22.328125 7.707031-5.921875-5.390625-13.964844-8.246094-22.324219-7.707031-13.929687.894531-25.59375 11.480468-27.132813 24.625-.292968 2.488281-.246093 4.945312.136719 7.347656-3.234375-1.050781-6.652343-1.566406-10.109375-1.496094-15.871094.300782-28.773437 12.800782-28.761718 27.871094.003906 3.308594.632812 6.601562 1.84375 9.691406-12.832032 3.085938-22.128907 14.167969-22.128907 27 0 8.125 3.703125 15.738282 10.054688 20.992188-6.355469 5.257812-10.054688 12.875-10.054688 20.996094 0 14.054687 11.03125 25.714843 25.335938 27.589843-1.851563 4.265625-2.546875 8.902344-2.019531 13.617188 1.476562 13.171875 13.109374 23.808593 27.058593 24.746093 6.289063.425782 12.445313-1.042968 17.6875-4.160156 3.773438 11.496094 14.988281 19.503906 28.019531 19.503906 4.285157 0 8.53125-.902343 12.398438-2.613281 3.867188 1.710938 8.109375 2.613281 12.394531 2.613281 13.03125 0 24.25-8.003906 28.019531-19.503906 5.25 3.121094 11.414063 4.59375 17.691407 4.160156 13.949219-.9375 25.578125-11.574218 27.054687-24.746093.527344-4.710938-.164062-9.347657-2.015625-13.613281 14.289063-1.867188 25.335938-13.53125 25.335938-27.59375-.003907-8.125-3.703125-15.742188-10.058594-20.996094zm-131.886719 77.695312c-.335937-1.875-1.609375-3.410156-3.414062-4.101562-.640625-.25-1.316406-.371094-1.988282-.371094-1.21875 0-2.425781.398438-3.40625 1.160156-4.269531 3.328125-9.710937 4.945313-15.296874 4.582032-10.144532-.683594-18.589844-8.277344-19.644532-17.660157-.367187-3.269531.113282-6.492187 1.386719-9.460937 3.804687-7.71875 13.636719-11.058594 21.917969-7.449219 4.074218 1.777344 7.117187 4.933594 8.558594 8.886719 1.347656 3.675781 1.128906 7.644531-.613282 11.183594-.976562 1.980468-.160156 4.375 1.820313 5.355468.570312.28125 1.171875.410156 1.765625.410156 1.476562 0 2.894531-.816406 3.589844-2.230468 2.71875-5.515625 3.054687-11.71875.953124-17.46875-2.203124-6.023438-6.777343-10.804688-12.875-13.464844-9.183593-4.007812-19.699218-2.089844-26.734374 4.050781-.535157-.164062-1.085938-.269531-1.667969-.269531 0 0-.003907 0-.007813 0-11.78125 0-21.359375-8.90625-21.359375-19.855469 0-6.542969 3.46875-12.652343 9.273438-16.367187 3.414062 1.605468 7.113281 2.410156 10.804687 2.410156 7.167969 0 14.28125-2.964844 19.082032-8.652344 3.742187-4.433594 5.585937-9.894531 5.324218-15.519531.035156-.222656.058594-.449219.054688-.679687-.089844-3.839844 1.375-7.535157 4.125-10.410157 3.070312-3.203125 7.304687-5.019531 11.921875-5.113281.125-.003906.246093-.003906.371093-.003906 8.886719 0 16.210938 6.605468 16.402344 14.878906.046875 2.207031 1.886719 4.042969 4.089844 3.90625 2.207031-.050781 3.957031-1.878906 3.90625-4.089844-.292969-12.789062-11.484375-22.890625-24.929688-22.695312-6.757812.140625-12.984374 2.832031-17.535156 7.582031-1.175781 1.226563-2.179687 2.5625-3.039062 3.964844-1.308594-1.703125-2.851563-3.253907-4.644532-4.59375-1.765624-1.320313-4.273437-.957031-5.597656.808593-1.320312 1.769532-.960937 4.28125.808594 5.601563 3.417969 2.554687 5.558594 6.1875 6.023438 10.230469.453124 3.945312-.753907 7.839844-3.394532 10.964844-5.660156 6.703124-16.082031 7.8125-23.230468 2.46875-.179688-.132813-.367188-.234376-.5625-.335938-5.792969-3.710938-9.257813-9.8125-9.257813-16.351562 0-9.902344 7.953125-18.363282 18.492187-19.675782 1.835938-.226562 3.421876-1.332031 4.25-2.949218.804688-1.585938.769532-3.464844-.097656-5.027344-1.558594-2.820313-2.351562-5.863282-2.355468-9.046875-.007813-10.734375 9.375-19.644531 20.914062-19.867188 4.03125-.09375 7.933594.890625 11.363281 2.792969 1 .558594 2.121094.734375 3.21875.609375 3.460938 3.765625 8.484375 6.011719 13.773438 6.011719 1.894531 0 3.816406-.28125 5.703125-.875 4.792968-1.507813 8.621094-4.734375 10.785156-9.082032 2.050781-4.121093 2.332031-8.769531.792969-13.089843-.742188-2.082031-3.03125-3.171875-5.109375-2.425781-2.082032.738281-3.167969 3.027343-2.425782 5.109374.804688 2.253907.65625 4.683594-.417968 6.84375-1.183594 2.382813-3.324219 4.164063-6.023438 5.015626-5.445312 1.707031-11.328125-.976563-13.121094-6.003907-.007812-.023437-.023437-.042969-.03125-.070312-.78125-2.496094-1.054687-5.09375-.742187-7.75 1.097656-9.367188 9.570313-16.921875 19.703125-17.570313 6.863281-.449218 13.417969 2.140625 17.8125 6.960938v193.773437c-2.644531 1.050781-5.503906 1.601563-8.394531 1.601563-10.503907.007812-19.363281-6.972656-21.070313-16.585938zm112.5625-36.847656c-.003906 0-.007812 0-.011718 0-.570313 0-1.117188.105469-1.648438.269531-7.03125-6.136719-17.542969-8.050781-26.730469-4.050781-6.097656 2.660156-10.667969 7.441406-12.875 13.464844-2.101562 5.75-1.765625 11.957031.953125 17.46875.695313 1.414062 2.117188 2.234375 3.589844 2.230468.59375 0 1.195312-.132812 1.765625-.410156 1.984375-.976562 2.796875-3.375 1.820313-5.355468-1.742188-3.539063-1.960938-7.507813-.613282-11.183594 1.445313-3.953125 4.484375-7.109375 8.558594-8.886719 8.28125-3.609375 18.113281-.269531 21.917969 7.449219h.003906c1.269531 2.972656 1.75 6.191406 1.382813 9.460937-1.050782 9.382813-9.496094 16.976563-19.644532 17.660157-5.578125.371093-11.023437-1.25-15.300781-4.585938-1.515625-1.179688-3.582031-1.480469-5.390625-.789062-1.804688.695312-3.078125 2.230468-3.410156 4.105468-1.707032 9.613282-10.570313 16.589844-21.070313 16.589844-2.890625 0-5.753906-.546875-8.394531-1.601562v-193.769532c4.394531-4.816406 10.960938-7.414062 17.8125-6.960937 10.132812.648437 18.601562 8.207031 19.699219 17.574219.371093 3.152343-.035157 6.230468-1.203125 9.148437-1 2.484375.027344 5.300781 2.390625 6.578125.019531.011719.042969.027344.0625.035156 1.617187.859375 3.542969.832032 5.15625-.054687 3.421875-1.902344 7.355469-2.90625 11.355469-2.789063 11.542968.214844 20.921874 9.128906 20.914062 19.863282 0 3.1875-.792969 6.230468-2.355469 9.046874-.863281 1.5625-.898437 3.445313-.09375 5.027344.824219 1.617188 2.410157 2.71875 4.246094 2.949219 10.539063 1.3125 18.492187 9.769531 18.492187 19.675781 0 6.542969-3.464843 12.644532-9.265624 16.359375-.191407.097657-.378907.199219-.554688.332031-7.148438 5.34375-17.570312 4.230469-23.230469-2.472656-2.636719-3.125-3.84375-7.019531-3.390625-10.964844.460938-4.042968 2.601563-7.675781 6.019532-10.230468 1.769531-1.320313 2.132812-3.828125.8125-5.601563-1.324219-1.769531-3.832032-2.125-5.601563-.808593-1.789063 1.339843-3.335937 2.890624-4.640625 4.59375-.859375-1.40625-1.867188-2.738282-3.039062-3.964844-4.550782-4.75-10.777344-7.441406-17.535157-7.582032-.179687 0-.359375-.003906-.535156-.003906-13.210937 0-24.105469 10.078125-24.398437 22.699219-.050782 2.207031 1.699218 4.039063 3.90625 4.089844 2.175781.136719 4.042968-1.699219 4.09375-3.90625.191406-8.386719 7.699218-15.128907 16.769531-14.875 4.617187.09375 8.851562 1.910156 11.917969 5.113281 2.75 2.875 4.21875 6.570312 4.128906 10.410156-.003906.230469.023437.453125.054687.671875-.265625 5.628907 1.582031 11.09375 5.320313 15.527344 4.800781 5.6875 11.914062 8.652344 19.085937 8.652344 3.6875 0 7.390625-.804688 10.800781-2.410157 5.808594 3.714844 9.277344 9.820313 9.277344 16.367188.003906 10.941406-9.574218 19.84375-21.375 19.84375zm0 0" fill="#3762cc"/><path d="m207.441406 146.234375c-2.183594-.003906-4.003906 1.777344-4.007812 3.988281-.007813 2.207032 1.777344 4.007813 3.988281 4.011719 4.429687.011719 8.578125 1.636719 11.675781 4.570313 3.035156 2.875 4.699219 6.667968 4.683594 10.679687-.027344 8.371094-7.382812 15.160156-16.410156 15.160156-.019532 0-.042969 0-.0625 0-2.207032 0-3.996094 1.78125-4 3.988281-.007813 2.207032 1.777344 4.003907 3.984375 4.011719h.078125c13.425781 0 24.371094-10.363281 24.414062-23.132812.019532-6.246094-2.53125-12.109375-7.183594-16.515625-4.589843-4.339844-10.683593-6.742188-17.160156-6.761719zm0 0" fill="#3762cc"/><path d="m125.496094 110.140625c-.171875.976563-.558594 1.925781-1.175782 2.78125-2.179687 3.011719-6.386718 3.691406-9.402343 1.511719l-30.773438-22.234375-1.816406 10.398437c-.398437 2.285156-1.949219 4.203125-4.09375 5.078125-2.148437.871094-4.597656.582031-6.476563-.773437l-39.585937-28.554688c-3.015625-2.175781-3.699219-6.375-1.523437-9.398437 2.175781-3.015625 6.382812-3.699219 9.398437-1.523438l30.867187 22.269531 1.816407-10.410156c.398437-2.289062 1.945312-4.207031 4.097656-5.078125 2.148437-.875 4.597656-.582031 6.476563.777344l39.5 28.539063c2.15625 1.558593 3.121093 4.160156 2.691406 6.617187zm0 0" fill="#ffea92"/><path d="m116.613281 141.429688c.570313.808593.96875 1.753906 1.136719 2.796874.589844 3.671876-1.90625 7.125-5.578125 7.714844l-37.484375 6.039063 6.070312 8.636719c1.332032 1.898437 1.59375 4.347656.695313 6.484374-.902344 2.136719-2.839844 3.660157-5.128906 4.035157l-48.179688 7.800781c-3.671875.59375-7.128906-1.894531-7.722656-5.570312-.59375-3.667969 1.898437-7.128907 5.566406-7.722657l37.570313-6.082031-6.074219-8.644531c-1.335937-1.898438-1.597656-4.351563-.695313-6.488281.902344-2.136719 2.839844-3.664063 5.132813-4.027344l48.109375-7.753906c2.628906-.421876 5.148438.742187 6.582031 2.78125zm0 0" fill="#ffea92"/><path d="m154.9375 96.28125c-.808594.566406-1.757812.964844-2.796875 1.132812-3.671875.59375-7.125-1.902343-7.714844-5.574218l-6.042969-37.484375-8.632812 6.066406c-1.898438 1.332031-4.347656 1.597656-6.488281.699219-2.136719-.902344-3.660157-2.839844-4.03125-5.128906l-7.800781-48.183594c-.59375-3.671875 1.894531-7.125 5.570312-7.7226565 3.667969-.5937495 7.125 1.9023435 7.722656 5.5703125l6.082032 37.570312 8.644531-6.078124c1.898437-1.332032 4.347656-1.59375 6.488281-.691407 2.136719.902344 3.660156 2.839844 4.027344 5.128907l7.75 48.113281c.425781 2.628906-.738282 5.148437-2.777344 6.582031zm0 0" fill="#ffea92"/><path d="m390.464844 450.847656c-.007813 0-.015625 0-.023438 0-2.253906-.011718-4.070312-1.851562-4.058594-4.101562.03125-5.066406 3.371094-9.667969 6.316407-13.730469 2.019531-2.78125 4.53125-6.242187 4.25-7.925781-.394531-2.375-4.195313-4.949219-7.546875-7.222656-3.941406-2.671876-8.019532-5.4375-9.566406-9.496094-1.761719-4.621094-.46875-10.042969.671874-14.828125.804688-3.375 1.804688-7.578125.867188-9.019531-1.339844-2.058594-5.917969-2.878907-9.957031-3.605469-4.648438-.835938-9.457031-1.699219-12.46875-4.714844-3.777344-3.789063-4.851563-9.566406-5.796875-14.664063-.527344-2.828124-1.320313-7.109374-2.402344-7.832031-1.875-1.25-2.378906-3.785156-1.125-5.65625 1.253906-1.875 3.789062-2.378906 5.660156-1.125 3.941406 2.636719 4.929688 7.96875 5.886719 13.125.730469 3.933594 1.558594 8.390625 3.554687 10.390625 1.199219 1.203125 5.042969 1.890625 8.128907 2.449219 5.671875 1.015625 12.097656 2.171875 15.359375 7.1875 2.84375 4.375 1.515625 9.957031.230468 15.355469-.867187 3.636718-1.847656 7.761718-.984374 10.035156.632812 1.65625 3.761718 3.777344 6.523437 5.648438 4.707031 3.191406 10.039063 6.808593 11.011719 12.636718.84375 5.054688-2.480469 9.632813-5.691406 14.0625-2.222657 3.066406-4.746094 6.542969-4.761719 8.984375-.011719 2.238281-1.835938 4.046875-4.078125 4.046875zm0 0" fill="#ffea92"/></svg>