<svg id="_x33_0" enable-background="new 0 0 64 64" height="512" viewBox="0 0 64 64" width="512" xmlns="http://www.w3.org/2000/svg"><g><g><g><path d="m10 38v1.98c0 .01 0 .03.01.04.61 1.21 1.85 1.98 3.2 1.98 1.13 0 2.19-.53 2.86-1.43l1.53-2.04c.25-.33.65-.53 1.07-.53.73 0 1.33.6 1.33 1.33 0 1.68-.39 3.26-1.07 4.67-.85 1.74-2.15 3.21-3.75 4.26-.89-1.36-2.43-2.26-4.18-2.26-.33 0-.66 0-1 0-2.21 0-4.2.9-5.65 2.34h-.01c-.72-.63-1.3-1.4-1.7-2.27-.41-.87-.64-1.85-.64-2.87 0-2.57 1.45-4.93 3.76-6.08l4.24-2.12z" fill="#e6e9ed"/></g><g><path d="m16 51v.15c0 1.07-.34 2.05-.93 2.85h1.93c3.77 0 6.83-2.96 6.98-6.69.02-.1.02-.21.02-.31v-3-6-6-1l.39-.23c2.89-1.73 4.92-4.6 5.59-7.9.01-.05.02-.1.03-.15l1.01-5.35c.15-.79.35-1.57.6-2.32h.01c1.77-5.33 5.97-9.59 11.38-11.39l3.14-1.04c1.22-.41 2.51-.62 3.8-.62 3.33 0 6.34 1.35 8.52 3.53s3.53 5.19 3.53 8.52v13.63c0 3.7-2.33 7-5.8 8.25-1.44-2.98-2.2-6.26-2.2-9.59v-.34c0 1.1.9 2 2 2h.09c1.06 0 1.91-.85 1.91-1.91v-.18c0-2.17-1.73-3.91-3.88-3.91-1.14 0-2.17.46-2.92 1.2-.74.75-1.2 1.78-1.2 2.92v.54c0 .23.02.45.06.68l1.28 7.71c.05.32.1.63.14.95h-1.48c-2.21 0-4.21.9-5.66 2.34-1.44 1.45-2.34 3.45-2.34 5.66 0 .66.16 1.28.44 1.83.33.25.63.52.92.81s.56.59.81.92c1.15 1.5 1.83 3.4 1.83 5.44 0 1.13-.21 2.22-.59 3.21l-2.05 3.15c-1.62 1.63-3.88 2.64-6.36 2.64h-.46c-4.66 0-8.88-2.62-10.97-6.7-2.46 4.03-6.91 6.7-11.95 6.7h-3.62c-2.21 0-4.21-.9-5.66-2.34-1.44-1.45-2.34-3.45-2.34-5.66s.9-4.21 2.34-5.66h.01c1.45-1.44 3.44-2.34 5.65-2.34h1c1.75 0 3.29.9 4.18 2.26.35.52.59 1.11.72 1.74.07.32.1.66.1 1z" fill="#e6e9ed"/></g><g><circle cx="39" cy="22" fill="#838f9b" r="4"/></g><g><path d="m54 26v.34c0 3.33.76 6.61 2.2 9.59.44.9.93 1.77 1.49 2.61l2.63 3.95c1.1 1.64 1.68 3.56 1.68 5.53 0 2.76-1.12 5.25-2.92 7.06-1.81 1.8-4.3 2.92-7.06 2.92h-.54c-1.63 0-3.24-.38-4.7-1.11l-1.37-.68c.38-.99.59-2.08.59-3.21 0-2.04-.68-3.94-1.83-5.44.27.14.82.25 1.37.32.56.08 1.13.12 1.46.12 1.38 0 2.63-.56 3.54-1.46.9-.91 1.46-2.16 1.46-3.54 0-2.34-.17-4.68-.52-7-.04-.32-.09-.63-.14-.95l-1.28-7.71c-.04-.23-.06-.45-.06-.68v-.54c0-1.14.46-2.17 1.2-2.92.75-.74 1.78-1.2 2.92-1.2 2.15 0 3.88 1.74 3.88 3.91v.18c0 1.06-.85 1.91-1.91 1.91h-.09c-1.1 0-2-.9-2-2z" fill="#e6e9ed"/></g><g><path d="m22 13v2c0 .55-.45 1-1 1h-1-6-1c-.55 0-1-.45-1-1v-2c0-.55.45-1 1-1h8c.55 0 1 .45 1 1z" fill="#4fc1e9"/></g><g><path d="m14 16h6v4h-6z" fill="#ccd1d9"/></g><g><path d="m20 20h-6c-2.35.59-4 2.7-4 5.12v14.86c0 .01 0 .03.01.04.61 1.21 1.85 1.98 3.2 1.98 1.13 0 2.19-.53 2.86-1.43l1.53-2.04c.25-.33.65-.53 1.07-.53.73 0 1.33.6 1.33 1.33 0 1.68-.39 3.26-1.07 4.67-.85 1.74-2.15 3.21-3.75 4.26.35.52.59 1.11.72 1.74h5.1c1.56 0 2.83-1.18 2.98-2.69.02-.1.02-22.19.02-22.19 0-2.42-1.65-4.53-4-5.12z" fill="#fcd770"/></g><g><path d="m31 15c.21 0 .41.02.62.05-.25.75-.45 1.53-.6 2.32l-1.01 5.35c-.01.05-.02.1-.03.15-1.72-.45-2.98-2.01-2.98-3.87 0-2.21 1.79-4 4-4z" fill="#838f9b"/></g></g><g><path d="m39 17c-2.757 0-5 2.243-5 5s2.243 5 5 5 5-2.243 5-5-2.243-5-5-5zm2.992 4.919c-1.712-.272-3.234-1.225-4.225-2.647.377-.171.792-.272 1.233-.272 1.627 0 2.948 1.303 2.992 2.919zm-2.992 3.081c-1.654 0-3-1.346-3-3 0-.481.124-.929.326-1.333 1.238 1.638 3.024 2.757 5.039 3.156-.549.711-1.4 1.177-2.365 1.177z"/><path d="m63 27.675v-13.63c0-7.193-5.852-13.045-13.045-13.045-1.405 0-2.794.225-4.126.669l-3.131 1.043c-5.462 1.821-9.743 6.012-11.747 11.292-2.734.028-4.951 2.256-4.951 4.996 0 1.929 1.113 3.646 2.792 4.475-.636 2.238-1.965 4.216-3.792 5.649v-4.001c0-2.619-1.61-4.924-4-5.853v-2.27c1.103 0 2-.897 2-2v-2c0-1.103-.897-2-2-2h-8c-1.103 0-2 .897-2 2v2c0 1.103.897 2 2 2v2.271c-2.39.928-4 3.233-4 5.853v9.259l-3.689 1.845c-2.66 1.328-4.311 4.001-4.311 6.973 0 1.924.716 3.762 1.98 5.182-1.236 1.541-1.98 3.493-1.98 5.617 0 4.963 4.037 9 9 9h3.622c4.841 0 9.142-2.292 11.887-5.861 2.459 3.648 6.554 5.861 11.035 5.861h.457c3.869-.001 7.225-2.215 8.887-5.438l.444.222c1.59.795 3.371 1.216 5.15 1.216h.539c6.054 0 10.979-4.925 10.979-10.979 0-2.175-.638-4.281-1.844-6.09l-2.629-3.944c-.341-.511-.65-1.037-.943-1.571 3.279-1.637 5.416-5.016 5.416-8.741zm-32.712-11.58c-.091.36-.176.721-.246 1.088l-.806 4.235c-.756-.552-1.236-1.439-1.236-2.418 0-1.408.978-2.583 2.288-2.905zm-13.287 35.054v-.149h3.999c.173 0 .339-.03.506-.051-1.1 1.254-2.71 2.051-4.506 2.051h-.306c.196-.582.307-1.203.307-1.851zm3.999-2.149h-4.349c-.056-.157-.116-.311-.184-.461 1.262-.979 2.302-2.178 3.06-3.539h3.473v2c0 1.103-.897 2-2 2zm2-22v4h-12v-4zm0 6v4h-12v-4zm-12 6h5l-.727.969c-.484.645-1.255 1.031-2.062 1.031-.923 0-1.758-.481-2.211-1.248zm12 0v4h-2.611c.387-1.168.611-2.398.611-3.667 0-.114-.018-.223-.034-.333zm-10-26h8l.001 2h-8.001zm6 4v2h-4v-2zm-4.845 4h5.69c1.821.497 3.091 2.116 3.145 4h-11.98c.055-1.884 1.324-3.503 3.145-4zm-7.95 17.016 2.795-1.398v3.356l.011.284.105.211c.781 1.561 2.35 2.531 4.095 2.531 1.433 0 2.802-.685 3.662-1.831l1.526-2.036c.171-.229.6-.088.601.2 0 2.965-1.355 5.719-3.648 7.547-1.094-1.155-2.637-1.88-4.349-1.88h-1.002c-2.117 0-4.062.739-5.601 1.967-.894-1.043-1.4-2.373-1.4-3.766 0-2.21 1.229-4.197 3.205-5.185zm37.072 7.211c-.175-.387-.277-.796-.277-1.227 0-3.859 3.141-7 7-7h.615c.254 1.989.385 4 .385 6 0 2.206-1.794 4-4 4-.665 0-1.777-.145-2.228-.279-.445-.549-.946-1.05-1.495-1.494zm16.215-2.186c.987 1.48 1.508 3.201 1.508 4.98 0 4.952-4.027 8.979-8.979 8.979h-.539c-1.471 0-2.942-.348-4.256-1.005l-.605-.303c.241-.858.379-1.758.379-2.692 0-1.441-.313-2.808-.863-4.047.407.034.738.047.863.047 3.309 0 6-2.691 6-6 0-2.709-.226-5.438-.671-8.109l-1.287-7.718c-.028-.17-.042-.342-.042-.514v-.539c0-1.72 1.399-3.12 3.12-3.12.771 0 1.494.301 2.037.848.545.549.846 1.282.845 2.064v.179c0 .502-.409.91-1.001.91-.001-.001-.001-.001-.001-.001-.552 0-1-.449-1-1v-1h-2v1.339c0 4.557 1.336 8.969 3.863 12.758zm-2.783-8.433c-.788-1.834-1.308-3.767-1.546-5.756.293.088.6.148.927.148h.001c1.604 0 2.909-1.304 2.911-2.909v-.179c.001-1.314-.505-2.548-1.427-3.475-.921-.927-2.148-1.437-3.455-1.437-2.823 0-5.12 2.297-5.12 5.12v.539c0 .281.023.563.069.842l1.251 7.499h-.32c-4.91 0-8.908 3.954-8.992 8.845-1.228-.54-2.583-.845-4.008-.845-3.309 0-6 2.691-6 6s2.691 6 6 6c2.206 0 4-1.794 4-3.999 0-2.206-1.794-4.001-4-4.001v2c1.103 0 2 .897 2 2.001 0 1.103-.897 1.999-2 1.999-2.206 0-4-1.794-4-4s1.794-4 4-4c4.411 0 8 3.589 8 8 0 4.41-3.589 7.999-7.999 8h-.457c-4.096 0-7.797-2.186-9.813-5.714 1.093-1.967 1.767-4.206 1.876-6.605l.264-5.81c.071-1.572.725-3.051 1.837-4.164l-1.414-1.414c-1.467 1.467-2.326 3.415-2.421 5.487l-.264 5.81c-.317 6.959-6.021 12.41-12.987 12.41h-3.622c-3.859 0-7-3.141-7-7s3.141-7 7.001-7h1.002c2.204 0 3.997 1.795 3.998 4v.149c0 2.123-1.743 3.85-3.89 3.85l-.227.001c-1.04 0-1.886-.847-1.886-1.879l.001-.124c0-1.102.896-1.997 1.998-1.997h.003l-.003-2c-2.204 0-3.998 1.793-3.998 3.988l-.001.124c0 2.144 1.743 3.888 3.89 3.888l.228-.001c1.761 0 3.34-.777 4.419-1.999h1.465c4.411 0 8-3.589 8-8v-15.441c3.121-1.91 5.303-5.055 5.988-8.652l1.019-5.351c1.15-6.041 5.49-11.002 11.324-12.947l3.131-1.043c1.128-.375 2.303-.566 3.493-.566 6.09 0 11.045 4.955 11.045 11.045v13.63c0 2.954-1.696 5.626-4.291 6.933z"/></g></g></svg>