<svg id="Capa_1" enable-background="new 0 0 512 512" height="512" viewBox="0 0 512 512" width="512" xmlns="http://www.w3.org/2000/svg"><g><g><g><g><g><g><g><g><circle cx="256" cy="256" fill="#ff6c52" r="256"/></g></g></g></g></g></g></g><path d="m512 256c0-14.607-1.224-28.929-3.574-42.868l-108.582-108.583-287.688 287.687 118.528 118.528c8.328.817 16.773 1.236 25.316 1.236 141.385 0 256-114.615 256-256z" fill="#e50a0a"/><g><path d="m122.047 360.748-9.325 10.27c-5.813 6.402-6.061 15.722-.565 21.219 5.496 5.496 14.817 5.248 21.219-.565l10.27-9.325-3.658-17.941z" fill="#dce1eb"/></g><g><path d="m138.459 364.094-27.173 27.173c.274.333.56.66.87.97 5.496 5.497 14.817 5.248 21.219-.565l10.27-9.325-3.658-17.941z" fill="#bec3d2"/></g><g><path d="m214.223 318.259c6.926-6.289 15.395-10.732 24.594-12.429 6.639-1.225 12.988-4.404 18.122-9.539l140.14-140.14-19.758-29.081-29.081-19.758-140.14 140.14c-5.134 5.134-8.314 11.484-9.539 18.122-1.697 9.199-6.14 17.668-12.429 24.594l-64.087 70.578 21.598 21.598z" fill="#fff"/></g><g><path d="m348.241 107.313-140.14 140.14c-5.134 5.135-8.314 11.484-9.539 18.122-1.697 9.199-6.14 17.668-12.429 24.594l-64.086 70.578 9.879 9.879 244.3-244.3z" fill="#fff"/><path d="m376.226 126.327-244.3 244.3 11.719 11.719 70.578-64.086c6.925-6.289 15.395-10.732 24.594-12.429 6.639-1.225 12.988-4.404 18.122-9.539l140.14-140.14-19.758-29.081z" fill="#e9edf5"/></g><g><path d="m275.552 171.665h35.185v79.167h-35.185z" fill="#9196aa" transform="matrix(.707 .707 -.707 .707 235.235 -145.411)"/></g><g><path d="m259.321 207.562h79.167v18.893h-79.167z" fill="#707789" transform="matrix(.707 -.707 .707 .707 -65.901 274.915)"/></g><g><path d="m399.844 153.387c13.486-13.486 13.486-35.352 0-48.838-13.486-13.486-35.352-13.486-48.838 0l-2.765 2.765 48.838 48.838z" fill="#a260e5"/></g><g><path d="m399.844 104.549c-.309-.309-.626-.602-.943-.896l-27.16 27.16 25.339 25.339 2.765-2.765c13.485-13.486 13.485-35.352-.001-48.838z" fill="#7a3eb5"/></g><g><circle cx="347.012" cy="157.38" fill="#a260e5" r="15.538"/></g><g><path d="m357.033 145.52-21.881 21.881c.279.329.563.656.873.966 6.068 6.068 15.906 6.068 21.974 0s6.068-15.906 0-21.974c-.31-.31-.637-.594-.966-.873z" fill="#7a3eb5"/></g></g></svg>