<svg id="Layer_1" height="512" viewBox="0 0 128 128" width="512" xmlns="http://www.w3.org/2000/svg" data-name="Layer 1"><rect fill="#495766" height="16.908" rx="1.75" width="23" x="105" y="25.5"/><path d="m126.25 25.5h-4.333a1.75 1.75 0 0 1 1.75 1.75v13.408a1.75 1.75 0 0 1 -1.75 1.75h4.333a1.75 1.75 0 0 0 1.75-1.75v-13.408a1.75 1.75 0 0 0 -1.75-1.75z" fill="#303c47"/><path d="m89 95.888h-47v-55.23a1.75 1.75 0 0 0 -1.75-1.75h-19a1.75 1.75 0 0 0 -1.75 1.75v77.842a1.75 1.75 0 0 0 1.75 1.75h67.75a1.75 1.75 0 0 0 1.75-1.75v-20.862a1.75 1.75 0 0 0 -1.75-1.75z" fill="#fec13b"/><path d="m90.75 97.638a1.75 1.75 0 0 0 -1.75-1.75h-47v-55.23a1.75 1.75 0 0 0 -1.75-1.75h-3.25v58.732a6.758 6.758 0 0 0 6.75 6.75h47z" fill="#ffa000"/><path d="m89 7.75h-50a19.545 19.545 0 0 0 -17.853 11.67 16.125 16.125 0 0 0 -1.567 6.08h12.67a9.75 9.75 0 0 1 9.75 9.75v62.39a1.75 1.75 0 0 0 1.75 1.75h63a1.752 1.752 0 0 0 1.75-1.75v-70.39a19.5 19.5 0 0 0 -19.5-19.5z" fill="#ffecb3"/><path d="m89 7.75h-7.535a19.523 19.523 0 0 1 19.5 19.5v70.388a1.75 1.75 0 0 1 -1.75 1.75h7.535a1.75 1.75 0 0 0 1.75-1.75v-70.388a19.523 19.523 0 0 0 -19.5-19.5z" fill="#ffe082"/><path d="m100.183 70.079a6.957 6.957 0 0 1 -9.041 0 10.414 10.414 0 0 0 -13.133 0 6.947 6.947 0 0 1 -9.034 0 10.412 10.412 0 0 0 -13.131 0 6.942 6.942 0 0 1 -9.03 0 10.554 10.554 0 0 0 -4.814-2.179v12.758a7.824 7.824 0 0 1 2.764 1.46 10.407 10.407 0 0 0 13.128 0 6.947 6.947 0 0 1 9.034 0 10.413 10.413 0 0 0 13.132 0 6.949 6.949 0 0 1 9.035 0 10.421 10.421 0 0 0 13.138 0c1.592-1.15 2.774-2 6.27-1.543v-12.718a10.327 10.327 0 0 0 -8.318 2.222z" fill="#ef5350"/><path d="m42 35.25v7.16h-40.25a1.75 1.75 0 0 1 -1.75-1.75v-13.41a1.75 1.75 0 0 1 1.75-1.75h30.5a9.75 9.75 0 0 1 9.75 9.75z" fill="#495766"/><path d="m100.965 69.531v13.449c.461-.286.878-.582 1.265-.862 1.592-1.15 2.774-2 6.27-1.543v-12.718a10.1 10.1 0 0 0 -7.535 1.674z" fill="#e53935"/><path d="m32.25 30.5a4.75 4.75 0 0 1 4.75 4.75v7.16h5v-7.16a9.75 9.75 0 0 0 -9.75-9.75h-30.5a1.75 1.75 0 0 0 -1.75 1.75v3.25z" fill="#303c47"/></svg>