<svg height="512" viewBox="0 0 512 512" width="512" xmlns="http://www.w3.org/2000/svg"><g id="Virus_Spread" data-name="Virus Spread"><g id="Flat"><g fill="#79d47f"><path d="m256 72a8 8 0 0 1 -8-8v-24a8 8 0 0 1 16 0v24a8 8 0 0 1 -8 8z"/><path d="m281.344 67.563 32-48a8 8 0 1 1 13.312 8.875l-32 48c-5.764 8.65-19.229-.001-13.312-8.875z"/><path d="m344 120h-40a8 8 0 0 1 0-16h40a8 8 0 0 1 0 16z"/><path d="m208 120h-40a8 8 0 0 1 0-16h40a8 8 0 0 1 0 16z"/><path d="m256 208a8 8 0 0 1 -8-8v-40a8 8 0 0 1 16 0v40a8 8 0 0 1 -8 8z"/><path d="m324.422 167.155-32-16a8 8 0 0 1 7.156-14.31l32 16a8 8 0 1 1 -7.156 14.31z"/><path d="m215.993 80c-4.234 0-4.265-1.766-28.43-17.345a8 8 0 1 1 8.875-13.312l24 16c6.603 4.403 3.397 14.657-4.445 14.657z"/><path d="m207.992 200a8.011 8.011 0 0 1 -6.756-12.273l24-38a8 8 0 0 1 13.528 8.544c-23.741 35.234-22.992 41.729-30.772 41.729z"/><path d="m300.422 80.845 16-8a8 8 0 1 1 7.156 14.31l-16 8c-9.478 4.745-16.568-9.604-7.156-14.31z"/><path d="m230.99 67.855-22-40a8 8 0 1 1 14.02-7.71l22 40c5.137 9.341-8.946 16.935-14.02 7.71z"/><path d="m207.994 104c-3.238 0-3.742-1.223-19.572-8.847a8 8 0 1 1 7.156-14.31l16 8c7.511 3.757 4.843 15.157-3.584 15.157z"/><path d="m312.005 208c-6.872 0-5.99-4.363-38.252-43a8 8 0 0 1 12.494-10l32 40a8.011 8.011 0 0 1 -6.242 13z"/><path d="m192.007 160a8.008 8.008 0 0 1 -4.514-14.611l22-15a8 8 0 0 1 9.014 13.22c-22.073 14.503-22.216 16.391-26.5 16.391z"/></g><circle cx="256" cy="112" fill="#b0ed98" r="56"/><path d="m298.6 75.708a120.279 120.279 0 0 1 -78.892 78.892 55.956 55.956 0 0 0 78.892-78.892z" fill="#96ea8c"/><path d="m152 352h-112a32.036 32.036 0 0 1 -32-32v-32a88 88 0 0 1 176 0v32a32.036 32.036 0 0 1 -32 32z" fill="#68676b"/><path d="m150.541 218.99a164.113 164.113 0 0 1 -141.641 108.51 32.049 32.049 0 0 0 31.1 24.5h112a32.036 32.036 0 0 0 32-32v-32a87.886 87.886 0 0 0 -33.459-69.01z" fill="#58575b"/><path d="m0 448h48v64h-48z" fill="#ffdfc5"/><path d="m144 448h48v64h-48z" fill="#ffdfc5"/><path d="m120 371.556v-35.556h-48v35.556c-4.441 1.727-16 0-16 0v60.444h80v-60.444s-11.632 1.699-16 0z" fill="#ffd5c7"/><path d="m160 512h-128v-48h-24a8 8 0 0 1 -8-8v-50.531a34.557 34.557 0 0 1 27.222-33.936c33.313-6.46 44.778-6.218 44.778-6.218a158.259 158.259 0 0 0 0 18.685c0 7.665 13.317 17.622 24 23.118 10.679-5.493 24-15.452 24-23.118a158.942 158.942 0 0 0 0-18.685s11.5-.235 44.778 6.218a34.557 34.557 0 0 1 27.222 33.936v50.531a8 8 0 0 1 -8 8h-24z" fill="#c09fde"/><path d="m173.4 374.665a199.342 199.342 0 0 1 -141.4 115.097v22.238h128v-48h24a8 8 0 0 0 8-8v-50.531a34.525 34.525 0 0 0 -18.6-30.804z" fill="#bc85dd"/><path d="m366.062 405.6c-12.571-12.573-14.223-26.618-14.172-38.706.041-9.485 11.87-8.216 16.11-9.79v-29.104h64v29.108c4.176 1.552 16 .319 16 9.759-.315 1.152 4.119 35.078-29.612 49.05a47.255 47.255 0 0 1 -52.326-10.317z" fill="#ffd5c7"/><path d="m399.407 355.667c-24.761 0-46.318-15.539-53.639-38.667l-10.518-48.485s31.342-17.138 45.938-12.467c7.4 2.368 13.905 3.619 18.812 3.619s11.412-1.251 18.812-3.619c14.233-4.556 44.7 12.553 44.7 12.553l-10.465 48.399c-7.32 23.128-28.877 38.667-53.64 38.667z" fill="#ffdfc5"/><path d="m460.184 284.49c-6.577-.24-28-15.922-36.5-13.2-18.109 5.8-29.246 5.8-47.376 0-8.776-2.809-30.869 13.1-37.671 13.186-.012-2.593-10.98-31.656 12.5-60.522 25.691-31.593 71.069-32 96.571-.719 23.316 28.594 12.478 59.131 12.476 61.255z" fill="#68676b"/><path d="m48 312v-40h96c-2.114 29.11 6.535 52.895-13.217 73.558-28.46 29.775-82.783 11.652-82.783-33.558z" fill="#ffdfc5"/><path d="m288 464h56v48h-56z" fill="#ffdfc5"/><path d="m456 464h56v48h-56z" fill="#ffdfc5"/><path d="m472 512h-144v-32h-40v-74.1a40.107 40.107 0 0 1 32.155-39.223l38.166-7.633a8.008 8.008 0 0 1 8.289 3.5c3.433 5.249-2.385 18.6 10.767 31.749 20.023 20.018 54.623 5.82 54.623-22.626 0-11.667 6.441-13.27 9.569-12.645l38.276 7.655a40.107 40.107 0 0 1 32.155 39.223v74.1h-40z" fill="#c09fde"/><path d="m479.845 366.677s-15.845 113.323-130.94 145.323h123.095v-32h40v-74.1a40.107 40.107 0 0 0 -32.155-39.223z" fill="#bc85dd"/><circle cx="332" cy="412" fill="#d2c1e8" r="20"/><circle cx="372" cy="436" fill="#d2c1e8" r="12"/><circle cx="36" cy="412" fill="#d2c1e8" r="20"/><circle cx="76" cy="436" fill="#d2c1e8" r="12"/><circle cx="216" cy="304" fill="#f27c6d" r="8"/><circle cx="256" cy="8" fill="#79d47f" r="8"/><circle cx="256" cy="232" fill="#79d47f" r="8"/><circle cx="168" cy="168" fill="#79d47f" r="8"/><circle cx="344" cy="64" fill="#79d47f" r="8"/><circle cx="248" cy="128" fill="#79d47f" r="8"/><circle cx="248" cy="96" fill="#79d47f" r="8"/><circle cx="272" cy="120" fill="#79d47f" r="8"/><circle cx="168" cy="40" fill="#79d47f" r="8"/><path d="m319.845 302.434c-.652-3.283.135-1.693-26.188-28.091a8 8 0 0 0 -11.314 11.314l10.343 10.343h-44.686a8 8 0 0 0 0 16h44.686l-10.343 10.343a8 8 0 0 0 11.314 11.314c25.707-25.713 27.301-25.628 26.188-31.223z" fill="#f27c6d"/><circle cx="72" cy="240" fill="#8a8a8c" r="16"/><circle cx="104" cy="248" fill="#8a8a8c" r="8"/><path d="m447.708 223.232a63.183 63.183 0 0 0 -24.136-18.353 91.957 91.957 0 0 1 -41.284 68.166c14.792 3.956 25.369 3.372 41.4-1.759 8.5-2.718 29.919 12.964 36.5 13.2-.002-2.12 10.836-32.657-12.48-61.254z" fill="#58575b"/><circle cx="368" cy="240" fill="#8a8a8c" r="16"/><circle cx="400" cy="248" fill="#8a8a8c" r="8"/></g></g></svg>